<?xml version="1.0" encoding="UTF-8" standalone="no"?>
<svg
   width="800"
   height="480"
   viewBox="0 0 800 480"
   version="1.1"
   id="svg44"
   sodipodi:docname="gplot_6db.svg"
   inkscape:version="1.4.2 (ebf0e940d0, 2025-05-08)"
   xmlns:inkscape="http://www.inkscape.org/namespaces/inkscape"
   xmlns:sodipodi="http://sodipodi.sourceforge.net/DTD/sodipodi-0.dtd"
   xmlns:xlink="http://www.w3.org/1999/xlink"
   xmlns="http://www.w3.org/2000/svg"
   xmlns:svg="http://www.w3.org/2000/svg"
   xmlns:rdf="http://www.w3.org/1999/02/22-rdf-syntax-ns#"
   xmlns:cc="http://creativecommons.org/ns#"
   xmlns:dc="http://purl.org/dc/elements/1.1/">
  <defs
     id="defs44" />
  <sodipodi:namedview
     id="namedview44"
     pagecolor="#ffffff"
     bordercolor="#cccccc"
     borderopacity="1"
     inkscape:showpageshadow="0"
     inkscape:pageopacity="1"
     inkscape:pagecheckerboard="0"
     inkscape:deskcolor="#d1d1d1"
     inkscape:zoom="0.98331925"
     inkscape:cx="398.14129"
     inkscape:cy="262.37664"
     inkscape:window-width="1728"
     inkscape:window-height="1088"
     inkscape:window-x="0"
     inkscape:window-y="0"
     inkscape:window-maximized="1"
     inkscape:current-layer="svg44" />
  <title
     id="title1">Gnuplot</title>
  <desc
     id="desc1">Produced by GNUPLOT 6.0 patchlevel 3 </desc>
  <rect
     style="fill:#ffffff;stroke-width:3.77953;stroke-linecap:round;stroke-linejoin:bevel;paint-order:stroke markers fill"
     id="rect44"
     width="800"
     height="480"
     x="0"
     y="0" />
  <g
     id="gnuplot_canvas">
    <rect
       x="0"
       y="0"
       width="800"
       height="480"
       fill="none"
       id="rect1" />
    <defs
       id="defs2">
      <circle
         id="gpDot"
         r="0.5"
         stroke-width="0.5"
         stroke="currentColor" />
      <path
         id="gpPt0"
         stroke-width="0.222"
         stroke="currentColor"
         d="M-1,0 h2 M0,-1 v2" />
      <path
         id="gpPt1"
         stroke-width="0.222"
         stroke="currentColor"
         d="M-1,-1 L1,1 M1,-1 L-1,1" />
      <path
         id="gpPt2"
         stroke-width="0.222"
         stroke="currentColor"
         d="M-1,0 L1,0 M0,-1 L0,1 M-1,-1 L1,1 M-1,1 L1,-1" />
      <rect
         id="gpPt3"
         stroke-width="0.222"
         stroke="currentColor"
         x="-1"
         y="-1"
         width="2"
         height="2" />
      <rect
         id="gpPt4"
         stroke-width="0.222"
         stroke="currentColor"
         fill="currentColor"
         x="-1"
         y="-1"
         width="2"
         height="2" />
      <circle
         id="gpPt5"
         stroke-width="0.222"
         stroke="currentColor"
         cx="0"
         cy="0"
         r="1" />
      <use
         xlink:href="#gpPt5"
         id="gpPt6"
         fill="currentColor"
         stroke="none" />
      <path
         id="gpPt7"
         stroke-width="0.222"
         stroke="currentColor"
         d="M0,-1.33 L-1.33,0.67 L1.33,0.67 z" />
      <use
         xlink:href="#gpPt7"
         id="gpPt8"
         fill="currentColor"
         stroke="none" />
      <use
         xlink:href="#gpPt7"
         id="gpPt9"
         stroke="currentColor"
         transform="rotate(180)" />
      <use
         xlink:href="#gpPt9"
         id="gpPt10"
         fill="currentColor"
         stroke="none" />
      <use
         xlink:href="#gpPt3"
         id="gpPt11"
         stroke="currentColor"
         transform="rotate(45)" />
      <use
         xlink:href="#gpPt11"
         id="gpPt12"
         fill="currentColor"
         stroke="none" />
      <path
         id="gpPt13"
         stroke-width="0.222"
         stroke="currentColor"
         d="M0,1.330 L1.265,0.411 L0.782,-1.067 L-0.782,-1.076 L-1.265,0.411 z" />
      <use
         xlink:href="#gpPt13"
         id="gpPt14"
         fill="currentColor"
         stroke="none" />
      <filter
         id="textbox"
         filterUnits="objectBoundingBox"
         x="0"
         y="0"
         height="1"
         width="1">
        <feFlood
           flood-color="white"
           flood-opacity="1"
           result="bgnd"
           id="feFlood1" />
        <feComposite
           in="SourceGraphic"
           in2="bgnd"
           operator="atop"
           id="feComposite1" />
      </filter>
      <filter
         id="greybox"
         filterUnits="objectBoundingBox"
         x="0"
         y="0"
         height="1"
         width="1">
        <feFlood
           flood-color="lightgrey"
           flood-opacity="1"
           result="grey"
           id="feFlood2" />
        <feComposite
           in="SourceGraphic"
           in2="grey"
           operator="atop"
           id="feComposite2" />
      </filter>
    </defs>
    <g
       fill="none"
       color="white"
       stroke="black"
       stroke-width="1.00"
       stroke-linecap="butt"
       stroke-linejoin="miter"
       id="g2" />
    <g
       fill="none"
       color="black"
       stroke="currentColor"
       stroke-width="1.00"
       stroke-linecap="butt"
       stroke-linejoin="miter"
       id="g4">
      <path
         stroke="black"
         d="M54.53,444.00 L63.53,444.00 M774.82,444.00 L765.82,444.00  "
         id="path2" />
      <g
         transform="translate(46.14,447.90)"
         stroke="none"
         fill="black"
         font-family="Arial"
         font-size="12.00"
         text-anchor="end"
         id="g3">
        <text
           id="text2"><tspan
             font-family="Arial"
             id="tspan2">-1</tspan></text>
      </g>
    </g>
    <g
       fill="none"
       color="black"
       stroke="currentColor"
       stroke-width="1.00"
       stroke-linecap="butt"
       stroke-linejoin="miter"
       id="g6">
      <path
         stroke="black"
         d="M54.53,358.80 L63.53,358.80 M774.82,358.80 L765.82,358.80  "
         id="path4" />
      <g
         transform="translate(46.14,362.70)"
         stroke="none"
         fill="black"
         font-family="Arial"
         font-size="12.00"
         text-anchor="end"
         id="g5">
        <text
           id="text4"><tspan
             font-family="Arial"
             id="tspan4">-0.5</tspan></text>
      </g>
    </g>
    <g
       fill="none"
       color="black"
       stroke="currentColor"
       stroke-width="1.00"
       stroke-linecap="butt"
       stroke-linejoin="miter"
       id="g8">
      <path
         stroke="black"
         d="M54.53,273.60 L63.53,273.60 M774.82,273.60 L765.82,273.60  "
         id="path6" />
      <g
         transform="translate(46.14,277.50)"
         stroke="none"
         fill="black"
         font-family="Arial"
         font-size="12.00"
         text-anchor="end"
         id="g7">
        <text
           id="text6"><tspan
             font-family="Arial"
             id="tspan6"> 0</tspan></text>
      </g>
    </g>
    <g
       fill="none"
       color="black"
       stroke="currentColor"
       stroke-width="1.00"
       stroke-linecap="butt"
       stroke-linejoin="miter"
       id="g10">
      <path
         stroke="black"
         d="M54.53,188.41 L63.53,188.41 M774.82,188.41 L765.82,188.41  "
         id="path8" />
      <g
         transform="translate(46.14,192.31)"
         stroke="none"
         fill="black"
         font-family="Arial"
         font-size="12.00"
         text-anchor="end"
         id="g9">
        <text
           id="text8"><tspan
             font-family="Arial"
             id="tspan8"> 0.5</tspan></text>
      </g>
    </g>
    <g
       fill="none"
       color="black"
       stroke="currentColor"
       stroke-width="1.00"
       stroke-linecap="butt"
       stroke-linejoin="miter"
       id="g12">
      <path
         stroke="black"
         d="M54.53,103.21 L63.53,103.21 M774.82,103.21 L765.82,103.21  "
         id="path10" />
      <g
         transform="translate(46.14,107.11)"
         stroke="none"
         fill="black"
         font-family="Arial"
         font-size="12.00"
         text-anchor="end"
         id="g11">
        <text
           id="text10"><tspan
             font-family="Arial"
             id="tspan10"> 1</tspan></text>
      </g>
    </g>
    <g
       fill="none"
       color="black"
       stroke="currentColor"
       stroke-width="1.00"
       stroke-linecap="butt"
       stroke-linejoin="miter"
       id="g14">
      <path
         stroke="black"
         d="M54.53,18.01 L63.53,18.01 M774.82,18.01 L765.82,18.01  "
         id="path12" />
      <g
         transform="translate(46.14,21.91)"
         stroke="none"
         fill="black"
         font-family="Arial"
         font-size="12.00"
         text-anchor="end"
         id="g13">
        <text
           id="text12"><tspan
             font-family="Arial"
             id="tspan12"> 1.5</tspan></text>
      </g>
    </g>
    <g
       fill="none"
       color="black"
       stroke="currentColor"
       stroke-width="1.00"
       stroke-linecap="butt"
       stroke-linejoin="miter"
       id="g16">
      <path
         stroke="black"
         d="M54.53,444.00 L54.53,435.00 M54.53,18.01 L54.53,27.01  "
         id="path14" />
      <g
         transform="translate(54.53,465.90)"
         stroke="none"
         fill="black"
         font-family="Arial"
         font-size="12.00"
         text-anchor="middle"
         id="g15">
        <text
           id="text14"><tspan
             font-family="Arial"
             id="tspan14"> 0</tspan></text>
      </g>
    </g>
    <g
       fill="none"
       color="black"
       stroke="currentColor"
       stroke-width="1.00"
       stroke-linecap="butt"
       stroke-linejoin="miter"
       id="g18">
      <path
         stroke="black"
         d="M174.58,444.00 L174.58,435.00 M174.58,18.01 L174.58,27.01  "
         id="path16" />
      <g
         transform="translate(174.58,465.90)"
         stroke="none"
         fill="black"
         font-family="Arial"
         font-size="12.00"
         text-anchor="middle"
         id="g17">
        <text
           id="text16"><tspan
             font-family="Arial"
             id="tspan16"> 0.01</tspan></text>
      </g>
    </g>
    <g
       fill="none"
       color="black"
       stroke="currentColor"
       stroke-width="1.00"
       stroke-linecap="butt"
       stroke-linejoin="miter"
       id="g20">
      <path
         stroke="black"
         d="M294.63,444.00 L294.63,435.00 M294.63,18.01 L294.63,27.01  "
         id="path18" />
      <g
         transform="translate(294.63,465.90)"
         stroke="none"
         fill="black"
         font-family="Arial"
         font-size="12.00"
         text-anchor="middle"
         id="g19">
        <text
           id="text18"><tspan
             font-family="Arial"
             id="tspan18"> 0.02</tspan></text>
      </g>
    </g>
    <g
       fill="none"
       color="black"
       stroke="currentColor"
       stroke-width="1.00"
       stroke-linecap="butt"
       stroke-linejoin="miter"
       id="g22">
      <path
         stroke="black"
         d="M414.68,444.00 L414.68,435.00 M414.68,18.01 L414.68,27.01  "
         id="path20" />
      <g
         transform="translate(414.68,465.90)"
         stroke="none"
         fill="black"
         font-family="Arial"
         font-size="12.00"
         text-anchor="middle"
         id="g21">
        <text
           id="text20"><tspan
             font-family="Arial"
             id="tspan20"> 0.03</tspan></text>
      </g>
    </g>
    <g
       fill="none"
       color="black"
       stroke="currentColor"
       stroke-width="1.00"
       stroke-linecap="butt"
       stroke-linejoin="miter"
       id="g24">
      <path
         stroke="black"
         d="M534.72,444.00 L534.72,435.00 M534.72,18.01 L534.72,27.01  "
         id="path22" />
      <g
         transform="translate(534.72,465.90)"
         stroke="none"
         fill="black"
         font-family="Arial"
         font-size="12.00"
         text-anchor="middle"
         id="g23">
        <text
           id="text22"><tspan
             font-family="Arial"
             id="tspan22"> 0.04</tspan></text>
      </g>
    </g>
    <g
       fill="none"
       color="black"
       stroke="currentColor"
       stroke-width="1.00"
       stroke-linecap="butt"
       stroke-linejoin="miter"
       id="g26">
      <path
         stroke="black"
         d="M654.77,444.00 L654.77,435.00 M654.77,18.01 L654.77,27.01  "
         id="path24" />
      <g
         transform="translate(654.77,465.90)"
         stroke="none"
         fill="black"
         font-family="Arial"
         font-size="12.00"
         text-anchor="middle"
         id="g25">
        <text
           id="text24"><tspan
             font-family="Arial"
             id="tspan24"> 0.05</tspan></text>
      </g>
    </g>
    <g
       fill="none"
       color="black"
       stroke="currentColor"
       stroke-width="1.00"
       stroke-linecap="butt"
       stroke-linejoin="miter"
       id="g28">
      <path
         stroke="black"
         d="M774.82,444.00 L774.82,435.00 M774.82,18.01 L774.82,27.01  "
         id="path26" />
      <g
         transform="translate(774.82,465.90)"
         stroke="none"
         fill="black"
         font-family="Arial"
         font-size="12.00"
         text-anchor="middle"
         id="g27">
        <text
           id="text26"><tspan
             font-family="Arial"
             id="tspan26"> 0.06</tspan></text>
      </g>
    </g>
    <g
       fill="none"
       color="black"
       stroke="currentColor"
       stroke-width="1.00"
       stroke-linecap="butt"
       stroke-linejoin="miter"
       id="g29" />
    <g
       fill="none"
       color="black"
       stroke="currentColor"
       stroke-width="1.00"
       stroke-linecap="butt"
       stroke-linejoin="miter"
       id="g30">
      <path
         stroke="black"
         d="M54.53,18.01 L54.53,444.00 L774.82,444.00 L774.82,18.01 L54.53,18.01 Z  "
         id="path29" />
    </g>
    <g
       fill="none"
       color="black"
       stroke="currentColor"
       stroke-width="1.00"
       stroke-linecap="butt"
       stroke-linejoin="miter"
       id="g31" />
    <g
       id="gnuplot_plot_1">
      <title
         id="title31">Fitted ideal clipped sin()</title>
      <g
         fill="none"
         color="white"
         stroke="black"
         stroke-width="10.00"
         stroke-linecap="butt"
         stroke-linejoin="miter"
         id="g32" />
      <g
         fill="none"
         color="black"
         stroke="currentColor"
         stroke-width="10.00"
         stroke-linecap="butt"
         stroke-linejoin="miter"
         id="g34">
        <g
           transform="translate(707.09,39.91)"
           stroke="none"
           fill="black"
           font-family="Arial"
           font-size="12.00"
           text-anchor="end"
           id="g33">
          <text
             id="text32"><tspan
               font-family="Arial"
               id="tspan32">Fitted ideal clipped sin()</tspan></text>
        </g>
      </g>
      <g
         fill="none"
         color="black"
         stroke="currentColor"
         stroke-width="10.00"
         stroke-linecap="butt"
         stroke-linejoin="miter"
         id="g35">
        <path
           stroke="rgb( 86, 180, 233)"
           d="M715.48,36.01 L758.04,36.01 M54.53,289.53 L55.25,293.97 L55.97,298.37 L56.69,302.74 L57.41,307.05 L58.13,311.32   L58.85,315.53 L59.57,319.67 L60.29,323.74 L61.01,327.74 L61.74,331.66 L62.46,335.48 L63.18,339.22 L63.90,342.86   L64.62,346.39 L65.34,349.82 L66.06,353.13 L66.78,356.33 L67.50,359.41 L68.22,362.36 L68.94,365.18 L69.66,367.86   L70.38,370.41 L71.10,372.81 L71.82,375.07 L72.54,377.18 L73.26,379.15 L73.98,380.95 L74.70,382.60 L75.43,384.10   L76.15,385.43 L76.87,386.59 L77.59,387.60 L78.31,388.44 L79.03,389.11 L79.75,389.61 L80.47,389.95 L81.19,390.03   L81.91,390.03 L82.63,389.94 L83.35,389.59 L84.07,389.08 L84.79,388.41 L85.51,387.56 L86.23,386.55 L86.95,385.37   L87.67,384.04 L88.39,382.54 L89.12,380.88 L89.84,379.07 L90.56,377.10 L91.28,374.98 L92.00,372.72 L92.72,370.30   L93.44,367.75 L94.16,365.06 L94.88,362.24 L95.60,359.28 L96.32,356.20 L97.04,353.00 L97.76,349.68 L98.48,346.25   L99.20,342.71 L99.92,339.07 L100.64,335.33 L101.36,331.50 L102.09,327.58 L102.81,323.58 L103.53,319.50 L104.25,315.35   L104.97,311.14 L105.69,306.88 L106.41,302.56 L107.13,298.19 L107.85,293.78 L108.57,289.34 L109.29,284.87 L110.01,280.38   L110.73,275.88 L111.45,271.37 L112.17,266.85 L112.89,262.34 L113.61,257.84 L114.33,253.35 L115.05,248.89 L115.78,244.46   L116.50,240.06 L117.22,235.71 L117.94,231.40 L118.66,227.15 L119.38,222.95 L120.10,218.82 L120.82,214.77 L121.54,210.79   L122.26,206.89 L122.98,203.08 L123.70,199.37 L124.42,195.75 L125.14,192.24 L125.86,188.84 L126.58,185.55 L127.30,182.38   L128.02,179.33 L128.74,176.41 L129.47,173.62 L130.19,170.97 L130.91,168.45 L131.63,166.08 L132.35,163.85 L133.07,161.77   L133.79,159.85 L134.51,158.07 L135.23,156.46 L135.95,155.00 L136.67,153.71 L137.39,152.58 L138.11,151.61 L138.83,150.81   L139.55,150.17 L140.27,149.71 L140.99,149.41 L141.71,149.38 L142.43,149.38 L143.16,149.53 L143.88,149.91 L144.60,150.46   L145.32,151.18 L146.04,152.06 L146.76,153.11 L147.48,154.32 L148.20,155.69 L148.92,157.23 L149.64,158.92 L150.36,160.77   L151.08,162.77 L151.80,164.92 L152.52,167.22 L153.24,169.66 L153.96,172.24 L154.68,174.97 L155.40,177.82 L156.12,180.80   L156.85,183.91 L157.57,187.14 L158.29,190.48 L159.01,193.94 L159.73,197.50 L160.45,201.17 L161.17,204.93 L161.89,208.78   L162.61,212.72 L163.33,216.73 L164.05,220.83 L164.77,224.99 L165.49,229.21 L166.21,233.49 L166.93,237.82 L167.65,242.20   L168.37,246.61 L169.09,251.06 L169.81,255.53 L170.54,260.03 L171.26,264.53 L171.98,269.05 L172.70,273.56 L173.42,278.07   L174.14,282.57 L174.86,287.05 L175.58,291.51 L176.30,295.93 L177.02,300.32 L177.74,304.67 L178.46,308.96 L179.18,313.20   L179.90,317.38 L180.62,321.49 L181.34,325.53 L182.06,329.49 L182.78,333.37 L183.50,337.16 L184.23,340.85 L184.95,344.44   L185.67,347.93 L186.39,351.31 L187.11,354.57 L187.83,357.72 L188.55,360.74 L189.27,363.63 L189.99,366.39 L190.71,369.01   L191.43,371.50 L192.15,373.84 L192.87,376.03 L193.59,378.08 L194.31,379.97 L195.03,381.71 L195.75,383.29 L196.47,384.71   L197.20,385.97 L197.92,387.06 L198.64,387.99 L199.36,388.76 L200.08,389.35 L200.80,389.78 L201.52,390.03 L202.24,390.03   L202.96,390.03 L203.68,389.80 L204.40,389.39 L205.12,388.80 L205.84,388.05 L206.56,387.13 L207.28,386.05 L208.00,384.80   L208.72,383.39 L209.44,381.82 L210.16,380.09 L210.89,378.21 L211.61,376.18 L212.33,373.99 L213.05,371.66 L213.77,369.18   L214.49,366.57 L215.21,363.82 L215.93,360.94 L216.65,357.93 L217.37,354.79 L218.09,351.54 L218.81,348.17 L219.53,344.68   L220.25,341.10 L220.97,337.41 L221.69,333.63 L222.41,329.76 L223.13,325.80 L223.85,321.77 L224.58,317.66 L225.30,313.49   L226.02,309.25 L226.74,304.96 L227.46,300.62 L228.18,296.23 L228.90,291.81 L229.62,287.35 L230.34,282.88 L231.06,278.38   L231.78,273.87 L232.50,269.35 L233.22,264.84 L233.94,260.33 L234.66,255.84 L235.38,251.36 L236.10,246.91 L236.82,242.50   L237.54,238.12 L238.27,233.78 L238.99,229.50 L239.71,225.27 L240.43,221.11 L241.15,217.01 L241.87,212.99 L242.59,209.04   L243.31,205.19 L244.03,201.42 L244.75,197.75 L245.47,194.18 L246.19,190.71 L246.91,187.36 L247.63,184.13 L248.35,181.01   L249.07,178.02 L249.79,175.15 L250.51,172.42 L251.23,169.83 L251.96,167.38 L252.68,165.07 L253.40,162.91 L254.12,160.90   L254.84,159.04 L255.56,157.34 L256.28,155.79 L257.00,154.41 L257.72,153.18 L258.44,152.13 L259.16,151.23 L259.88,150.50   L260.60,149.95 L261.32,149.55 L262.04,149.38 L262.76,149.38 L263.48,149.40 L264.20,149.68 L264.92,150.14 L265.65,150.76   L266.37,151.55 L267.09,152.51 L267.81,153.63 L268.53,154.91 L269.25,156.36 L269.97,157.96 L270.69,159.72 L271.41,161.64   L272.13,163.71 L272.85,165.92 L273.57,168.29 L274.29,170.79 L275.01,173.44 L275.73,176.22 L276.45,179.13 L277.17,182.17   L277.89,185.33 L278.61,188.61 L279.34,192.01 L280.06,195.51 L280.78,199.12 L281.50,202.83 L282.22,206.63 L282.94,210.52   L283.66,214.50 L284.38,218.55 L285.10,222.67 L285.82,226.86 L286.54,231.11 L287.26,235.41 L287.98,239.77 L288.70,244.16   L289.42,248.59 L290.14,253.05 L290.86,257.53 L291.58,262.03 L292.31,266.54 L293.03,271.06 L293.75,275.57 L294.47,280.08   L295.19,284.57 L295.91,289.04 L296.63,293.48 L297.35,297.89 L298.07,302.26 L298.79,306.58 L299.51,310.86 L300.23,315.07   L300.95,319.22 L301.67,323.30 L302.39,327.31 L303.11,331.23 L303.83,335.07 L304.55,338.82 L305.27,342.46 L306.00,346.01   L306.72,349.45 L307.44,352.78 L308.16,355.99 L308.88,359.08 L309.60,362.04 L310.32,364.87 L311.04,367.57 L311.76,370.14   L312.48,372.56 L313.20,374.83 L313.92,376.96 L314.64,378.94 L315.36,380.76 L316.08,382.43 L316.80,383.94 L317.52,385.29   L318.24,386.47 L318.96,387.50 L319.69,388.35 L320.41,389.04 L321.13,389.56 L321.85,389.92 L322.57,390.03 L323.29,390.03   L324.01,389.96 L324.73,389.64 L325.45,389.15 L326.17,388.49 L326.89,387.66 L327.61,386.67 L328.33,385.51 L329.05,384.19   L329.77,382.71 L330.49,381.07 L331.21,379.27 L331.93,377.32 L332.65,375.22 L333.38,372.97 L334.10,370.57 L334.82,368.04   L335.54,365.36 L336.26,362.55 L336.98,359.61 L337.70,356.54 L338.42,353.36 L339.14,350.05 L339.86,346.63 L340.58,343.10   L341.30,339.47 L342.02,335.74 L342.74,331.92 L343.46,328.01 L344.18,324.02 L344.90,319.95 L345.62,315.81 L346.34,311.61   L347.07,307.35 L347.79,303.03 L348.51,298.67 L349.23,294.27 L349.95,289.83 L350.67,285.36 L351.39,280.88 L352.11,276.37   L352.83,271.86 L353.55,267.34 L354.27,262.83 L354.99,258.33 L355.71,253.84 L356.43,249.38 L357.15,244.94 L357.87,240.54   L358.59,236.18 L359.31,231.87 L360.03,227.61 L360.76,223.41 L361.48,219.27 L362.20,215.21 L362.92,211.22 L363.64,207.31   L364.36,203.50 L365.08,199.77 L365.80,196.15 L366.52,192.62 L367.24,189.21 L367.96,185.91 L368.68,182.72 L369.40,179.66   L370.12,176.73 L370.84,173.92 L371.56,171.25 L372.28,168.72 L373.00,166.33 L373.72,164.09 L374.45,161.99 L375.17,160.05   L375.89,158.26 L376.61,156.63 L377.33,155.15 L378.05,153.84 L378.77,152.69 L379.49,151.71 L380.21,150.89 L380.93,150.23   L381.65,149.75 L382.37,149.43 L383.09,149.38 L383.81,149.38 L384.53,149.50 L385.25,149.86 L385.97,150.39 L386.69,151.09   L387.42,151.95 L388.14,152.98 L388.86,154.18 L389.58,155.53 L390.30,157.05 L391.02,158.73 L391.74,160.56 L392.46,162.54   L393.18,164.68 L393.90,166.96 L394.62,169.39 L395.34,171.96 L396.06,174.66 L396.78,177.50 L397.50,180.47 L398.22,183.56   L398.94,186.78 L399.66,190.11 L400.38,193.56 L401.11,197.11 L401.83,200.76 L402.55,204.51 L403.27,208.35 L403.99,212.28   L404.71,216.29 L405.43,220.37 L406.15,224.53 L406.87,228.74 L407.59,233.02 L408.31,237.35 L409.03,241.72 L409.75,246.13   L410.47,250.57 L411.19,255.04 L411.91,259.53 L412.63,264.04 L413.35,268.55 L414.07,273.07 L414.80,277.58 L415.52,282.08   L416.24,286.56 L416.96,291.02 L417.68,295.45 L418.40,299.84 L419.12,304.19 L419.84,308.49 L420.56,312.74 L421.28,316.93   L422.00,321.05 L422.72,325.10 L423.44,329.07 L424.16,332.95 L424.88,336.75 L425.60,340.45 L426.32,344.06 L427.04,347.56   L427.76,350.95 L428.49,354.22 L429.21,357.38 L429.93,360.41 L430.65,363.32 L431.37,366.09 L432.09,368.73 L432.81,371.23   L433.53,373.59 L434.25,375.80 L434.97,377.86 L435.69,379.77 L436.41,381.52 L437.13,383.12 L437.85,384.56 L438.57,385.84   L439.29,386.95 L440.01,387.90 L440.73,388.68 L441.45,389.30 L442.18,389.74 L442.90,390.02 L443.62,390.03 L444.34,390.03   L445.06,389.84 L445.78,389.44 L446.50,388.87 L447.22,388.14 L447.94,387.24 L448.66,386.17 L449.38,384.94 L450.10,383.55   L450.82,382.00 L451.54,380.29 L452.26,378.42 L452.98,376.40 L453.70,374.24 L454.42,371.92 L455.14,369.46 L455.87,366.86   L456.59,364.13 L457.31,361.26 L458.03,358.26 L458.75,355.14 L459.47,351.90 L460.19,348.54 L460.91,345.07 L461.63,341.50   L462.35,337.82 L463.07,334.05 L463.79,330.19 L464.51,326.24 L465.23,322.22 L465.95,318.12 L466.67,313.95 L467.39,309.72   L468.11,305.43 L468.83,301.09 L469.56,296.71 L470.28,292.29 L471.00,287.84 L471.72,283.37 L472.44,278.87 L473.16,274.36   L473.88,269.85 L474.60,265.33 L475.32,260.82 L476.04,256.33 L476.76,251.85 L477.48,247.40 L478.20,242.98 L478.92,238.59   L479.64,234.25 L480.36,229.96 L481.08,225.73 L481.80,221.56 L482.53,217.45 L483.25,213.42 L483.97,209.47 L484.69,205.60   L485.41,201.83 L486.13,198.14 L486.85,194.56 L487.57,191.09 L488.29,187.72 L489.01,184.47 L489.73,181.34 L490.45,178.34   L491.17,175.46 L491.89,172.72 L492.61,170.11 L493.33,167.64 L494.05,165.32 L494.77,163.14 L495.49,161.11 L496.22,159.23   L496.94,157.51 L497.66,155.95 L498.38,154.55 L499.10,153.31 L499.82,152.23 L500.54,151.32 L501.26,150.58 L501.98,150.00   L502.70,149.59 L503.42,149.38 L504.14,149.38 L504.86,149.38 L505.58,149.64 L506.30,150.08 L507.02,150.68 L507.74,151.45   L508.46,152.39 L509.18,153.50 L509.91,154.76 L510.63,156.19 L511.35,157.78 L512.07,159.52 L512.79,161.42 L513.51,163.47   L514.23,165.68 L514.95,168.02 L515.67,170.51 L516.39,173.14 L517.11,175.91 L517.83,178.81 L518.55,181.83 L519.27,184.98   L519.99,188.25 L520.71,191.63 L521.43,195.12 L522.15,198.72 L522.87,202.42 L523.60,206.21 L524.32,210.09 L525.04,214.06   L525.76,218.10 L526.48,222.22 L527.20,226.40 L527.92,230.64 L528.64,234.94 L529.36,239.29 L530.08,243.68 L530.80,248.10   L531.52,252.56 L532.24,257.04 L532.96,261.54 L533.68,266.05 L534.40,270.57 L535.12,275.08 L535.84,279.59 L536.56,284.08   L537.29,288.55 L538.01,293.00 L538.73,297.41 L539.45,301.79 L540.17,306.11 L540.89,310.39 L541.61,314.61 L542.33,318.77   L543.05,322.86 L543.77,326.87 L544.49,330.81 L545.21,334.65 L545.93,338.41 L546.65,342.07 L547.37,345.63 L548.09,349.08   L548.81,352.42 L549.53,355.64 L550.25,358.75 L550.98,361.72 L551.70,364.57 L552.42,367.28 L553.14,369.86 L553.86,372.30   L554.58,374.59 L555.30,376.74 L556.02,378.73 L556.74,380.57 L557.46,382.26 L558.18,383.78 L558.90,385.15 L559.62,386.35   L560.34,387.39 L561.06,388.27 L561.78,388.98 L562.50,389.52 L563.22,389.89 L563.94,390.03 L564.67,390.03 L565.39,389.99   L566.11,389.68 L566.83,389.21 L567.55,388.57 L568.27,387.76 L568.99,386.78 L569.71,385.65 L570.43,384.34 L571.15,382.88   L571.87,381.26 L572.59,379.48 L573.31,377.54 L574.03,375.46 L574.75,373.22 L575.47,370.84 L576.19,368.32 L576.91,365.66   L577.64,362.87 L578.36,359.94 L579.08,356.89 L579.80,353.71 L580.52,350.42 L581.24,347.01 L581.96,343.49 L582.68,339.87   L583.40,336.15 L584.12,332.34 L584.84,328.44 L585.56,324.46 L586.28,320.40 L587.00,316.27 L587.72,312.07 L588.44,307.81   L589.16,303.51 L589.88,299.15 L590.60,294.75 L591.33,290.32 L592.05,285.85 L592.77,281.37 L593.49,276.87 L594.21,272.35   L594.93,267.84 L595.65,263.32 L596.37,258.82 L597.09,254.33 L597.81,249.86 L598.53,245.43 L599.25,241.02 L599.97,236.66   L600.69,232.34 L601.41,228.07 L602.13,223.86 L602.85,219.72 L603.57,215.65 L604.29,211.65 L605.02,207.74 L605.74,203.91   L606.46,200.17 L607.18,196.54 L607.90,193.00 L608.62,189.58 L609.34,186.26 L610.06,183.06 L610.78,179.99 L611.50,177.04   L612.22,174.22 L612.94,171.54 L613.66,168.99 L614.38,166.59 L615.10,164.33 L615.82,162.22 L616.54,160.26 L617.26,158.45   L617.98,156.80 L618.71,155.31 L619.43,153.98 L620.15,152.81 L620.87,151.81 L621.59,150.97 L622.31,150.30 L623.03,149.80   L623.75,149.46 L624.47,149.38 L625.19,149.38 L625.91,149.47 L626.63,149.82 L627.35,150.33 L628.07,151.01 L628.79,151.85   L629.51,152.86 L630.23,154.04 L630.95,155.38 L631.67,156.88 L632.40,158.53 L633.12,160.35 L633.84,162.32 L634.56,164.44   L635.28,166.70 L636.00,169.11 L636.72,171.67 L637.44,174.36 L638.16,177.18 L638.88,180.14 L639.60,183.22 L640.32,186.42   L641.04,189.74 L641.76,193.17 L642.48,196.71 L643.20,200.36 L643.92,204.10 L644.64,207.93 L645.36,211.85 L646.09,215.85   L646.81,219.92 L647.53,224.07 L648.25,228.28 L648.97,232.55 L649.69,236.87 L650.41,241.24 L651.13,245.64 L651.85,250.08   L652.57,254.55 L653.29,259.04 L654.01,263.55 L654.73,268.06 L655.45,272.58 L656.17,277.09 L656.89,281.59 L657.61,286.07   L658.33,290.54 L659.05,294.97 L659.78,299.36 L660.50,303.72 L661.22,308.03 L661.94,312.28 L662.66,316.47 L663.38,320.60   L664.10,324.66 L664.82,328.64 L665.54,332.53 L666.26,336.34 L666.98,340.05 L667.70,343.67 L668.42,347.18 L669.14,350.58   L669.86,353.87 L670.58,357.04 L671.30,360.09 L672.02,363.01 L672.75,365.80 L673.47,368.45 L674.19,370.96 L674.91,373.34   L675.63,375.56 L676.35,377.64 L677.07,379.57 L677.79,381.34 L678.51,382.96 L679.23,384.41 L679.95,385.71 L680.67,386.84   L681.39,387.80 L682.11,388.60 L682.83,389.24 L683.55,389.70 L684.27,390.00 L684.99,390.03 L685.71,390.03 L686.44,389.87   L687.16,389.49 L687.88,388.94 L688.60,388.23 L689.32,387.35 L690.04,386.30 L690.76,385.09 L691.48,383.71 L692.20,382.18   L692.92,380.48 L693.64,378.63 L694.36,376.63 L695.08,374.48 L695.80,372.18 L696.52,369.74 L697.24,367.15 L697.96,364.43   L698.68,361.58 L699.40,358.59 L700.13,355.49 L700.85,352.26 L701.57,348.91 L702.29,345.46 L703.01,341.89 L703.73,338.23   L704.45,334.47 L705.17,330.61 L705.89,326.68 L706.61,322.66 L707.33,318.57 L708.05,314.41 L708.77,310.18 L709.49,305.90   L710.21,301.57 L710.93,297.19 L711.65,292.78 L712.37,288.33 L713.09,283.86 L713.82,279.36 L714.54,274.86 L715.26,270.34   L715.98,265.83 L716.70,261.32 L717.42,256.82 L718.14,252.34 L718.86,247.88 L719.58,243.46 L720.30,239.07 L721.02,234.73   L721.74,230.43 L722.46,226.19 L723.18,222.01 L723.90,217.90 L724.62,213.86 L725.34,209.90 L726.06,206.02 L726.78,202.23   L727.51,198.54 L728.23,194.95 L728.95,191.46 L729.67,188.09 L730.39,184.82 L731.11,181.68 L731.83,178.66 L732.55,175.77   L733.27,173.01 L733.99,170.39 L734.71,167.90 L735.43,165.56 L736.15,163.37 L736.87,161.32 L737.59,159.43 L738.31,157.70   L739.03,156.12 L739.75,154.70 L740.47,153.44 L741.20,152.34 L741.92,151.41 L742.64,150.65 L743.36,150.05 L744.08,149.63   L744.80,149.38 L745.52,149.38 L746.24,149.38 L746.96,149.61 L747.68,150.02 L748.40,150.61 L749.12,151.36 L749.84,152.28   L750.56,153.37 L751.28,154.62 L752.00,156.03 L752.72,157.60 L753.44,159.32 L754.16,161.21 L754.89,163.24 L755.61,165.43   L756.33,167.76 L757.05,170.23 L757.77,172.85 L758.49,175.60 L759.21,178.48 L759.93,181.50 L760.65,184.63 L761.37,187.89   L762.09,191.26 L762.81,194.74 L763.53,198.32 L764.25,202.01 L764.97,205.79 L765.69,209.66 L766.41,213.62 L767.13,217.65   L767.86,221.76 L768.58,225.94 L769.30,230.17 L770.02,234.47 L770.74,238.81 L771.46,243.19 L772.18,247.62 L772.90,252.07   L773.62,256.55 L774.34,261.05  "
           id="path34" />
      </g>
    </g>
    <g
       id="gnuplot_plot_2">
      <title
         id="title35">Measured wave</title>
      <g
         fill="none"
         color="white"
         stroke="rgb( 86, 180, 233)"
         stroke-width="3.00"
         stroke-linecap="butt"
         stroke-linejoin="miter"
         id="g36" />
      <g
         fill="none"
         color="black"
         stroke="currentColor"
         stroke-width="3.00"
         stroke-linecap="butt"
         stroke-linejoin="miter"
         id="g38">
        <g
           transform="translate(707.09,57.91)"
           stroke="none"
           fill="black"
           font-family="Arial"
           font-size="12.00"
           text-anchor="end"
           id="g37">
          <text
             id="text36"><tspan
               font-family="Arial"
               id="tspan36">Measured wave</tspan></text>
        </g>
      </g>
      <g
         fill="none"
         color="black"
         stroke="currentColor"
         stroke-width="3.00"
         stroke-linecap="butt"
         stroke-linejoin="miter"
         id="g39">
        <path
           stroke="rgb(148,   0, 211)"
           d="M715.48,54.01 L758.04,54.01 M54.53,291.33 L55.01,291.33 L55.49,294.05 L55.97,299.50 L56.45,302.23 L56.93,304.96   L57.41,304.96 L57.89,307.68 L58.37,311.77 L58.85,314.50 L59.33,318.59 L59.81,319.95 L60.29,322.68 L60.77,322.68   L61.25,330.86 L61.73,328.13 L62.21,333.58 L62.69,337.67 L63.17,340.40 L63.65,336.31 L64.13,343.13 L64.61,347.22   L65.09,351.30 L65.57,351.30 L66.05,354.03 L66.53,356.76 L67.02,355.39 L67.50,356.76 L67.98,360.85 L68.46,363.57   L68.94,366.30 L69.42,367.66 L69.90,370.39 L70.38,370.39 L70.86,374.48 L71.34,374.48 L71.82,377.20 L72.30,375.84   L72.78,378.57 L73.26,379.93 L73.74,381.29 L74.22,379.93 L74.70,386.75 L75.18,384.02 L75.66,384.02 L76.14,385.38   L76.62,388.11 L77.10,386.75 L77.58,388.11 L78.06,386.75 L78.54,389.47 L79.02,390.84 L79.50,388.11 L79.98,389.47   L80.46,389.47 L80.94,389.47 L81.42,392.20 L81.90,389.47 L82.38,389.47 L82.86,389.47 L83.34,388.11 L83.82,389.47   L84.30,388.11 L84.78,389.47 L85.26,388.11 L85.74,385.38 L86.22,385.38 L86.70,385.38 L87.18,385.38 L87.66,382.66   L88.14,384.02 L88.62,381.29 L89.10,378.57 L89.58,382.66 L90.06,381.29 L90.54,375.84 L91.02,375.84 L91.50,375.84   L91.99,371.75 L92.47,370.39 L92.95,370.39 L93.43,369.03 L93.91,366.30 L94.39,364.94 L94.87,363.57 L95.35,360.85   L95.83,359.48 L96.31,354.03 L96.79,354.03 L97.27,354.03 L97.75,349.94 L98.23,348.58 L98.71,345.85 L99.19,341.76   L99.67,340.40 L100.15,337.67 L100.63,333.58 L101.11,330.86 L101.59,329.49 L102.07,328.13 L102.55,322.68 L103.03,321.31   L103.51,319.95 L103.99,315.86 L104.47,311.77 L104.95,309.05 L105.43,306.32 L105.91,304.96 L106.39,299.50 L106.87,298.14   L107.35,296.78 L107.83,294.05 L108.31,289.96 L108.79,287.24 L109.27,284.51 L109.75,281.78 L110.23,277.69 L110.71,274.97   L111.19,269.51 L111.67,272.24 L112.15,268.15 L112.63,265.42 L113.11,259.97 L113.59,264.06 L114.07,254.52 L114.55,251.79   L115.03,247.70 L115.51,246.34 L115.99,243.61 L116.47,239.52 L116.96,238.16 L117.44,231.35 L117.92,232.71 L118.40,228.62   L118.88,225.89 L119.36,220.44 L119.84,217.71 L120.32,216.35 L120.80,213.62 L121.28,212.26 L121.76,209.54 L122.24,209.54   L122.72,204.08 L123.20,202.72 L123.68,198.63 L124.16,197.27 L124.64,195.90 L125.12,193.18 L125.60,190.45 L126.08,191.81   L126.56,187.72 L127.04,185.00 L127.52,179.55 L128.00,179.55 L128.48,179.55 L128.96,176.82 L129.44,172.73 L129.92,170.00   L130.40,168.64 L130.88,165.91 L131.36,165.91 L131.84,164.55 L132.32,164.55 L132.80,161.82 L133.28,161.82 L133.76,157.73   L134.24,159.10 L134.72,159.10 L135.20,156.37 L135.68,156.37 L136.16,155.01 L136.64,153.65 L137.12,155.01 L137.60,149.56   L138.08,150.92 L138.56,155.01 L139.04,153.65 L139.52,149.56 L140.00,148.19 L140.48,149.56 L140.96,150.92 L141.44,149.56   L141.93,150.92 L142.41,148.19 L142.89,148.19 L143.37,153.65 L143.85,149.56 L144.33,149.56 L144.81,150.92 L145.29,152.28   L145.77,149.56 L146.25,149.56 L146.73,153.65 L147.21,155.01 L147.69,155.01 L148.17,156.37 L148.65,155.01 L149.13,159.10   L149.61,160.46 L150.09,159.10 L150.57,161.82 L151.05,163.19 L151.53,164.55 L152.01,164.55 L152.49,164.55 L152.97,167.28   L153.45,170.00 L153.93,175.46 L154.41,172.73 L154.89,175.46 L155.37,176.82 L155.85,176.82 L156.33,179.55 L156.81,183.63   L157.29,186.36 L157.77,186.36 L158.25,190.45 L158.73,191.81 L159.21,194.54 L159.69,198.63 L160.17,201.36 L160.65,201.36   L161.13,204.08 L161.61,206.81 L162.09,209.54 L162.57,210.90 L163.05,214.99 L163.53,220.44 L164.01,220.44 L164.49,223.17   L164.97,224.53 L165.45,234.07 L165.93,231.35 L166.42,232.71 L166.90,236.80 L167.38,244.98 L167.86,242.25 L168.34,246.34   L168.82,251.79 L169.30,249.07 L169.78,257.25 L170.26,258.61 L170.74,261.34 L171.22,262.70 L171.70,269.51 L172.18,269.51   L172.66,273.60 L173.14,274.97 L173.62,279.06 L174.10,281.78 L174.58,285.87 L175.06,288.60 L175.54,288.60 L176.02,295.41   L176.50,299.50 L176.98,299.50 L177.46,299.50 L177.94,306.32 L178.42,306.32 L178.90,309.05 L179.38,314.50 L179.86,317.23   L180.34,318.59 L180.82,322.68 L181.30,324.04 L181.78,326.77 L182.26,332.22 L182.74,332.22 L183.22,336.31 L183.70,337.67   L184.18,339.04 L184.66,341.76 L185.14,344.49 L185.62,347.22 L186.10,351.30 L186.58,351.30 L187.06,355.39 L187.54,355.39   L188.02,359.48 L188.50,360.85 L188.98,360.85 L189.46,362.21 L189.94,369.03 L190.42,363.57 L190.90,370.39 L191.39,367.66   L191.87,371.75 L192.35,374.48 L192.83,374.48 L193.31,375.84 L193.79,378.57 L194.27,378.57 L194.75,384.02 L195.23,382.66   L195.71,384.02 L196.19,382.66 L196.67,384.02 L197.15,386.75 L197.63,389.47 L198.11,386.75 L198.59,386.75 L199.07,389.47   L199.55,386.75 L200.03,386.75 L200.51,392.20 L200.99,392.20 L201.47,390.84 L201.95,386.75 L202.43,392.20 L202.91,390.84   L203.39,389.47 L203.87,388.11 L204.35,390.84 L204.83,389.47 L205.31,389.47 L205.79,386.75 L206.27,386.75 L206.75,386.75   L207.23,386.75 L207.71,385.38 L208.19,384.02 L208.67,384.02 L209.15,382.66 L209.63,381.29 L210.11,379.93 L210.59,377.20   L211.07,377.20 L211.55,377.20 L212.03,374.48 L212.51,374.48 L212.99,373.12 L213.47,370.39 L213.95,370.39 L214.43,364.94   L214.91,363.57 L215.39,362.21 L215.87,362.21 L216.36,360.85 L216.84,358.12 L217.32,356.76 L217.80,351.30 L218.28,351.30   L218.76,348.58 L219.24,349.94 L219.72,343.13 L220.20,341.76 L220.68,336.31 L221.16,337.67 L221.64,333.58 L222.12,332.22   L222.60,328.13 L223.08,326.77 L223.56,322.68 L224.04,321.31 L224.52,319.95 L225.00,314.50 L225.48,314.50 L225.96,309.05   L226.44,304.96 L226.92,303.59 L227.40,299.50 L227.88,299.50 L228.36,295.41 L228.84,289.96 L229.32,288.60 L229.80,288.60   L230.28,280.42 L230.76,277.69 L231.24,276.33 L231.72,273.60 L232.20,269.51 L232.68,268.15 L233.16,266.79 L233.64,262.70   L234.12,258.61 L234.60,258.61 L235.08,254.52 L235.56,251.79 L236.04,247.70 L236.52,244.98 L237.00,239.52 L237.48,239.52   L237.96,235.44 L238.44,232.71 L238.92,227.26 L239.40,228.62 L239.88,224.53 L240.36,219.08 L240.85,214.99 L241.33,217.71   L241.81,212.26 L242.29,210.90 L242.77,208.17 L243.25,206.81 L243.73,202.72 L244.21,197.27 L244.69,197.27 L245.17,195.90   L245.65,193.18 L246.13,191.81 L246.61,189.09 L247.09,186.36 L247.57,185.00 L248.05,183.63 L248.53,179.55 L249.01,179.55   L249.49,176.82 L249.97,174.09 L250.45,171.37 L250.93,171.37 L251.41,171.37 L251.89,167.28 L252.37,165.91 L252.85,164.55   L253.33,163.19 L253.81,160.46 L254.29,159.10 L254.77,159.10 L255.25,159.10 L255.73,156.37 L256.21,159.10 L256.69,153.65   L257.17,155.01 L257.65,153.65 L258.13,153.65 L258.61,150.92 L259.09,152.28 L259.57,148.19 L260.05,150.92 L260.53,148.19   L261.01,149.56 L261.49,149.56 L261.97,148.19 L262.45,150.92 L262.93,148.19 L263.41,149.56 L263.89,150.92 L264.37,150.92   L264.85,155.01 L265.33,148.19 L265.82,150.92 L266.30,150.92 L266.78,152.28 L267.26,149.56 L267.74,153.65 L268.22,152.28   L268.70,156.37 L269.18,157.73 L269.66,159.10 L270.14,159.10 L270.62,160.46 L271.10,160.46 L271.58,161.82 L272.06,163.19   L272.54,163.19 L273.02,165.91 L273.50,165.91 L273.98,168.64 L274.46,171.37 L274.94,171.37 L275.42,174.09 L275.90,175.46   L276.38,179.55 L276.86,180.91 L277.34,180.91 L277.82,186.36 L278.30,189.09 L278.78,191.81 L279.26,193.18 L279.74,193.18   L280.22,199.99 L280.70,198.63 L281.18,201.36 L281.66,204.08 L282.14,204.08 L282.62,210.90 L283.10,210.90 L283.58,213.62   L284.06,219.08 L284.54,219.08 L285.02,223.17 L285.50,223.17 L285.98,225.89 L286.46,231.35 L286.94,232.71 L287.42,235.44   L287.90,239.52 L288.38,242.25 L288.86,243.61 L289.34,246.34 L289.82,251.79 L290.30,253.16 L290.79,255.88 L291.27,261.34   L291.75,259.97 L292.23,266.79 L292.71,268.15 L293.19,273.60 L293.67,274.97 L294.15,277.69 L294.63,279.06 L295.11,287.24   L295.59,288.60 L296.07,291.33 L296.55,294.05 L297.03,296.78 L297.51,296.78 L297.99,303.59 L298.47,304.96 L298.95,306.32   L299.43,311.77 L299.91,314.50 L300.39,317.23 L300.87,318.59 L301.35,324.04 L301.83,324.04 L302.31,325.40 L302.79,328.13   L303.27,330.86 L303.75,336.31 L304.23,333.58 L304.71,340.40 L305.19,343.13 L305.67,345.85 L306.15,349.94 L306.63,348.58   L307.11,348.58 L307.59,354.03 L308.07,356.76 L308.55,358.12 L309.03,359.48 L309.51,360.85 L309.99,362.21 L310.47,366.30   L310.95,367.66 L311.43,369.03 L311.91,371.75 L312.39,371.75 L312.87,374.48 L313.35,378.57 L313.83,378.57 L314.31,377.20   L314.79,379.93 L315.27,379.93 L315.76,382.66 L316.24,382.66 L316.72,384.02 L317.20,384.02 L317.68,385.38 L318.16,386.75   L318.64,388.11 L319.12,385.38 L319.60,386.75 L320.08,389.47 L320.56,389.47 L321.04,389.47 L321.52,392.20 L322.00,390.84   L322.48,389.47 L322.96,390.84 L323.44,390.84 L323.92,389.47 L324.40,390.84 L324.88,390.84 L325.36,390.84 L325.84,386.75   L326.32,388.11 L326.80,388.11 L327.28,385.38 L327.76,385.38 L328.24,385.38 L328.72,384.02 L329.20,384.02 L329.68,381.29   L330.16,386.75 L330.64,379.93 L331.12,381.29 L331.60,378.57 L332.08,382.66 L332.56,377.20 L333.04,373.12 L333.52,374.48   L334.00,369.03 L334.48,367.66 L334.96,367.66 L335.44,367.66 L335.92,363.57 L336.40,362.21 L336.88,359.48 L337.36,356.76   L337.84,356.76 L338.32,352.67 L338.80,351.30 L339.28,348.58 L339.76,347.22 L340.25,345.85 L340.73,341.76 L341.21,339.04   L341.69,337.67 L342.17,334.95 L342.65,333.58 L343.13,328.13 L343.61,325.40 L344.09,324.04 L344.57,324.04 L345.05,321.31   L345.53,317.23 L346.01,313.14 L346.49,310.41 L346.97,306.32 L347.45,304.96 L347.93,303.59 L348.41,298.14 L348.89,296.78   L349.37,291.33 L349.85,289.96 L350.33,287.24 L350.81,284.51 L351.29,280.42 L351.77,276.33 L352.25,273.60 L352.73,273.60   L353.21,268.15 L353.69,269.51 L354.17,258.61 L354.65,259.97 L355.13,257.25 L355.61,254.52 L356.09,249.07 L356.57,247.70   L357.05,243.61 L357.53,242.25 L358.01,239.52 L358.49,236.80 L358.97,232.71 L359.45,231.35 L359.93,229.98 L360.41,224.53   L360.89,221.80 L361.37,219.08 L361.85,219.08 L362.33,213.62 L362.81,213.62 L363.29,209.54 L363.77,208.17 L364.25,204.08   L364.73,202.72 L365.22,199.99 L365.70,195.90 L366.18,194.54 L366.66,194.54 L367.14,191.81 L367.62,187.72 L368.10,186.36   L368.58,182.27 L369.06,182.27 L369.54,179.55 L370.02,175.46 L370.50,174.09 L370.98,174.09 L371.46,171.37 L371.94,168.64   L372.42,167.28 L372.90,165.91 L373.38,163.19 L373.86,163.19 L374.34,163.19 L374.82,160.46 L375.30,159.10 L375.78,159.10   L376.26,159.10 L376.74,155.01 L377.22,156.37 L377.70,156.37 L378.18,153.65 L378.66,155.01 L379.14,150.92 L379.62,149.56   L380.10,150.92 L380.58,152.28 L381.06,152.28 L381.54,148.19 L382.02,150.92 L382.50,148.19 L382.98,150.92 L383.46,148.19   L383.94,149.56 L384.42,150.92 L384.90,149.56 L385.38,148.19 L385.86,150.92 L386.34,149.56 L386.82,150.92 L387.30,155.01   L387.78,150.92 L388.26,152.28 L388.74,155.01 L389.22,153.65 L389.70,156.37 L390.19,157.73 L390.67,159.10 L391.15,159.10   L391.63,160.46 L392.11,161.82 L392.59,163.19 L393.07,161.82 L393.55,164.55 L394.03,164.55 L394.51,172.73 L394.99,170.00   L395.47,172.73 L395.95,174.09 L396.43,176.82 L396.91,179.55 L397.39,179.55 L397.87,182.27 L398.35,183.63 L398.83,186.36   L399.31,189.09 L399.79,191.81 L400.27,193.18 L400.75,195.90 L401.23,198.63 L401.71,199.99 L402.19,202.72 L402.67,201.36   L403.15,208.17 L403.63,210.90 L404.11,212.26 L404.59,216.35 L405.07,217.71 L405.55,217.71 L406.03,227.26 L406.51,224.53   L406.99,228.62 L407.47,234.07 L407.95,236.80 L408.43,239.52 L408.91,239.52 L409.39,243.61 L409.87,246.34 L410.35,247.70   L410.83,253.16 L411.31,258.61 L411.79,258.61 L412.27,261.34 L412.75,264.06 L413.23,266.79 L413.71,270.88 L414.19,276.33   L414.68,276.33 L415.16,280.42 L415.64,280.42 L416.12,287.24 L416.60,287.24 L417.08,289.96 L417.56,292.69 L418.04,299.50   L418.52,300.87 L419.00,306.32 L419.48,306.32 L419.96,307.68 L420.44,311.77 L420.92,313.14 L421.40,319.95 L421.88,319.95   L422.36,321.31 L422.84,325.40 L423.32,326.77 L423.80,332.22 L424.28,333.58 L424.76,337.67 L425.24,337.67 L425.72,339.04   L426.20,337.67 L426.68,344.49 L427.16,348.58 L427.64,351.30 L428.12,351.30 L428.60,354.03 L429.08,358.12 L429.56,358.12   L430.04,358.12 L430.52,362.21 L431.00,364.94 L431.48,370.39 L431.96,369.03 L432.44,369.03 L432.92,369.03 L433.40,371.75   L433.88,375.84 L434.36,378.57 L434.84,377.20 L435.32,381.29 L435.80,381.29 L436.28,381.29 L436.76,382.66 L437.24,384.02   L437.72,382.66 L438.20,384.02 L438.68,385.38 L439.16,386.75 L439.65,386.75 L440.13,388.11 L440.61,386.75 L441.09,389.47   L441.57,389.47 L442.05,390.84 L442.53,389.47 L443.01,390.84 L443.49,390.84 L443.97,390.84 L444.45,392.20 L444.93,386.75   L445.41,389.47 L445.89,389.47 L446.37,389.47 L446.85,388.11 L447.33,388.11 L447.81,386.75 L448.29,385.38 L448.77,382.66   L449.25,384.02 L449.73,384.02 L450.21,385.38 L450.69,381.29 L451.17,381.29 L451.65,382.66 L452.13,377.20 L452.61,377.20   L453.09,375.84 L453.57,374.48 L454.05,373.12 L454.53,371.75 L455.01,370.39 L455.49,367.66 L455.97,369.03 L456.45,366.30   L456.93,363.57 L457.41,360.85 L457.89,364.94 L458.37,356.76 L458.85,356.76 L459.33,351.30 L459.81,351.30 L460.29,349.94   L460.77,344.49 L461.25,341.76 L461.73,339.04 L462.21,337.67 L462.69,334.95 L463.17,333.58 L463.65,330.86 L464.13,328.13   L464.62,325.40 L465.10,322.68 L465.58,318.59 L466.06,318.59 L466.54,315.86 L467.02,310.41 L467.50,307.68 L467.98,306.32   L468.46,304.96 L468.94,300.87 L469.42,299.50 L469.90,292.69 L470.38,292.69 L470.86,289.96 L471.34,284.51 L471.82,283.15   L472.30,279.06 L472.78,276.33 L473.26,273.60 L473.74,268.15 L474.22,268.15 L474.70,264.06 L475.18,261.34 L475.66,258.61   L476.14,255.88 L476.62,251.79 L477.10,249.07 L477.58,246.34 L478.06,243.61 L478.54,242.25 L479.02,238.16 L479.50,235.44   L479.98,232.71 L480.46,228.62 L480.94,225.89 L481.42,223.17 L481.90,217.71 L482.38,217.71 L482.86,213.62 L483.34,212.26   L483.82,212.26 L484.30,208.17 L484.78,205.45 L485.26,202.72 L485.74,198.63 L486.22,195.90 L486.70,195.90 L487.18,193.18   L487.66,190.45 L488.14,189.09 L488.62,185.00 L489.10,185.00 L489.59,179.55 L490.07,179.55 L490.55,178.18 L491.03,176.82   L491.51,175.46 L491.99,171.37 L492.47,167.28 L492.95,170.00 L493.43,165.91 L493.91,163.19 L494.39,163.19 L494.87,165.91   L495.35,161.82 L495.83,160.46 L496.31,160.46 L496.79,160.46 L497.27,157.73 L497.75,156.37 L498.23,153.65 L498.71,153.65   L499.19,153.65 L499.67,155.01 L500.15,152.28 L500.63,152.28 L501.11,149.56 L501.59,148.19 L502.07,150.92 L502.55,148.19   L503.03,150.92 L503.51,149.56 L503.99,150.92 L504.47,148.19 L504.95,148.19 L505.43,148.19 L505.91,149.56 L506.39,150.92   L506.87,150.92 L507.35,152.28 L507.83,152.28 L508.31,152.28 L508.79,150.92 L509.27,152.28 L509.75,155.01 L510.23,156.37   L510.71,157.73 L511.19,157.73 L511.67,160.46 L512.15,159.10 L512.63,159.10 L513.11,163.19 L513.59,163.19 L514.08,164.55   L514.56,165.91 L515.04,168.64 L515.52,167.28 L516.00,171.37 L516.48,171.37 L516.96,176.82 L517.44,175.46 L517.92,180.91   L518.40,180.91 L518.88,182.27 L519.36,185.00 L519.84,185.00 L520.32,194.54 L520.80,195.90 L521.28,191.81 L521.76,197.27   L522.24,199.99 L522.72,197.27 L523.20,202.72 L523.68,206.81 L524.16,210.90 L524.64,210.90 L525.12,214.99 L525.60,219.08   L526.08,220.44 L526.56,225.89 L527.04,224.53 L527.52,232.71 L528.00,232.71 L528.48,234.07 L528.96,236.80 L529.44,240.89   L529.92,243.61 L530.40,244.98 L530.88,247.70 L531.36,249.07 L531.84,255.88 L532.32,257.25 L532.80,258.61 L533.28,262.70   L533.76,266.79 L534.24,266.79 L534.72,272.24 L535.20,273.60 L535.68,276.33 L536.16,279.06 L536.64,284.51 L537.12,287.24   L537.60,288.60 L538.08,291.33 L538.56,296.78 L539.05,300.87 L539.53,302.23 L540.01,303.59 L540.49,307.68 L540.97,311.77   L541.45,313.14 L541.93,315.86 L542.41,319.95 L542.89,321.31 L543.37,324.04 L543.85,326.77 L544.33,328.13 L544.81,334.95   L545.29,334.95 L545.77,336.31 L546.25,337.67 L546.73,348.58 L547.21,343.13 L547.69,345.85 L548.17,349.94 L548.65,352.67   L549.13,354.03 L549.61,356.76 L550.09,359.48 L550.57,363.57 L551.05,362.21 L551.53,363.57 L552.01,367.66 L552.49,367.66   L552.97,367.66 L553.45,369.03 L553.93,371.75 L554.41,373.12 L554.89,377.20 L555.37,378.57 L555.85,379.93 L556.33,378.57   L556.81,382.66 L557.29,386.75 L557.77,382.66 L558.25,385.38 L558.73,384.02 L559.21,388.11 L559.69,384.02 L560.17,386.75   L560.65,388.11 L561.13,386.75 L561.61,388.11 L562.09,389.47 L562.57,389.47 L563.05,390.84 L563.53,392.20 L564.02,390.84   L564.50,390.84 L564.98,388.11 L565.46,392.20 L565.94,390.84 L566.42,392.20 L566.90,388.11 L567.38,389.47 L567.86,388.11   L568.34,384.02 L568.82,386.75 L569.30,386.75 L569.78,382.66 L570.26,382.66 L570.74,384.02 L571.22,384.02 L571.70,381.29   L572.18,379.93 L572.66,379.93 L573.14,377.20 L573.62,377.20 L574.10,377.20 L574.58,375.84 L575.06,371.75 L575.54,369.03   L576.02,369.03 L576.50,369.03 L576.98,367.66 L577.46,364.94 L577.94,362.21 L578.42,359.48 L578.90,358.12 L579.38,355.39   L579.86,352.67 L580.34,351.30 L580.82,348.58 L581.30,345.85 L581.78,347.22 L582.26,343.13 L582.74,340.40 L583.22,334.95   L583.70,339.04 L584.18,332.22 L584.66,329.49 L585.14,322.68 L585.62,326.77 L586.10,319.95 L586.58,318.59 L587.06,314.50   L587.54,313.14 L588.02,311.77 L588.50,307.68 L588.99,303.59 L589.47,302.23 L589.95,299.50 L590.43,295.41 L590.91,294.05   L591.39,288.60 L591.87,284.51 L592.35,284.51 L592.83,279.06 L593.31,276.33 L593.79,276.33 L594.27,273.60 L594.75,266.79   L595.23,268.15 L595.71,262.70 L596.19,262.70 L596.67,253.16 L597.15,255.88 L597.63,251.79 L598.11,247.70 L598.59,243.61   L599.07,242.25 L599.55,239.52 L600.03,236.80 L600.51,234.07 L600.99,231.35 L601.47,228.62 L601.95,223.17 L602.43,219.08   L602.91,217.71 L603.39,220.44 L603.87,214.99 L604.35,212.26 L604.83,209.54 L605.31,206.81 L605.79,202.72 L606.27,201.36   L606.75,198.63 L607.23,195.90 L607.71,193.18 L608.19,193.18 L608.67,190.45 L609.15,187.72 L609.63,180.91 L610.11,180.91   L610.59,179.55 L611.07,179.55 L611.55,174.09 L612.03,176.82 L612.51,172.73 L612.99,171.37 L613.48,168.64 L613.96,167.28   L614.44,165.91 L614.92,165.91 L615.40,163.19 L615.88,161.82 L616.36,161.82 L616.84,159.10 L617.32,156.37 L617.80,157.73   L618.28,156.37 L618.76,155.01 L619.24,153.65 L619.72,153.65 L620.20,150.92 L620.68,157.73 L621.16,150.92 L621.64,150.92   L622.12,148.19 L622.60,152.28 L623.08,150.92 L623.56,149.56 L624.04,148.19 L624.52,149.56 L625.00,150.92 L625.48,150.92   L625.96,149.56 L626.44,148.19 L626.92,149.56 L627.40,150.92 L627.88,150.92 L628.36,153.65 L628.84,152.28 L629.32,153.65   L629.80,155.01 L630.28,155.01 L630.76,155.01 L631.24,156.37 L631.72,157.73 L632.20,159.10 L632.68,159.10 L633.16,161.82   L633.64,160.46 L634.12,163.19 L634.60,164.55 L635.08,165.91 L635.56,170.00 L636.04,168.64 L636.52,171.37 L637.00,172.73   L637.48,174.09 L637.96,178.18 L638.45,179.55 L638.93,179.55 L639.41,182.27 L639.89,183.63 L640.37,187.72 L640.85,189.09   L641.33,190.45 L641.81,194.54 L642.29,195.90 L642.77,198.63 L643.25,202.72 L643.73,205.45 L644.21,205.45 L644.69,209.54   L645.17,209.54 L645.65,212.26 L646.13,216.35 L646.61,217.71 L647.09,223.17 L647.57,225.89 L648.05,225.89 L648.53,225.89   L649.01,232.71 L649.49,239.52 L649.97,240.89 L650.45,239.52 L650.93,244.98 L651.41,244.98 L651.89,251.79 L652.37,254.52   L652.85,257.25 L653.33,258.61 L653.81,258.61 L654.29,261.34 L654.77,266.79 L655.25,270.88 L655.73,273.60 L656.21,276.33   L656.69,279.06 L657.17,280.42 L657.65,285.87 L658.13,291.33 L658.61,291.33 L659.09,294.05 L659.57,300.87 L660.05,303.59   L660.53,304.96 L661.01,304.96 L661.49,311.77 L661.97,313.14 L662.45,314.50 L662.93,319.95 L663.42,322.68 L663.90,322.68   L664.38,324.04 L664.86,329.49 L665.34,332.22 L665.82,334.95 L666.30,336.31 L666.78,337.67 L667.26,340.40 L667.74,343.13   L668.22,348.58 L668.70,347.22 L669.18,349.94 L669.66,352.67 L670.14,355.39 L670.62,356.76 L671.10,358.12 L671.58,363.57   L672.06,363.57 L672.54,367.66 L673.02,367.66 L673.50,369.03 L673.98,370.39 L674.46,374.48 L674.94,374.48 L675.42,374.48   L675.90,375.84 L676.38,377.20 L676.86,379.93 L677.34,381.29 L677.82,379.93 L678.30,382.66 L678.78,385.38 L679.26,384.02   L679.74,386.75 L680.22,385.38 L680.70,386.75 L681.18,386.75 L681.66,389.47 L682.14,386.75 L682.62,389.47 L683.10,390.84   L683.58,389.47 L684.06,388.11 L684.54,389.47 L685.02,393.56 L685.50,388.11 L685.98,389.47 L686.46,390.84 L686.94,389.47   L687.42,389.47 L687.91,389.47 L688.39,389.47 L688.87,386.75 L689.35,388.11 L689.83,386.75 L690.31,386.75 L690.79,385.38   L691.27,384.02 L691.75,384.02 L692.23,382.66 L692.71,381.29 L693.19,381.29 L693.67,378.57 L694.15,378.57 L694.63,375.84   L695.11,375.84 L695.59,374.48 L696.07,371.75 L696.55,370.39 L697.03,369.03 L697.51,364.94 L697.99,364.94 L698.47,359.48   L698.95,358.12 L699.43,356.76 L699.91,358.12 L700.39,354.03 L700.87,354.03 L701.35,351.30 L701.83,349.94 L702.31,343.13   L702.79,341.76 L703.27,341.76 L703.75,339.04 L704.23,334.95 L704.71,333.58 L705.19,330.86 L705.67,329.49 L706.15,322.68   L706.63,322.68 L707.11,318.59 L707.59,318.59 L708.07,314.50 L708.55,310.41 L709.03,307.68 L709.51,304.96 L709.99,303.59   L710.47,299.50 L710.95,295.41 L711.43,295.41 L711.91,289.96 L712.39,288.60 L712.88,283.15 L713.36,283.15 L713.84,279.06   L714.32,276.33 L714.80,272.24 L715.28,269.51 L715.76,266.79 L716.24,262.70 L716.72,262.70 L717.20,258.61 L717.68,255.88   L718.16,249.07 L718.64,249.07 L719.12,246.34 L719.60,242.25 L720.08,242.25 L720.56,236.80 L721.04,234.07 L721.52,231.35   L722.00,229.98 L722.48,224.53 L722.96,221.80 L723.44,220.44 L723.92,220.44 L724.40,216.35 L724.88,210.90 L725.36,209.54   L725.84,208.17 L726.32,204.08 L726.80,202.72 L727.28,199.99 L727.76,198.63 L728.24,194.54 L728.72,194.54 L729.20,190.45   L729.68,189.09 L730.16,186.36 L730.64,187.72 L731.12,180.91 L731.60,179.55 L732.08,179.55 L732.56,175.46 L733.04,176.82   L733.52,171.37 L734.00,170.00 L734.48,168.64 L734.96,167.28 L735.44,167.28 L735.92,163.19 L736.40,161.82 L736.88,161.82   L737.36,157.73 L737.85,159.10 L738.33,157.73 L738.81,155.01 L739.29,157.73 L739.77,153.65 L740.25,153.65 L740.73,152.28   L741.21,150.92 L741.69,153.65 L742.17,149.56 L742.65,149.56 L743.13,150.92 L743.61,149.56 L744.09,150.92 L744.57,150.92   L745.05,152.28 L745.53,150.92 L746.01,148.19 L746.49,150.92 L746.97,150.92 L747.45,149.56 L747.93,146.83 L748.41,152.28   L748.89,155.01 L749.37,152.28 L749.85,149.56 L750.33,157.73 L750.81,153.65 L751.29,155.01 L751.77,156.37 L752.25,157.73   L752.73,159.10 L753.21,159.10 L753.69,160.46 L754.17,163.19 L754.65,161.82 L755.13,163.19 L755.61,164.55 L756.09,167.28   L756.57,170.00 L757.05,170.00 L757.53,171.37 L758.01,171.37 L758.49,175.46 L758.97,178.18 L759.45,179.55 L759.93,178.18   L760.41,182.27 L760.89,186.36 L761.37,185.00 L761.85,190.45 L762.33,190.45 L762.82,195.90 L763.30,197.27 L763.78,198.63   L764.26,202.72 L764.74,205.45 L765.22,209.54 L765.70,212.26 L766.18,214.99 L766.66,213.62 L767.14,219.08 L767.62,220.44   L768.10,223.17 L768.58,224.53 L769.06,227.26 L769.54,229.98 L770.02,234.07 L770.50,238.16 L770.98,240.89 L771.46,243.61   L771.94,246.34 L772.42,249.07 L772.90,251.79 L773.38,257.25 L773.86,258.61 L774.34,254.52  "
           id="path38" />
      </g>
    </g>
    <g
       fill="none"
       color="white"
       stroke="rgb(148,   0, 211)"
       stroke-width="2.00"
       stroke-linecap="butt"
       stroke-linejoin="miter"
       id="g40" />
    <g
       fill="none"
       color="black"
       stroke="currentColor"
       stroke-width="2.00"
       stroke-linecap="butt"
       stroke-linejoin="miter"
       id="g41" />
    <g
       fill="none"
       color="black"
       stroke="black"
       stroke-width="1.00"
       stroke-linecap="butt"
       stroke-linejoin="miter"
       id="g42" />
    <g
       fill="none"
       color="black"
       stroke="currentColor"
       stroke-width="1.00"
       stroke-linecap="butt"
       stroke-linejoin="miter"
       id="g43">
      <path
         stroke="black"
         d="M54.53,18.01 L54.53,444.00 L774.82,444.00 L774.82,18.01 L54.53,18.01 Z  "
         id="path42" />
    </g>
    <g
       fill="none"
       color="black"
       stroke="currentColor"
       stroke-width="1.00"
       stroke-linecap="butt"
       stroke-linejoin="miter"
       id="g44" />
  </g>
  <metadata
     id="metadata44">
    <rdf:RDF>
      <cc:Work
         rdf:about="">
        <dc:title>Gnuplot</dc:title>
      </cc:Work>
    </rdf:RDF>
  </metadata>
</svg>
