<?xml version="1.0" encoding="UTF-8" standalone="no"?>
<svg
   width="800"
   height="480"
   viewBox="0 0 800 480"
   version="1.1"
   id="svg44"
   sodipodi:docname="gplot_9db.svg"
   inkscape:version="1.4.2 (ebf0e940d0, 2025-05-08)"
   xmlns:inkscape="http://www.inkscape.org/namespaces/inkscape"
   xmlns:sodipodi="http://sodipodi.sourceforge.net/DTD/sodipodi-0.dtd"
   xmlns:xlink="http://www.w3.org/1999/xlink"
   xmlns="http://www.w3.org/2000/svg"
   xmlns:svg="http://www.w3.org/2000/svg"
   xmlns:rdf="http://www.w3.org/1999/02/22-rdf-syntax-ns#"
   xmlns:cc="http://creativecommons.org/ns#"
   xmlns:dc="http://purl.org/dc/elements/1.1/">
  <defs
     id="defs44" />
  <sodipodi:namedview
     id="namedview44"
     pagecolor="#ffffff"
     bordercolor="#cccccc"
     borderopacity="1"
     inkscape:showpageshadow="0"
     inkscape:pageopacity="1"
     inkscape:pagecheckerboard="0"
     inkscape:deskcolor="#d1d1d1"
     inkscape:zoom="0.98289024"
     inkscape:cx="452.23768"
     inkscape:cy="238.07338"
     inkscape:window-width="1728"
     inkscape:window-height="1088"
     inkscape:window-x="0"
     inkscape:window-y="0"
     inkscape:window-maximized="1"
     inkscape:current-layer="svg44" />
  <title
     id="title1">Gnuplot</title>
  <desc
     id="desc1">Produced by GNUPLOT 6.0 patchlevel 3 </desc>
  <rect
     style="fill:#ffffff;stroke-width:3.77953;stroke-linecap:round;stroke-linejoin:bevel;paint-order:stroke markers fill"
     id="rect44"
     width="800"
     height="480"
     x="0"
     y="0" />
  <g
     id="gnuplot_canvas">
    <rect
       x="0"
       y="0"
       width="800"
       height="480"
       fill="none"
       id="rect1" />
    <defs
       id="defs2">
      <circle
         id="gpDot"
         r="0.5"
         stroke-width="0.5"
         stroke="currentColor" />
      <path
         id="gpPt0"
         stroke-width="0.222"
         stroke="currentColor"
         d="M-1,0 h2 M0,-1 v2" />
      <path
         id="gpPt1"
         stroke-width="0.222"
         stroke="currentColor"
         d="M-1,-1 L1,1 M1,-1 L-1,1" />
      <path
         id="gpPt2"
         stroke-width="0.222"
         stroke="currentColor"
         d="M-1,0 L1,0 M0,-1 L0,1 M-1,-1 L1,1 M-1,1 L1,-1" />
      <rect
         id="gpPt3"
         stroke-width="0.222"
         stroke="currentColor"
         x="-1"
         y="-1"
         width="2"
         height="2" />
      <rect
         id="gpPt4"
         stroke-width="0.222"
         stroke="currentColor"
         fill="currentColor"
         x="-1"
         y="-1"
         width="2"
         height="2" />
      <circle
         id="gpPt5"
         stroke-width="0.222"
         stroke="currentColor"
         cx="0"
         cy="0"
         r="1" />
      <use
         xlink:href="#gpPt5"
         id="gpPt6"
         fill="currentColor"
         stroke="none" />
      <path
         id="gpPt7"
         stroke-width="0.222"
         stroke="currentColor"
         d="M0,-1.33 L-1.33,0.67 L1.33,0.67 z" />
      <use
         xlink:href="#gpPt7"
         id="gpPt8"
         fill="currentColor"
         stroke="none" />
      <use
         xlink:href="#gpPt7"
         id="gpPt9"
         stroke="currentColor"
         transform="rotate(180)" />
      <use
         xlink:href="#gpPt9"
         id="gpPt10"
         fill="currentColor"
         stroke="none" />
      <use
         xlink:href="#gpPt3"
         id="gpPt11"
         stroke="currentColor"
         transform="rotate(45)" />
      <use
         xlink:href="#gpPt11"
         id="gpPt12"
         fill="currentColor"
         stroke="none" />
      <path
         id="gpPt13"
         stroke-width="0.222"
         stroke="currentColor"
         d="M0,1.330 L1.265,0.411 L0.782,-1.067 L-0.782,-1.076 L-1.265,0.411 z" />
      <use
         xlink:href="#gpPt13"
         id="gpPt14"
         fill="currentColor"
         stroke="none" />
      <filter
         id="textbox"
         filterUnits="objectBoundingBox"
         x="0"
         y="0"
         height="1"
         width="1">
        <feFlood
           flood-color="white"
           flood-opacity="1"
           result="bgnd"
           id="feFlood1" />
        <feComposite
           in="SourceGraphic"
           in2="bgnd"
           operator="atop"
           id="feComposite1" />
      </filter>
      <filter
         id="greybox"
         filterUnits="objectBoundingBox"
         x="0"
         y="0"
         height="1"
         width="1">
        <feFlood
           flood-color="lightgrey"
           flood-opacity="1"
           result="grey"
           id="feFlood2" />
        <feComposite
           in="SourceGraphic"
           in2="grey"
           operator="atop"
           id="feComposite2" />
      </filter>
    </defs>
    <g
       fill="none"
       color="white"
       stroke="black"
       stroke-width="1.00"
       stroke-linecap="butt"
       stroke-linejoin="miter"
       id="g2" />
    <g
       fill="none"
       color="black"
       stroke="currentColor"
       stroke-width="1.00"
       stroke-linecap="butt"
       stroke-linejoin="miter"
       id="g4">
      <path
         stroke="black"
         d="M54.53,444.00 L63.53,444.00 M774.82,444.00 L765.82,444.00  "
         id="path2" />
      <g
         transform="translate(46.14,447.90)"
         stroke="none"
         fill="black"
         font-family="Arial"
         font-size="12.00"
         text-anchor="end"
         id="g3">
        <text
           id="text2"><tspan
             font-family="Arial"
             id="tspan2">-1</tspan></text>
      </g>
    </g>
    <g
       fill="none"
       color="black"
       stroke="currentColor"
       stroke-width="1.00"
       stroke-linecap="butt"
       stroke-linejoin="miter"
       id="g6">
      <path
         stroke="black"
         d="M54.53,358.80 L63.53,358.80 M774.82,358.80 L765.82,358.80  "
         id="path4" />
      <g
         transform="translate(46.14,362.70)"
         stroke="none"
         fill="black"
         font-family="Arial"
         font-size="12.00"
         text-anchor="end"
         id="g5">
        <text
           id="text4"><tspan
             font-family="Arial"
             id="tspan4">-0.5</tspan></text>
      </g>
    </g>
    <g
       fill="none"
       color="black"
       stroke="currentColor"
       stroke-width="1.00"
       stroke-linecap="butt"
       stroke-linejoin="miter"
       id="g8">
      <path
         stroke="black"
         d="M54.53,273.60 L63.53,273.60 M774.82,273.60 L765.82,273.60  "
         id="path6" />
      <g
         transform="translate(46.14,277.50)"
         stroke="none"
         fill="black"
         font-family="Arial"
         font-size="12.00"
         text-anchor="end"
         id="g7">
        <text
           id="text6"><tspan
             font-family="Arial"
             id="tspan6"> 0</tspan></text>
      </g>
    </g>
    <g
       fill="none"
       color="black"
       stroke="currentColor"
       stroke-width="1.00"
       stroke-linecap="butt"
       stroke-linejoin="miter"
       id="g10">
      <path
         stroke="black"
         d="M54.53,188.41 L63.53,188.41 M774.82,188.41 L765.82,188.41  "
         id="path8" />
      <g
         transform="translate(46.14,192.31)"
         stroke="none"
         fill="black"
         font-family="Arial"
         font-size="12.00"
         text-anchor="end"
         id="g9">
        <text
           id="text8"><tspan
             font-family="Arial"
             id="tspan8"> 0.5</tspan></text>
      </g>
    </g>
    <g
       fill="none"
       color="black"
       stroke="currentColor"
       stroke-width="1.00"
       stroke-linecap="butt"
       stroke-linejoin="miter"
       id="g12">
      <path
         stroke="black"
         d="M54.53,103.21 L63.53,103.21 M774.82,103.21 L765.82,103.21  "
         id="path10" />
      <g
         transform="translate(46.14,107.11)"
         stroke="none"
         fill="black"
         font-family="Arial"
         font-size="12.00"
         text-anchor="end"
         id="g11">
        <text
           id="text10"><tspan
             font-family="Arial"
             id="tspan10"> 1</tspan></text>
      </g>
    </g>
    <g
       fill="none"
       color="black"
       stroke="currentColor"
       stroke-width="1.00"
       stroke-linecap="butt"
       stroke-linejoin="miter"
       id="g14">
      <path
         stroke="black"
         d="M54.53,18.01 L63.53,18.01 M774.82,18.01 L765.82,18.01  "
         id="path12" />
      <g
         transform="translate(46.14,21.91)"
         stroke="none"
         fill="black"
         font-family="Arial"
         font-size="12.00"
         text-anchor="end"
         id="g13">
        <text
           id="text12"><tspan
             font-family="Arial"
             id="tspan12"> 1.5</tspan></text>
      </g>
    </g>
    <g
       fill="none"
       color="black"
       stroke="currentColor"
       stroke-width="1.00"
       stroke-linecap="butt"
       stroke-linejoin="miter"
       id="g16">
      <path
         stroke="black"
         d="M54.53,444.00 L54.53,435.00 M54.53,18.01 L54.53,27.01  "
         id="path14" />
      <g
         transform="translate(54.53,465.90)"
         stroke="none"
         fill="black"
         font-family="Arial"
         font-size="12.00"
         text-anchor="middle"
         id="g15">
        <text
           id="text14"><tspan
             font-family="Arial"
             id="tspan14"> 0</tspan></text>
      </g>
    </g>
    <g
       fill="none"
       color="black"
       stroke="currentColor"
       stroke-width="1.00"
       stroke-linecap="butt"
       stroke-linejoin="miter"
       id="g18">
      <path
         stroke="black"
         d="M174.58,444.00 L174.58,435.00 M174.58,18.01 L174.58,27.01  "
         id="path16" />
      <g
         transform="translate(174.58,465.90)"
         stroke="none"
         fill="black"
         font-family="Arial"
         font-size="12.00"
         text-anchor="middle"
         id="g17">
        <text
           id="text16"><tspan
             font-family="Arial"
             id="tspan16"> 0.01</tspan></text>
      </g>
    </g>
    <g
       fill="none"
       color="black"
       stroke="currentColor"
       stroke-width="1.00"
       stroke-linecap="butt"
       stroke-linejoin="miter"
       id="g20">
      <path
         stroke="black"
         d="M294.63,444.00 L294.63,435.00 M294.63,18.01 L294.63,27.01  "
         id="path18" />
      <g
         transform="translate(294.63,465.90)"
         stroke="none"
         fill="black"
         font-family="Arial"
         font-size="12.00"
         text-anchor="middle"
         id="g19">
        <text
           id="text18"><tspan
             font-family="Arial"
             id="tspan18"> 0.02</tspan></text>
      </g>
    </g>
    <g
       fill="none"
       color="black"
       stroke="currentColor"
       stroke-width="1.00"
       stroke-linecap="butt"
       stroke-linejoin="miter"
       id="g22">
      <path
         stroke="black"
         d="M414.68,444.00 L414.68,435.00 M414.68,18.01 L414.68,27.01  "
         id="path20" />
      <g
         transform="translate(414.68,465.90)"
         stroke="none"
         fill="black"
         font-family="Arial"
         font-size="12.00"
         text-anchor="middle"
         id="g21">
        <text
           id="text20"><tspan
             font-family="Arial"
             id="tspan20"> 0.03</tspan></text>
      </g>
    </g>
    <g
       fill="none"
       color="black"
       stroke="currentColor"
       stroke-width="1.00"
       stroke-linecap="butt"
       stroke-linejoin="miter"
       id="g24">
      <path
         stroke="black"
         d="M534.72,444.00 L534.72,435.00 M534.72,18.01 L534.72,27.01  "
         id="path22" />
      <g
         transform="translate(534.72,465.90)"
         stroke="none"
         fill="black"
         font-family="Arial"
         font-size="12.00"
         text-anchor="middle"
         id="g23">
        <text
           id="text22"><tspan
             font-family="Arial"
             id="tspan22"> 0.04</tspan></text>
      </g>
    </g>
    <g
       fill="none"
       color="black"
       stroke="currentColor"
       stroke-width="1.00"
       stroke-linecap="butt"
       stroke-linejoin="miter"
       id="g26">
      <path
         stroke="black"
         d="M654.77,444.00 L654.77,435.00 M654.77,18.01 L654.77,27.01  "
         id="path24" />
      <g
         transform="translate(654.77,465.90)"
         stroke="none"
         fill="black"
         font-family="Arial"
         font-size="12.00"
         text-anchor="middle"
         id="g25">
        <text
           id="text24"><tspan
             font-family="Arial"
             id="tspan24"> 0.05</tspan></text>
      </g>
    </g>
    <g
       fill="none"
       color="black"
       stroke="currentColor"
       stroke-width="1.00"
       stroke-linecap="butt"
       stroke-linejoin="miter"
       id="g28">
      <path
         stroke="black"
         d="M774.82,444.00 L774.82,435.00 M774.82,18.01 L774.82,27.01  "
         id="path26" />
      <g
         transform="translate(774.82,465.90)"
         stroke="none"
         fill="black"
         font-family="Arial"
         font-size="12.00"
         text-anchor="middle"
         id="g27">
        <text
           id="text26"><tspan
             font-family="Arial"
             id="tspan26"> 0.06</tspan></text>
      </g>
    </g>
    <g
       fill="none"
       color="black"
       stroke="currentColor"
       stroke-width="1.00"
       stroke-linecap="butt"
       stroke-linejoin="miter"
       id="g29" />
    <g
       fill="none"
       color="black"
       stroke="currentColor"
       stroke-width="1.00"
       stroke-linecap="butt"
       stroke-linejoin="miter"
       id="g30">
      <path
         stroke="black"
         d="M54.53,18.01 L54.53,444.00 L774.82,444.00 L774.82,18.01 L54.53,18.01 Z  "
         id="path29" />
    </g>
    <g
       fill="none"
       color="black"
       stroke="currentColor"
       stroke-width="1.00"
       stroke-linecap="butt"
       stroke-linejoin="miter"
       id="g31" />
    <g
       id="gnuplot_plot_1">
      <title
         id="title31">Fitted ideal clipped sin()</title>
      <g
         fill="none"
         color="white"
         stroke="black"
         stroke-width="10.00"
         stroke-linecap="butt"
         stroke-linejoin="miter"
         id="g32" />
      <g
         fill="none"
         color="black"
         stroke="currentColor"
         stroke-width="10.00"
         stroke-linecap="butt"
         stroke-linejoin="miter"
         id="g34">
        <g
           transform="translate(707.09,39.91)"
           stroke="none"
           fill="black"
           font-family="Arial"
           font-size="12.00"
           text-anchor="end"
           id="g33">
          <text
             id="text32"><tspan
               font-family="Arial"
               id="tspan32">Fitted ideal clipped sin()</tspan></text>
        </g>
      </g>
      <g
         fill="none"
         color="black"
         stroke="currentColor"
         stroke-width="10.00"
         stroke-linecap="butt"
         stroke-linejoin="miter"
         id="g35">
        <path
           stroke="rgb( 86, 180, 233)"
           d="M715.48,36.01 L758.04,36.01 M54.53,297.66 L55.25,303.95 L55.97,310.18 L56.69,316.35 L57.41,322.47 L58.13,328.50   L58.85,334.46 L59.57,340.32 L60.29,346.08 L61.01,351.74 L61.74,357.28 L62.46,362.70 L63.18,367.99 L63.90,373.14   L64.62,378.15 L65.34,383.00 L66.06,387.69 L66.78,392.22 L67.50,396.57 L68.22,400.75 L68.94,404.75 L69.66,408.55   L70.38,412.16 L71.10,415.57 L71.82,418.77 L72.54,421.76 L73.26,424.54 L73.98,427.11 L74.70,429.45 L75.43,431.56   L76.15,433.45 L76.87,435.11 L77.59,436.54 L78.31,437.73 L79.03,438.61 L79.75,438.61 L80.47,438.61 L81.19,438.61   L81.91,438.61 L82.63,438.61 L83.35,438.61 L84.07,438.61 L84.79,437.75 L85.51,436.56 L86.23,435.14 L86.95,433.49   L87.67,431.60 L88.39,429.49 L89.12,427.15 L89.84,424.59 L90.56,421.81 L91.28,418.82 L92.00,415.62 L92.72,412.22   L93.44,408.61 L94.16,404.81 L94.88,400.82 L95.60,396.65 L96.32,392.30 L97.04,387.77 L97.76,383.08 L98.48,378.23   L99.20,373.23 L99.92,368.08 L100.64,362.80 L101.36,357.38 L102.09,351.84 L102.81,346.18 L103.53,340.42 L104.25,334.56   L104.97,328.61 L105.69,322.57 L106.41,316.46 L107.13,310.29 L107.85,304.05 L108.57,297.77 L109.29,291.46 L110.01,285.11   L110.73,278.73 L111.45,272.35 L112.17,265.96 L112.89,259.58 L113.61,253.21 L114.33,246.87 L115.05,240.56 L115.78,234.28   L116.50,228.06 L117.22,221.90 L117.94,215.81 L118.66,209.79 L119.38,203.85 L120.10,198.01 L120.82,192.27 L121.54,186.64   L122.26,181.12 L122.98,175.73 L123.70,170.47 L124.42,165.36 L125.14,160.38 L125.86,155.57 L126.58,150.91 L127.30,146.42   L128.02,142.10 L128.74,137.97 L129.47,134.01 L130.19,130.25 L130.91,126.69 L131.63,123.33 L132.35,120.17 L133.07,117.22   L133.79,114.49 L134.51,111.98 L135.23,109.69 L135.95,107.62 L136.67,105.78 L137.39,104.17 L138.11,102.80 L138.83,101.66   L139.55,101.02 L140.27,101.02 L140.99,101.02 L141.71,101.02 L142.43,101.02 L143.16,101.02 L143.88,101.02 L144.60,101.11   L145.32,102.12 L146.04,103.36 L146.76,104.83 L147.48,106.54 L148.20,108.48 L148.92,110.64 L149.64,113.03 L150.36,115.64   L151.08,118.46 L151.80,121.50 L152.52,124.75 L153.24,128.20 L153.96,131.84 L154.68,135.69 L155.40,139.72 L156.12,143.93   L156.85,148.32 L157.57,152.89 L158.29,157.61 L159.01,162.50 L159.73,167.53 L160.45,172.71 L161.17,178.03 L161.89,183.47   L162.61,189.04 L163.33,194.72 L164.05,200.50 L164.77,206.39 L165.49,212.36 L166.21,218.41 L166.93,224.54 L167.65,230.73   L168.37,236.97 L169.09,243.26 L169.81,249.59 L170.54,255.94 L171.26,262.32 L171.98,268.70 L172.70,275.09 L173.42,281.47   L174.14,287.83 L174.86,294.17 L175.58,300.47 L176.30,306.74 L177.02,312.94 L177.74,319.09 L178.46,325.17 L179.18,331.17   L179.90,337.09 L180.62,342.91 L181.34,348.62 L182.06,354.23 L182.78,359.72 L183.50,365.08 L184.23,370.31 L184.95,375.39   L185.67,380.33 L186.39,385.11 L187.11,389.73 L187.83,394.19 L188.55,398.46 L189.27,402.56 L189.99,406.47 L190.71,410.18   L191.43,413.70 L192.15,417.02 L192.87,420.13 L193.59,423.03 L194.31,425.71 L195.03,428.18 L195.75,430.42 L196.47,432.44   L197.20,434.22 L197.92,435.78 L198.64,437.10 L199.36,438.19 L200.08,438.61 L200.80,438.61 L201.52,438.61 L202.24,438.61   L202.96,438.61 L203.68,438.61 L204.40,438.61 L205.12,438.31 L205.84,437.25 L206.56,435.96 L207.28,434.43 L208.00,432.67   L208.72,430.68 L209.44,428.47 L210.16,426.03 L210.89,423.38 L211.61,420.50 L212.33,417.42 L213.05,414.13 L213.77,410.63   L214.49,406.94 L215.21,403.05 L215.93,398.98 L216.65,394.73 L217.37,390.30 L218.09,385.70 L218.81,380.93 L219.53,376.02   L220.25,370.95 L220.97,365.74 L221.69,360.39 L222.41,354.92 L223.13,349.33 L223.85,343.62 L224.58,337.82 L225.30,331.91   L226.02,325.92 L226.74,319.85 L227.46,313.71 L228.18,307.51 L228.90,301.26 L229.62,294.96 L230.34,288.62 L231.06,282.26   L231.78,275.88 L232.50,269.50 L233.22,263.11 L233.94,256.73 L234.66,250.37 L235.38,244.04 L236.10,237.75 L236.82,231.50   L237.54,225.30 L238.27,219.17 L238.99,213.11 L239.71,207.13 L240.43,201.23 L241.15,195.43 L241.87,189.74 L242.59,184.16   L243.31,178.70 L244.03,173.37 L244.75,168.17 L245.47,163.12 L246.19,158.21 L246.91,153.47 L247.63,148.88 L248.35,144.47   L249.07,140.23 L249.79,136.18 L250.51,132.31 L251.23,128.64 L251.96,125.16 L252.68,121.89 L253.40,118.83 L254.12,115.98   L254.84,113.34 L255.56,110.93 L256.28,108.74 L257.00,106.77 L257.72,105.03 L258.44,103.53 L259.16,102.26 L259.88,101.23   L260.60,101.02 L261.32,101.02 L262.04,101.02 L262.76,101.02 L263.48,101.02 L264.20,101.02 L264.92,101.02 L265.65,101.53   L266.37,102.64 L267.09,103.99 L267.81,105.57 L268.53,107.38 L269.25,109.42 L269.97,111.68 L270.69,114.17 L271.41,116.87   L272.13,119.79 L272.85,122.92 L273.57,126.26 L274.29,129.80 L275.01,133.54 L275.73,137.46 L276.45,141.58 L277.17,145.87   L277.89,150.34 L278.61,154.98 L279.34,159.78 L280.06,164.73 L280.78,169.83 L281.50,175.07 L282.22,180.44 L282.94,185.94   L283.66,191.56 L284.38,197.29 L285.10,203.12 L285.82,209.04 L286.54,215.05 L287.26,221.14 L287.98,227.29 L288.70,233.51   L289.42,239.77 L290.14,246.08 L290.86,252.42 L291.58,258.79 L292.31,265.17 L293.03,271.56 L293.75,277.94 L294.47,284.31   L295.19,290.67 L295.91,296.99 L296.63,303.28 L297.35,309.52 L298.07,315.70 L298.79,321.82 L299.51,327.86 L300.23,333.82   L300.95,339.70 L301.67,345.47 L302.39,351.14 L303.11,356.70 L303.83,362.13 L304.55,367.43 L305.27,372.60 L306.00,377.62   L306.72,382.49 L307.44,387.20 L308.16,391.74 L308.88,396.12 L309.60,400.31 L310.32,404.33 L311.04,408.15 L311.76,411.78   L312.48,415.21 L313.20,418.44 L313.92,421.45 L314.64,424.26 L315.36,426.84 L316.08,429.21 L316.80,431.35 L317.52,433.26   L318.24,434.95 L318.96,436.40 L319.69,437.62 L320.41,438.60 L321.13,438.61 L321.85,438.61 L322.57,438.61 L323.29,438.61   L324.01,438.61 L324.73,438.61 L325.45,438.61 L326.17,437.87 L326.89,436.70 L327.61,435.30 L328.33,433.67 L329.05,431.81   L329.77,429.72 L330.49,427.41 L331.21,424.87 L331.93,422.12 L332.65,419.15 L333.38,415.97 L334.10,412.59 L334.82,409.01   L335.54,405.23 L336.26,401.26 L336.98,397.10 L337.70,392.77 L338.42,388.26 L339.14,383.59 L339.86,378.76 L340.58,373.77   L341.30,368.64 L342.02,363.37 L342.74,357.96 L343.46,352.44 L344.18,346.79 L344.90,341.04 L345.62,335.19 L346.34,329.25   L347.07,323.22 L347.79,317.12 L348.51,310.95 L349.23,304.72 L349.95,298.45 L350.67,292.13 L351.39,285.78 L352.11,279.41   L352.83,273.03 L353.55,266.64 L354.27,260.26 L354.99,253.89 L355.71,247.54 L356.43,241.23 L357.15,234.95 L357.87,228.72   L358.59,222.56 L359.31,216.45 L360.03,210.43 L360.76,204.48 L361.48,198.63 L362.20,192.88 L362.92,187.23 L363.64,181.70   L364.36,176.30 L365.08,171.03 L365.80,165.89 L366.52,160.91 L367.24,156.07 L367.96,151.40 L368.68,146.89 L369.40,142.56   L370.12,138.40 L370.84,134.43 L371.56,130.65 L372.28,127.06 L373.00,123.68 L373.72,120.50 L374.45,117.53 L375.17,114.77   L375.89,112.24 L376.61,109.92 L377.33,107.83 L378.05,105.97 L378.77,104.33 L379.49,102.93 L380.21,101.77 L380.93,101.02   L381.65,101.02 L382.37,101.02 L383.09,101.02 L383.81,101.02 L384.53,101.02 L385.25,101.02 L385.97,101.02 L386.69,102.00   L387.42,103.22 L388.14,104.67 L388.86,106.35 L389.58,108.26 L390.30,110.40 L391.02,112.76 L391.74,115.35 L392.46,118.15   L393.18,121.16 L393.90,124.39 L394.62,127.82 L395.34,131.45 L396.06,135.27 L396.78,139.28 L397.50,143.47 L398.22,147.85   L398.94,152.39 L399.66,157.10 L400.38,161.97 L401.11,166.99 L401.83,172.15 L402.55,177.45 L403.27,182.89 L403.99,188.44   L404.71,194.11 L405.43,199.88 L406.15,205.75 L406.87,211.72 L407.59,217.76 L408.31,223.88 L409.03,230.06 L409.75,236.30   L410.47,242.59 L411.19,248.91 L411.91,255.26 L412.63,261.64 L413.35,268.02 L414.07,274.41 L414.80,280.79 L415.52,287.15   L416.24,293.50 L416.96,299.80 L417.68,306.07 L418.40,312.28 L419.12,318.44 L419.84,324.53 L420.56,330.54 L421.28,336.46   L422.00,342.29 L422.72,348.02 L423.44,353.64 L424.16,359.14 L424.88,364.51 L425.60,369.76 L426.32,374.86 L427.04,379.81   L427.76,384.61 L428.49,389.25 L429.21,393.72 L429.93,398.01 L430.65,402.13 L431.37,406.06 L432.09,409.80 L432.81,413.34   L433.53,416.68 L434.25,419.81 L434.97,422.73 L435.69,425.44 L436.41,427.93 L437.13,430.19 L437.85,432.23 L438.57,434.04   L439.29,435.62 L440.01,436.97 L440.73,438.09 L441.45,438.61 L442.18,438.61 L442.90,438.61 L443.62,438.61 L444.34,438.61   L445.06,438.61 L445.78,438.61 L446.50,438.41 L447.22,437.37 L447.94,436.11 L448.66,434.60 L449.38,432.87 L450.10,430.91   L450.82,428.72 L451.54,426.30 L452.26,423.67 L452.98,420.82 L453.70,417.76 L454.42,414.49 L455.14,411.02 L455.87,407.34   L456.59,403.48 L457.31,399.43 L458.03,395.19 L458.75,390.78 L459.47,386.20 L460.19,381.45 L460.91,376.55 L461.63,371.50   L462.35,366.30 L463.07,360.97 L463.79,355.51 L464.51,349.93 L465.23,344.24 L465.95,338.44 L466.67,332.55 L467.39,326.57   L468.11,320.50 L468.83,314.37 L469.56,308.18 L470.28,301.93 L471.00,295.63 L471.72,289.30 L472.44,282.94 L473.16,276.57   L473.88,270.18 L474.60,263.79 L475.32,257.41 L476.04,251.05 L476.76,244.72 L477.48,238.42 L478.20,232.16 L478.92,225.96   L479.64,219.82 L480.36,213.75 L481.08,207.76 L481.80,201.86 L482.53,196.05 L483.25,190.34 L483.97,184.75 L484.69,179.28   L485.41,173.93 L486.13,168.72 L486.85,163.65 L487.57,158.73 L488.29,153.96 L489.01,149.36 L489.73,144.93 L490.45,140.68   L491.17,136.60 L491.89,132.72 L492.61,129.02 L493.33,125.52 L494.05,122.23 L494.77,119.15 L495.49,116.27 L496.22,113.61   L496.94,111.17 L497.66,108.96 L498.38,106.97 L499.10,105.21 L499.82,103.68 L500.54,102.38 L501.26,101.32 L501.98,101.02   L502.70,101.02 L503.42,101.02 L504.14,101.02 L504.86,101.02 L505.58,101.02 L506.30,101.02 L507.02,101.43 L507.74,102.51   L508.46,103.83 L509.18,105.39 L509.91,107.17 L510.63,109.19 L511.35,111.43 L512.07,113.89 L512.79,116.57 L513.51,119.47   L514.23,122.58 L514.95,125.89 L515.67,129.41 L516.39,133.13 L517.11,137.04 L517.83,141.13 L518.55,145.41 L519.27,149.86   L519.99,154.48 L520.71,159.26 L521.43,164.19 L522.15,169.28 L522.87,174.50 L523.60,179.86 L524.32,185.35 L525.04,190.96   L525.76,196.67 L526.48,202.49 L527.20,208.41 L527.92,214.41 L528.64,220.49 L529.36,226.63 L530.08,232.84 L530.80,239.10   L531.52,245.41 L532.24,251.74 L532.96,258.11 L533.68,264.49 L534.40,270.87 L535.12,277.26 L535.84,283.63 L536.56,289.99   L537.29,296.32 L538.01,302.61 L538.73,308.85 L539.45,315.04 L540.17,321.17 L540.89,327.22 L541.61,333.19 L542.33,339.08   L543.05,344.86 L543.77,350.54 L544.49,356.11 L545.21,361.56 L545.93,366.87 L546.65,372.05 L547.37,377.09 L548.09,381.97   L548.81,386.70 L549.53,391.27 L550.25,395.66 L550.98,399.87 L551.70,403.91 L552.42,407.75 L553.14,411.40 L553.86,414.85   L554.58,418.10 L555.30,421.14 L556.02,423.97 L556.74,426.58 L557.46,428.97 L558.18,431.13 L558.90,433.07 L559.62,434.78   L560.34,436.26 L561.06,437.50 L561.78,438.51 L562.50,438.61 L563.22,438.61 L563.94,438.61 L564.67,438.61 L565.39,438.61   L566.11,438.61 L566.83,438.61 L567.55,437.98 L568.27,436.84 L568.99,435.46 L569.71,433.86 L570.43,432.02 L571.15,429.96   L571.87,427.67 L572.59,425.15 L573.31,422.42 L574.03,419.48 L574.75,416.32 L575.47,412.96 L576.19,409.40 L576.91,405.64   L577.64,401.69 L578.36,397.56 L579.08,393.24 L579.80,388.75 L580.52,384.10 L581.24,379.28 L581.96,374.31 L582.68,369.19   L583.40,363.94 L584.12,358.55 L584.84,353.03 L585.56,347.40 L586.28,341.66 L587.00,335.82 L587.72,329.89 L588.44,323.87   L589.16,317.77 L589.88,311.61 L590.60,305.39 L591.33,299.12 L592.05,292.81 L592.77,286.46 L593.49,280.10 L594.21,273.71   L594.93,267.33 L595.65,260.94 L596.37,254.57 L597.09,248.22 L597.81,241.90 L598.53,235.62 L599.25,229.39 L599.97,223.21   L600.69,217.10 L601.41,211.07 L602.13,205.11 L602.85,199.25 L603.57,193.49 L604.29,187.83 L605.02,182.29 L605.74,176.87   L606.46,171.58 L607.18,166.44 L607.90,161.43 L608.62,156.58 L609.34,151.89 L610.06,147.36 L610.78,143.01 L611.50,138.83   L612.22,134.84 L612.94,131.04 L613.66,127.43 L614.38,124.03 L615.10,120.83 L615.82,117.84 L616.54,115.06 L617.26,112.50   L617.98,110.16 L618.71,108.04 L619.43,106.15 L620.15,104.50 L620.87,103.07 L621.59,101.88 L622.31,101.02 L623.03,101.02   L623.75,101.02 L624.47,101.02 L625.19,101.02 L625.91,101.02 L626.63,101.02 L627.35,101.02 L628.07,101.88 L628.79,103.07   L629.51,104.50 L630.23,106.16 L630.95,108.05 L631.67,110.16 L632.40,112.50 L633.12,115.06 L633.84,117.84 L634.56,120.83   L635.28,124.03 L636.00,127.44 L636.72,131.05 L637.44,134.85 L638.16,138.84 L638.88,143.02 L639.60,147.37 L640.32,151.90   L641.04,156.59 L641.76,161.44 L642.48,166.45 L643.20,171.60 L643.92,176.88 L644.64,182.30 L645.36,187.84 L646.09,193.50   L646.81,199.26 L647.53,205.12 L648.25,211.08 L648.97,217.11 L649.69,223.22 L650.41,229.40 L651.13,235.63 L651.85,241.91   L652.57,248.23 L653.29,254.58 L654.01,260.95 L654.73,267.34 L655.45,273.73 L656.17,280.11 L656.89,286.48 L657.61,292.82   L658.33,299.13 L659.05,305.40 L659.78,311.62 L660.50,317.78 L661.22,323.88 L661.94,329.90 L662.66,335.83 L663.38,341.67   L664.10,347.41 L664.82,353.04 L665.54,358.56 L666.26,363.95 L666.98,369.20 L667.70,374.32 L668.42,379.29 L669.14,384.11   L669.86,388.76 L670.58,393.25 L671.30,397.56 L672.02,401.70 L672.75,405.65 L673.47,409.41 L674.19,412.97 L674.91,416.33   L675.63,419.49 L676.35,422.43 L677.07,425.16 L677.79,427.67 L678.51,429.96 L679.23,432.03 L679.95,433.86 L680.67,435.47   L681.39,436.84 L682.11,437.98 L682.83,438.61 L683.55,438.61 L684.27,438.61 L684.99,438.61 L685.71,438.61 L686.44,438.61   L687.16,438.61 L687.88,438.50 L688.60,437.50 L689.32,436.25 L690.04,434.78 L690.76,433.07 L691.48,431.13 L692.20,428.96   L692.92,426.57 L693.64,423.96 L694.36,421.14 L695.08,418.10 L695.80,414.85 L696.52,411.40 L697.24,407.75 L697.96,403.90   L698.68,399.87 L699.40,395.65 L700.13,391.26 L700.85,386.69 L701.57,381.97 L702.29,377.08 L703.01,372.04 L703.73,366.86   L704.45,361.54 L705.17,356.10 L705.89,350.53 L706.61,344.85 L707.33,339.06 L708.05,333.18 L708.77,327.21 L709.49,321.15   L710.21,315.03 L710.93,308.84 L711.65,302.60 L712.37,296.31 L713.09,289.98 L713.82,283.62 L714.54,277.25 L715.26,270.86   L715.98,264.47 L716.70,258.09 L717.42,251.73 L718.14,245.39 L718.86,239.09 L719.58,232.83 L720.30,226.62 L721.02,220.47   L721.74,214.40 L722.46,208.40 L723.18,202.48 L723.90,196.66 L724.62,190.95 L725.34,185.34 L726.06,179.85 L726.78,174.49   L727.51,169.27 L728.23,164.18 L728.95,159.25 L729.67,154.47 L730.39,149.85 L731.11,145.40 L731.83,141.12 L732.55,137.03   L733.27,133.12 L733.99,129.41 L734.71,125.89 L735.43,122.57 L736.15,119.46 L736.87,116.57 L737.59,113.89 L738.31,111.42   L739.03,109.18 L739.75,107.17 L740.47,105.39 L741.20,103.83 L741.92,102.51 L742.64,101.43 L743.36,101.02 L744.08,101.02   L744.80,101.02 L745.52,101.02 L746.24,101.02 L746.96,101.02 L747.68,101.02 L748.40,101.33 L749.12,102.39 L749.84,103.68   L750.56,105.21 L751.28,106.97 L752.00,108.96 L752.72,111.18 L753.44,113.62 L754.16,116.28 L754.89,119.15 L755.61,122.24   L756.33,125.53 L757.05,129.03 L757.77,132.72 L758.49,136.61 L759.21,140.68 L759.93,144.94 L760.65,149.37 L761.37,153.97   L762.09,158.74 L762.81,163.66 L763.53,168.73 L764.25,173.94 L764.97,179.29 L765.69,184.76 L766.41,190.35 L767.13,196.06   L767.86,201.87 L768.58,207.77 L769.30,213.76 L770.02,219.83 L770.74,225.97 L771.46,232.18 L772.18,238.43 L772.90,244.73   L773.62,251.07 L774.34,257.43  "
           id="path34" />
      </g>
    </g>
    <g
       id="gnuplot_plot_2">
      <title
         id="title35">Measured wave</title>
      <g
         fill="none"
         color="white"
         stroke="rgb( 86, 180, 233)"
         stroke-width="3.00"
         stroke-linecap="butt"
         stroke-linejoin="miter"
         id="g36" />
      <g
         fill="none"
         color="black"
         stroke="currentColor"
         stroke-width="3.00"
         stroke-linecap="butt"
         stroke-linejoin="miter"
         id="g38">
        <g
           transform="translate(707.09,57.91)"
           stroke="none"
           fill="black"
           font-family="Arial"
           font-size="12.00"
           text-anchor="end"
           id="g37">
          <text
             id="text36"><tspan
               font-family="Arial"
               id="tspan36">Measured wave</tspan></text>
        </g>
      </g>
      <g
         fill="none"
         color="black"
         stroke="currentColor"
         stroke-width="3.00"
         stroke-linecap="butt"
         stroke-linejoin="miter"
         id="g39">
        <path
           stroke="rgb(148,   0, 211)"
           d="M715.48,54.01 L758.04,54.01 M54.53,302.23 L55.01,302.23 L55.49,306.32 L55.97,310.41 L56.45,313.14 L56.93,319.95   L57.41,324.04 L57.89,326.77 L58.37,330.86 L58.85,333.58 L59.33,337.67 L59.81,343.13 L60.29,345.85 L60.77,351.30   L61.25,352.67 L61.73,356.76 L62.21,360.85 L62.69,362.21 L63.17,369.03 L63.65,371.75 L64.13,373.12 L64.61,379.93   L65.09,384.02 L65.57,384.02 L66.05,386.75 L66.53,392.20 L67.02,393.56 L67.50,394.93 L67.98,399.02 L68.46,401.74   L68.94,404.47 L69.42,408.56 L69.90,409.92 L70.38,411.28 L70.86,414.01 L71.34,416.74 L71.82,419.46 L72.30,419.46   L72.78,422.19 L73.26,424.92 L73.74,426.28 L74.22,427.64 L74.70,430.37 L75.18,430.37 L75.66,431.73 L76.14,433.09   L76.62,433.09 L77.10,435.82 L77.58,437.18 L78.06,435.82 L78.54,435.82 L79.02,437.18 L79.50,437.18 L79.98,437.18   L80.46,437.18 L80.94,437.18 L81.42,438.55 L81.90,438.55 L82.38,438.55 L82.86,437.18 L83.34,438.55 L83.82,437.18   L84.30,437.18 L84.78,437.18 L85.26,435.82 L85.74,435.82 L86.22,435.82 L86.70,434.46 L87.18,431.73 L87.66,431.73   L88.14,430.37 L88.62,429.01 L89.10,426.28 L89.58,426.28 L90.06,424.92 L90.54,422.19 L91.02,418.10 L91.50,418.10   L91.99,416.74 L92.47,412.65 L92.95,414.01 L93.43,408.56 L93.91,407.19 L94.39,403.10 L94.87,399.02 L95.35,397.65   L95.83,396.29 L96.31,393.56 L96.79,388.11 L97.27,385.38 L97.75,384.02 L98.23,381.29 L98.71,375.84 L99.19,371.75   L99.67,369.03 L100.15,369.03 L100.63,363.57 L101.11,359.48 L101.59,356.76 L102.07,354.03 L102.55,348.58 L103.03,344.49   L103.51,340.40 L103.99,336.31 L104.47,334.95 L104.95,328.13 L105.43,325.40 L105.91,318.59 L106.39,317.23 L106.87,310.41   L107.35,309.05 L107.83,302.23 L108.31,302.23 L108.79,295.41 L109.27,292.69 L109.75,287.24 L110.23,283.15 L110.71,279.06   L111.19,274.97 L111.67,270.88 L112.15,266.79 L112.63,262.70 L113.11,258.61 L113.59,258.61 L114.07,250.43 L114.55,244.98   L115.03,240.89 L115.51,235.44 L115.99,232.71 L116.47,227.26 L116.96,225.89 L117.44,219.08 L117.92,216.35 L118.40,210.90   L118.88,208.17 L119.36,202.72 L119.84,201.36 L120.32,194.54 L120.80,191.81 L121.28,190.45 L121.76,187.72 L122.24,179.55   L122.72,178.18 L123.20,172.73 L123.68,171.37 L124.16,171.37 L124.64,165.91 L125.12,160.46 L125.60,156.37 L126.08,156.37   L126.56,152.28 L127.04,146.83 L127.52,146.83 L128.00,142.74 L128.48,141.38 L128.96,135.92 L129.44,133.20 L129.92,133.20   L130.40,129.11 L130.88,126.38 L131.36,125.02 L131.84,122.29 L132.32,119.57 L132.80,118.20 L133.28,118.20 L133.76,116.84   L134.24,112.75 L134.72,112.75 L135.20,108.66 L135.68,110.02 L136.16,104.57 L136.64,104.57 L137.12,104.57 L137.60,103.21   L138.08,103.21 L138.56,100.48 L139.04,101.84 L139.52,101.84 L140.00,100.48 L140.48,100.48 L140.96,100.48 L141.44,100.48   L141.93,100.48 L142.41,100.48 L142.89,100.48 L143.37,100.48 L143.85,100.48 L144.33,101.84 L144.81,100.48 L145.29,101.84   L145.77,101.84 L146.25,103.21 L146.73,103.21 L147.21,107.30 L147.69,105.93 L148.17,107.30 L148.65,108.66 L149.13,111.39   L149.61,111.39 L150.09,115.48 L150.57,116.84 L151.05,118.20 L151.53,119.57 L152.01,122.29 L152.49,125.02 L152.97,126.38   L153.45,130.47 L153.93,131.83 L154.41,133.20 L154.89,138.65 L155.37,140.01 L155.85,145.47 L156.33,146.83 L156.81,148.19   L157.29,150.92 L157.77,153.65 L158.25,157.73 L158.73,160.46 L159.21,163.19 L159.69,167.28 L160.17,170.00 L160.65,174.09   L161.13,178.18 L161.61,182.27 L162.09,183.63 L162.57,190.45 L163.05,190.45 L163.53,195.90 L164.01,202.72 L164.49,205.45   L164.97,209.54 L165.45,210.90 L165.93,214.99 L166.42,221.80 L166.90,225.89 L167.38,228.62 L167.86,229.98 L168.34,236.80   L168.82,242.25 L169.30,243.61 L169.78,249.07 L170.26,253.16 L170.74,255.88 L171.22,262.70 L171.70,265.42 L172.18,269.51   L172.66,273.60 L173.14,279.06 L173.62,283.15 L174.10,287.24 L174.58,291.33 L175.06,296.78 L175.54,299.50 L176.02,306.32   L176.50,306.32 L176.98,311.77 L177.46,317.23 L177.94,321.31 L178.42,325.40 L178.90,328.13 L179.38,336.31 L179.86,337.67   L180.34,339.04 L180.82,345.85 L181.30,348.58 L181.78,352.67 L182.26,356.76 L182.74,358.12 L183.22,363.57 L183.70,369.03   L184.18,369.03 L184.66,371.75 L185.14,378.57 L185.62,379.93 L186.10,385.38 L186.58,384.02 L187.06,390.84 L187.54,393.56   L188.02,393.56 L188.50,397.65 L188.98,399.02 L189.46,405.83 L189.94,407.19 L190.42,409.92 L190.90,409.92 L191.39,412.65   L191.87,414.01 L192.35,416.74 L192.83,419.46 L193.31,422.19 L193.79,423.55 L194.27,427.64 L194.75,426.28 L195.23,430.37   L195.71,430.37 L196.19,431.73 L196.67,431.73 L197.15,433.09 L197.63,435.82 L198.11,437.18 L198.59,438.55 L199.07,437.18   L199.55,438.55 L200.03,437.18 L200.51,438.55 L200.99,437.18 L201.47,437.18 L201.95,437.18 L202.43,438.55 L202.91,437.18   L203.39,437.18 L203.87,438.55 L204.35,438.55 L204.83,437.18 L205.31,437.18 L205.79,438.55 L206.27,437.18 L206.75,435.82   L207.23,434.46 L207.71,433.09 L208.19,431.73 L208.67,430.37 L209.15,430.37 L209.63,430.37 L210.11,426.28 L210.59,426.28   L211.07,422.19 L211.55,419.46 L212.03,419.46 L212.51,418.10 L212.99,414.01 L213.47,412.65 L213.95,409.92 L214.43,407.19   L214.91,404.47 L215.39,403.10 L215.87,399.02 L216.36,396.29 L216.84,393.56 L217.32,389.47 L217.80,389.47 L218.28,384.02   L218.76,379.93 L219.24,375.84 L219.72,373.12 L220.20,371.75 L220.68,367.66 L221.16,366.30 L221.64,367.66 L222.12,356.76   L222.60,356.76 L223.08,351.30 L223.56,343.13 L224.04,340.40 L224.52,340.40 L225.00,332.22 L225.48,332.22 L225.96,328.13   L226.44,321.31 L226.92,315.86 L227.40,313.14 L227.88,307.68 L228.36,304.96 L228.84,300.87 L229.32,296.78 L229.80,292.69   L230.28,289.96 L230.76,283.15 L231.24,277.69 L231.72,276.33 L232.20,270.88 L232.68,270.88 L233.16,262.70 L233.64,261.34   L234.12,254.52 L234.60,250.43 L235.08,247.70 L235.56,243.61 L236.04,238.16 L236.52,232.71 L237.00,229.98 L237.48,224.53   L237.96,221.80 L238.44,217.71 L238.92,212.26 L239.40,209.54 L239.88,205.45 L240.36,202.72 L240.85,197.27 L241.33,195.90   L241.81,189.09 L242.29,186.36 L242.77,180.91 L243.25,179.55 L243.73,175.46 L244.21,170.00 L244.69,170.00 L245.17,163.19   L245.65,163.19 L246.13,159.10 L246.61,157.73 L247.09,155.01 L247.57,148.19 L248.05,146.83 L248.53,141.38 L249.01,141.38   L249.49,138.65 L249.97,135.92 L250.45,131.83 L250.93,129.11 L251.41,127.75 L251.89,125.02 L252.37,122.29 L252.85,120.93   L253.33,118.20 L253.81,119.57 L254.29,112.75 L254.77,112.75 L255.25,112.75 L255.73,110.02 L256.21,108.66 L256.69,105.93   L257.17,105.93 L257.65,104.57 L258.13,103.21 L258.61,103.21 L259.09,100.48 L259.57,100.48 L260.05,100.48 L260.53,100.48   L261.01,100.48 L261.49,100.48 L261.97,100.48 L262.45,99.12 L262.93,100.48 L263.41,99.12 L263.89,100.48 L264.37,101.84   L264.85,101.84 L265.33,100.48 L265.82,100.48 L266.30,103.21 L266.78,103.21 L267.26,103.21 L267.74,104.57 L268.22,105.93   L268.70,105.93 L269.18,110.02 L269.66,110.02 L270.14,112.75 L270.62,114.11 L271.10,115.48 L271.58,119.57 L272.06,118.20   L272.54,118.20 L273.02,120.93 L273.50,126.38 L273.98,129.11 L274.46,131.83 L274.94,131.83 L275.42,134.56 L275.90,138.65   L276.38,142.74 L276.86,145.47 L277.34,146.83 L277.82,149.56 L278.30,152.28 L278.78,157.73 L279.26,159.10 L279.74,161.82   L280.22,164.55 L280.70,170.00 L281.18,172.73 L281.66,175.46 L282.14,179.55 L282.62,183.63 L283.10,186.36 L283.58,190.45   L284.06,195.90 L284.54,198.63 L285.02,202.72 L285.50,206.81 L285.98,210.90 L286.46,214.99 L286.94,217.71 L287.42,223.17   L287.90,227.26 L288.38,229.98 L288.86,234.07 L289.34,239.52 L289.82,243.61 L290.30,247.70 L290.79,253.16 L291.27,257.25   L291.75,258.61 L292.23,265.42 L292.71,269.51 L293.19,273.60 L293.67,276.33 L294.15,281.78 L294.63,284.51 L295.11,288.60   L295.59,292.69 L296.07,296.78 L296.55,302.23 L297.03,304.96 L297.51,310.41 L297.99,315.86 L298.47,319.95 L298.95,322.68   L299.43,328.13 L299.91,332.22 L300.39,334.95 L300.87,340.40 L301.35,343.13 L301.83,348.58 L302.31,355.39 L302.79,355.39   L303.27,354.03 L303.75,362.21 L304.23,366.30 L304.71,369.03 L305.19,370.39 L305.67,375.84 L306.15,377.20 L306.63,384.02   L307.11,385.38 L307.59,389.47 L308.07,392.20 L308.55,393.56 L309.03,399.02 L309.51,399.02 L309.99,401.74 L310.47,404.47   L310.95,408.56 L311.43,408.56 L311.91,414.01 L312.39,415.37 L312.87,416.74 L313.35,419.46 L313.83,420.83 L314.31,422.19   L314.79,424.92 L315.27,427.64 L315.76,427.64 L316.24,429.01 L316.72,430.37 L317.20,431.73 L317.68,433.09 L318.16,433.09   L318.64,435.82 L319.12,441.27 L319.60,437.18 L320.08,437.18 L320.56,438.55 L321.04,437.18 L321.52,439.91 L322.00,437.18   L322.48,439.91 L322.96,437.18 L323.44,438.55 L323.92,437.18 L324.40,439.91 L324.88,438.55 L325.36,437.18 L325.84,437.18   L326.32,438.55 L326.80,435.82 L327.28,435.82 L327.76,435.82 L328.24,433.09 L328.72,429.01 L329.20,431.73 L329.68,430.37   L330.16,429.01 L330.64,427.64 L331.12,424.92 L331.60,422.19 L332.08,422.19 L332.56,418.10 L333.04,415.37 L333.52,415.37   L334.00,412.65 L334.48,408.56 L334.96,408.56 L335.44,407.19 L335.92,400.38 L336.40,400.38 L336.88,397.65 L337.36,396.29   L337.84,393.56 L338.32,388.11 L338.80,384.02 L339.28,379.93 L339.76,377.20 L340.25,377.20 L340.73,374.48 L341.21,369.03   L341.69,363.57 L342.17,363.57 L342.65,358.12 L343.13,355.39 L343.61,352.67 L344.09,349.94 L344.57,344.49 L345.05,339.04   L345.53,336.31 L346.01,332.22 L346.49,325.40 L346.97,321.31 L347.45,319.95 L347.93,315.86 L348.41,310.41 L348.89,309.05   L349.37,302.23 L349.85,300.87 L350.33,294.05 L350.81,289.96 L351.29,287.24 L351.77,284.51 L352.25,277.69 L352.73,273.60   L353.21,272.24 L353.69,265.42 L354.17,258.61 L354.65,258.61 L355.13,253.16 L355.61,249.07 L356.09,244.98 L356.57,240.89   L357.05,238.16 L357.53,229.98 L358.01,227.26 L358.49,224.53 L358.97,220.44 L359.45,213.62 L359.93,212.26 L360.41,206.81   L360.89,202.72 L361.37,198.63 L361.85,194.54 L362.33,189.09 L362.81,187.72 L363.29,185.00 L363.77,179.55 L364.25,180.91   L364.73,172.73 L365.22,168.64 L365.70,165.91 L366.18,164.55 L366.66,160.46 L367.14,159.10 L367.62,153.65 L368.10,153.65   L368.58,148.19 L369.06,146.83 L369.54,142.74 L370.02,140.01 L370.50,135.92 L370.98,134.56 L371.46,131.83 L371.94,129.11   L372.42,125.02 L372.90,123.66 L373.38,122.29 L373.86,119.57 L374.34,116.84 L374.82,118.20 L375.30,114.11 L375.78,112.75   L376.26,114.11 L376.74,110.02 L377.22,108.66 L377.70,104.57 L378.18,104.57 L378.66,103.21 L379.14,104.57 L379.62,101.84   L380.10,100.48 L380.58,101.84 L381.06,101.84 L381.54,100.48 L382.02,100.48 L382.50,99.12 L382.98,100.48 L383.46,100.48   L383.94,100.48 L384.42,100.48 L384.90,100.48 L385.38,100.48 L385.86,99.12 L386.34,101.84 L386.82,101.84 L387.30,104.57   L387.78,104.57 L388.26,101.84 L388.74,105.93 L389.22,108.66 L389.70,110.02 L390.19,110.02 L390.67,111.39 L391.15,114.11   L391.63,116.84 L392.11,116.84 L392.59,118.20 L393.07,120.93 L393.55,122.29 L394.03,125.02 L394.51,126.38 L394.99,129.11   L395.47,133.20 L395.95,135.92 L396.43,137.29 L396.91,138.65 L397.39,142.74 L397.87,148.19 L398.35,148.19 L398.83,150.92   L399.31,156.37 L399.79,159.10 L400.27,163.19 L400.75,163.19 L401.23,168.64 L401.71,170.00 L402.19,175.46 L402.67,178.18   L403.15,182.27 L403.63,186.36 L404.11,190.45 L404.59,193.18 L405.07,195.90 L405.55,199.99 L406.03,206.81 L406.51,208.17   L406.99,212.26 L407.47,216.35 L407.95,221.80 L408.43,224.53 L408.91,227.26 L409.39,232.71 L409.87,239.52 L410.35,242.25   L410.83,244.98 L411.31,250.43 L411.79,253.16 L412.27,258.61 L412.75,262.70 L413.23,266.79 L413.71,272.24 L414.19,273.60   L414.68,279.06 L415.16,284.51 L415.64,287.24 L416.12,289.96 L416.60,298.14 L417.08,300.87 L417.56,303.59 L418.04,307.68   L418.52,315.86 L419.00,317.23 L419.48,321.31 L419.96,325.40 L420.44,329.49 L420.92,334.95 L421.40,339.04 L421.88,341.76   L422.36,348.58 L422.84,349.94 L423.32,352.67 L423.80,354.03 L424.28,359.48 L424.76,363.57 L425.24,369.03 L425.72,370.39   L426.20,374.48 L426.68,374.48 L427.16,378.57 L427.64,384.02 L428.12,386.75 L428.60,390.84 L429.08,396.29 L429.56,394.93   L430.04,400.38 L430.52,403.10 L431.00,401.74 L431.48,408.56 L431.96,411.28 L432.44,412.65 L432.92,414.01 L433.40,416.74   L433.88,418.10 L434.36,419.46 L434.84,422.19 L435.32,423.55 L435.80,424.92 L436.28,429.01 L436.76,430.37 L437.24,430.37   L437.72,431.73 L438.20,433.09 L438.68,435.82 L439.16,434.46 L439.65,435.82 L440.13,437.18 L440.61,438.55 L441.09,438.55   L441.57,437.18 L442.05,439.91 L442.53,438.55 L443.01,437.18 L443.49,439.91 L443.97,439.91 L444.45,438.55 L444.93,438.55   L445.41,438.55 L445.89,439.91 L446.37,437.18 L446.85,438.55 L447.33,437.18 L447.81,435.82 L448.29,435.82 L448.77,434.46   L449.25,431.73 L449.73,431.73 L450.21,430.37 L450.69,430.37 L451.17,427.64 L451.65,426.28 L452.13,424.92 L452.61,422.19   L453.09,422.19 L453.57,418.10 L454.05,414.01 L454.53,416.74 L455.01,412.65 L455.49,405.83 L455.97,407.19 L456.45,407.19   L456.93,403.10 L457.41,397.65 L457.89,394.93 L458.37,394.93 L458.85,393.56 L459.33,386.75 L459.81,384.02 L460.29,379.93   L460.77,377.20 L461.25,373.12 L461.73,370.39 L462.21,370.39 L462.69,363.57 L463.17,362.21 L463.65,358.12 L464.13,352.67   L464.62,349.94 L465.10,345.85 L465.58,340.40 L466.06,337.67 L466.54,333.58 L467.02,329.49 L467.50,328.13 L467.98,321.31   L468.46,317.23 L468.94,315.86 L469.42,310.41 L469.90,304.96 L470.38,299.50 L470.86,298.14 L471.34,289.96 L471.82,288.60   L472.30,283.15 L472.78,279.06 L473.26,276.33 L473.74,270.88 L474.22,268.15 L474.70,265.42 L475.18,255.88 L475.66,257.25   L476.14,249.07 L476.62,244.98 L477.10,243.61 L477.58,236.80 L478.06,234.07 L478.54,228.62 L479.02,224.53 L479.50,221.80   L479.98,216.35 L480.46,210.90 L480.94,209.54 L481.42,205.45 L481.90,199.99 L482.38,195.90 L482.86,193.18 L483.34,191.81   L483.82,186.36 L484.30,180.91 L484.78,179.55 L485.26,178.18 L485.74,171.37 L486.22,167.28 L486.70,163.19 L487.18,163.19   L487.66,157.73 L488.14,156.37 L488.62,155.01 L489.10,148.19 L489.59,146.83 L490.07,142.74 L490.55,138.65 L491.03,138.65   L491.51,134.56 L491.99,131.83 L492.47,129.11 L492.95,126.38 L493.43,126.38 L493.91,122.29 L494.39,119.57 L494.87,118.20   L495.35,116.84 L495.83,114.11 L496.31,114.11 L496.79,114.11 L497.27,112.75 L497.75,108.66 L498.23,108.66 L498.71,107.30   L499.19,104.57 L499.67,103.21 L500.15,103.21 L500.63,100.48 L501.11,100.48 L501.59,100.48 L502.07,100.48 L502.55,101.84   L503.03,100.48 L503.51,100.48 L503.99,100.48 L504.47,100.48 L504.95,99.12 L505.43,100.48 L505.91,101.84 L506.39,100.48   L506.87,100.48 L507.35,101.84 L507.83,100.48 L508.31,103.21 L508.79,104.57 L509.27,107.30 L509.75,105.93 L510.23,108.66   L510.71,110.02 L511.19,112.75 L511.67,112.75 L512.15,114.11 L512.63,118.20 L513.11,118.20 L513.59,119.57 L514.08,123.66   L514.56,123.66 L515.04,125.02 L515.52,129.11 L516.00,131.83 L516.48,133.20 L516.96,137.29 L517.44,138.65 L517.92,138.65   L518.40,146.83 L518.88,146.83 L519.36,152.28 L519.84,153.65 L520.32,156.37 L520.80,160.46 L521.28,163.19 L521.76,165.91   L522.24,171.37 L522.72,174.09 L523.20,176.82 L523.68,180.91 L524.16,183.63 L524.64,189.09 L525.12,193.18 L525.60,195.90   L526.08,198.63 L526.56,204.08 L527.04,209.54 L527.52,212.26 L528.00,214.99 L528.48,220.44 L528.96,224.53 L529.44,228.62   L529.92,231.35 L530.40,238.16 L530.88,239.52 L531.36,243.61 L531.84,247.70 L532.32,254.52 L532.80,255.88 L533.28,261.34   L533.76,265.42 L534.24,270.88 L534.72,272.24 L535.20,277.69 L535.68,280.42 L536.16,284.51 L536.64,289.96 L537.12,295.41   L537.60,299.50 L538.08,303.59 L538.56,307.68 L539.05,309.05 L539.53,314.50 L540.01,319.95 L540.49,322.68 L540.97,326.77   L541.45,332.22 L541.93,337.67 L542.41,339.04 L542.89,341.76 L543.37,349.94 L543.85,351.30 L544.33,354.03 L544.81,358.12   L545.29,363.57 L545.77,364.94 L546.25,370.39 L546.73,371.75 L547.21,375.84 L547.69,381.29 L548.17,382.66 L548.65,385.38   L549.13,386.75 L549.61,392.20 L550.09,393.56 L550.57,397.65 L551.05,399.02 L551.53,401.74 L552.01,405.83 L552.49,408.56   L552.97,412.65 L553.45,412.65 L553.93,412.65 L554.41,416.74 L554.89,419.46 L555.37,420.83 L555.85,424.92 L556.33,424.92   L556.81,426.28 L557.29,429.01 L557.77,429.01 L558.25,430.37 L558.73,431.73 L559.21,431.73 L559.69,434.46 L560.17,437.18   L560.65,437.18 L561.13,437.18 L561.61,437.18 L562.09,437.18 L562.57,438.55 L563.05,438.55 L563.53,437.18 L564.02,438.55   L564.50,437.18 L564.98,439.91 L565.46,438.55 L565.94,438.55 L566.42,437.18 L566.90,439.91 L567.38,437.18 L567.86,435.82   L568.34,437.18 L568.82,437.18 L569.30,435.82 L569.78,433.09 L570.26,431.73 L570.74,430.37 L571.22,430.37 L571.70,429.01   L572.18,427.64 L572.66,424.92 L573.14,422.19 L573.62,422.19 L574.10,416.74 L574.58,418.10 L575.06,412.65 L575.54,414.01   L576.02,412.65 L576.50,404.47 L576.98,405.83 L577.46,401.74 L577.94,400.38 L578.42,397.65 L578.90,393.56 L579.38,392.20   L579.86,388.11 L580.34,385.38 L580.82,382.66 L581.30,377.20 L581.78,378.57 L582.26,374.48 L582.74,367.66 L583.22,362.21   L583.70,362.21 L584.18,360.85 L584.66,354.03 L585.14,349.94 L585.62,343.13 L586.10,343.13 L586.58,340.40 L587.06,337.67   L587.54,334.95 L588.02,326.77 L588.50,322.68 L588.99,322.68 L589.47,314.50 L589.95,311.77 L590.43,306.32 L590.91,302.23   L591.39,299.50 L591.87,292.69 L592.35,289.96 L592.83,283.15 L593.31,279.06 L593.79,274.97 L594.27,272.24 L594.75,269.51   L595.23,264.06 L595.71,259.97 L596.19,257.25 L596.67,250.43 L597.15,247.70 L597.63,243.61 L598.11,236.80 L598.59,235.44   L599.07,231.35 L599.55,225.89 L600.03,223.17 L600.51,217.71 L600.99,213.62 L601.47,209.54 L601.95,205.45 L602.43,202.72   L602.91,201.36 L603.39,195.90 L603.87,191.81 L604.35,186.36 L604.83,183.63 L605.31,179.55 L605.79,176.82 L606.27,171.37   L606.75,168.64 L607.23,167.28 L607.71,163.19 L608.19,159.10 L608.67,155.01 L609.15,153.65 L609.63,150.92 L610.11,148.19   L610.59,145.47 L611.07,144.10 L611.55,138.65 L612.03,134.56 L612.51,133.20 L612.99,129.11 L613.48,125.02 L613.96,127.75   L614.44,126.38 L614.92,120.93 L615.40,119.57 L615.88,119.57 L616.36,115.48 L616.84,114.11 L617.32,111.39 L617.80,111.39   L618.28,111.39 L618.76,105.93 L619.24,105.93 L619.72,104.57 L620.20,104.57 L620.68,103.21 L621.16,101.84 L621.64,103.21   L622.12,101.84 L622.60,99.12 L623.08,101.84 L623.56,100.48 L624.04,101.84 L624.52,100.48 L625.00,100.48 L625.48,100.48   L625.96,100.48 L626.44,100.48 L626.92,103.21 L627.40,100.48 L627.88,100.48 L628.36,101.84 L628.84,104.57 L629.32,103.21   L629.80,104.57 L630.28,104.57 L630.76,108.66 L631.24,111.39 L631.72,112.75 L632.20,112.75 L632.68,112.75 L633.16,112.75   L633.64,116.84 L634.12,116.84 L634.60,120.93 L635.08,122.29 L635.56,127.75 L636.04,127.75 L636.52,130.47 L637.00,133.20   L637.48,135.92 L637.96,137.29 L638.45,140.01 L638.93,142.74 L639.41,146.83 L639.89,148.19 L640.37,153.65 L640.85,157.73   L641.33,159.10 L641.81,163.19 L642.29,164.55 L642.77,167.28 L643.25,172.73 L643.73,176.82 L644.21,178.18 L644.69,182.27   L645.17,186.36 L645.65,190.45 L646.13,194.54 L646.61,198.63 L647.09,201.36 L647.57,206.81 L648.05,209.54 L648.53,212.26   L649.01,217.71 L649.49,223.17 L649.97,227.26 L650.45,229.98 L650.93,236.80 L651.41,238.16 L651.89,242.25 L652.37,244.98   L652.85,250.43 L653.33,255.88 L653.81,258.61 L654.29,262.70 L654.77,266.79 L655.25,272.24 L655.73,274.97 L656.21,279.06   L656.69,287.24 L657.17,288.60 L657.65,294.05 L658.13,296.78 L658.61,303.59 L659.09,306.32 L659.57,306.32 L660.05,314.50   L660.53,317.23 L661.01,322.68 L661.49,326.77 L661.97,328.13 L662.45,334.95 L662.93,337.67 L663.42,340.40 L663.90,344.49   L664.38,349.94 L664.86,352.67 L665.34,356.76 L665.82,359.48 L666.30,367.66 L666.78,369.03 L667.26,370.39 L667.74,374.48   L668.22,378.57 L668.70,381.29 L669.18,385.38 L669.66,385.38 L670.14,389.47 L670.62,393.56 L671.10,397.65 L671.58,399.02   L672.06,403.10 L672.54,404.47 L673.02,407.19 L673.50,409.92 L673.98,408.56 L674.46,414.01 L674.94,416.74 L675.42,419.46   L675.90,420.83 L676.38,422.19 L676.86,423.55 L677.34,426.28 L677.82,429.01 L678.30,430.37 L678.78,431.73 L679.26,431.73   L679.74,434.46 L680.22,433.09 L680.70,434.46 L681.18,435.82 L681.66,437.18 L682.14,437.18 L682.62,437.18 L683.10,437.18   L683.58,438.55 L684.06,437.18 L684.54,438.55 L685.02,439.91 L685.50,437.18 L685.98,437.18 L686.46,437.18 L686.94,439.91   L687.42,437.18 L687.91,438.55 L688.39,439.91 L688.87,438.55 L689.35,437.18 L689.83,435.82 L690.31,433.09 L690.79,431.73   L691.27,431.73 L691.75,430.37 L692.23,430.37 L692.71,429.01 L693.19,427.64 L693.67,423.55 L694.15,422.19 L694.63,419.46   L695.11,419.46 L695.59,416.74 L696.07,415.37 L696.55,414.01 L697.03,408.56 L697.51,407.19 L697.99,401.74 L698.47,400.38   L698.95,399.02 L699.43,394.93 L699.91,392.20 L700.39,389.47 L700.87,386.75 L701.35,381.29 L701.83,379.93 L702.31,375.84   L702.79,374.48 L703.27,369.03 L703.75,366.30 L704.23,366.30 L704.71,358.12 L705.19,355.39 L705.67,352.67 L706.15,351.30   L706.63,344.49 L707.11,343.13 L707.59,337.67 L708.07,329.49 L708.55,328.13 L709.03,326.77 L709.51,318.59 L709.99,314.50   L710.47,314.50 L710.95,309.05 L711.43,304.96 L711.91,300.87 L712.39,295.41 L712.88,289.96 L713.36,291.33 L713.84,283.15   L714.32,277.69 L714.80,273.60 L715.28,272.24 L715.76,268.15 L716.24,261.34 L716.72,258.61 L717.20,253.16 L717.68,249.07   L718.16,244.98 L718.64,244.98 L719.12,238.16 L719.60,232.71 L720.08,229.98 L720.56,224.53 L721.04,219.08 L721.52,217.71   L722.00,209.54 L722.48,208.17 L722.96,202.72 L723.44,201.36 L723.92,195.90 L724.40,194.54 L724.88,187.72 L725.36,185.00   L725.84,180.91 L726.32,176.82 L726.80,174.09 L727.28,170.00 L727.76,167.28 L728.24,164.55 L728.72,161.82 L729.20,160.46   L729.68,156.37 L730.16,150.92 L730.64,149.56 L731.12,148.19 L731.60,142.74 L732.08,140.01 L732.56,137.29 L733.04,133.20   L733.52,133.20 L734.00,129.11 L734.48,129.11 L734.96,123.66 L735.44,123.66 L735.92,118.20 L736.40,118.20 L736.88,116.84   L737.36,115.48 L737.85,111.39 L738.33,110.02 L738.81,110.02 L739.29,110.02 L739.77,105.93 L740.25,104.57 L740.73,103.21   L741.21,101.84 L741.69,101.84 L742.17,100.48 L742.65,101.84 L743.13,100.48 L743.61,100.48 L744.09,99.12 L744.57,100.48   L745.05,100.48 L745.53,101.84 L746.01,100.48 L746.49,100.48 L746.97,99.12 L747.45,100.48 L747.93,99.12 L748.41,101.84   L748.89,101.84 L749.37,100.48 L749.85,104.57 L750.33,107.30 L750.81,104.57 L751.29,104.57 L751.77,110.02 L752.25,108.66   L752.73,110.02 L753.21,111.39 L753.69,115.48 L754.17,116.84 L754.65,116.84 L755.13,118.20 L755.61,122.29 L756.09,123.66   L756.57,126.38 L757.05,129.11 L757.53,131.83 L758.01,133.20 L758.49,134.56 L758.97,138.65 L759.45,142.74 L759.93,145.47   L760.41,148.19 L760.89,149.56 L761.37,152.28 L761.85,157.73 L762.33,160.46 L762.82,163.19 L763.30,165.91 L763.78,168.64   L764.26,174.09 L764.74,178.18 L765.22,180.91 L765.70,183.63 L766.18,190.45 L766.66,191.81 L767.14,197.27 L767.62,198.63   L768.10,204.08 L768.58,210.90 L769.06,212.26 L769.54,214.99 L770.02,221.80 L770.50,221.80 L770.98,227.26 L771.46,231.35   L771.94,236.80 L772.42,242.25 L772.90,243.61 L773.38,253.16 L773.86,251.79 L774.34,257.25  "
           id="path38" />
      </g>
    </g>
    <g
       fill="none"
       color="white"
       stroke="rgb(148,   0, 211)"
       stroke-width="2.00"
       stroke-linecap="butt"
       stroke-linejoin="miter"
       id="g40" />
    <g
       fill="none"
       color="black"
       stroke="currentColor"
       stroke-width="2.00"
       stroke-linecap="butt"
       stroke-linejoin="miter"
       id="g41" />
    <g
       fill="none"
       color="black"
       stroke="black"
       stroke-width="1.00"
       stroke-linecap="butt"
       stroke-linejoin="miter"
       id="g42" />
    <g
       fill="none"
       color="black"
       stroke="currentColor"
       stroke-width="1.00"
       stroke-linecap="butt"
       stroke-linejoin="miter"
       id="g43">
      <path
         stroke="black"
         d="M54.53,18.01 L54.53,444.00 L774.82,444.00 L774.82,18.01 L54.53,18.01 Z  "
         id="path42" />
    </g>
    <g
       fill="none"
       color="black"
       stroke="currentColor"
       stroke-width="1.00"
       stroke-linecap="butt"
       stroke-linejoin="miter"
       id="g44" />
  </g>
  <metadata
     id="metadata44">
    <rdf:RDF>
      <cc:Work
         rdf:about="">
        <dc:title>Gnuplot</dc:title>
      </cc:Work>
    </rdf:RDF>
  </metadata>
</svg>
