<?xml version="1.0" encoding="UTF-8" standalone="no"?>
<svg
   width="800"
   height="480"
   viewBox="0 0 800 480"
   version="1.1"
   id="svg44"
   sodipodi:docname="gplot_3db.svg"
   inkscape:version="1.4.2 (ebf0e940d0, 2025-05-08)"
   xmlns:inkscape="http://www.inkscape.org/namespaces/inkscape"
   xmlns:sodipodi="http://sodipodi.sourceforge.net/DTD/sodipodi-0.dtd"
   xmlns:xlink="http://www.w3.org/1999/xlink"
   xmlns="http://www.w3.org/2000/svg"
   xmlns:svg="http://www.w3.org/2000/svg"
   xmlns:rdf="http://www.w3.org/1999/02/22-rdf-syntax-ns#"
   xmlns:cc="http://creativecommons.org/ns#"
   xmlns:dc="http://purl.org/dc/elements/1.1/">
  <defs
     id="defs44" />
  <sodipodi:namedview
     id="namedview44"
     pagecolor="#ffffff"
     bordercolor="#cccccc"
     borderopacity="1"
     inkscape:showpageshadow="0"
     inkscape:pageopacity="1"
     inkscape:pagecheckerboard="0"
     inkscape:deskcolor="#d1d1d1"
     inkscape:zoom="1.0081548"
     inkscape:cx="421.0663"
     inkscape:cy="252.93735"
     inkscape:window-width="1728"
     inkscape:window-height="1088"
     inkscape:window-x="0"
     inkscape:window-y="0"
     inkscape:window-maximized="1"
     inkscape:current-layer="svg44" />
  <title
     id="title1">Gnuplot</title>
  <desc
     id="desc1">Produced by GNUPLOT 6.0 patchlevel 3 </desc>
  <rect
     style="fill:#ffffff;stroke-width:3.77953;stroke-linecap:round;stroke-linejoin:bevel;paint-order:stroke markers fill"
     id="rect44"
     width="800"
     height="480"
     x="0"
     y="0" />
  <g
     id="gnuplot_canvas">
    <rect
       x="0"
       y="0"
       width="800"
       height="480"
       fill="none"
       id="rect1" />
    <defs
       id="defs2">
      <circle
         id="gpDot"
         r="0.5"
         stroke-width="0.5"
         stroke="currentColor" />
      <path
         id="gpPt0"
         stroke-width="0.222"
         stroke="currentColor"
         d="M-1,0 h2 M0,-1 v2" />
      <path
         id="gpPt1"
         stroke-width="0.222"
         stroke="currentColor"
         d="M-1,-1 L1,1 M1,-1 L-1,1" />
      <path
         id="gpPt2"
         stroke-width="0.222"
         stroke="currentColor"
         d="M-1,0 L1,0 M0,-1 L0,1 M-1,-1 L1,1 M-1,1 L1,-1" />
      <rect
         id="gpPt3"
         stroke-width="0.222"
         stroke="currentColor"
         x="-1"
         y="-1"
         width="2"
         height="2" />
      <rect
         id="gpPt4"
         stroke-width="0.222"
         stroke="currentColor"
         fill="currentColor"
         x="-1"
         y="-1"
         width="2"
         height="2" />
      <circle
         id="gpPt5"
         stroke-width="0.222"
         stroke="currentColor"
         cx="0"
         cy="0"
         r="1" />
      <use
         xlink:href="#gpPt5"
         id="gpPt6"
         fill="currentColor"
         stroke="none" />
      <path
         id="gpPt7"
         stroke-width="0.222"
         stroke="currentColor"
         d="M0,-1.33 L-1.33,0.67 L1.33,0.67 z" />
      <use
         xlink:href="#gpPt7"
         id="gpPt8"
         fill="currentColor"
         stroke="none" />
      <use
         xlink:href="#gpPt7"
         id="gpPt9"
         stroke="currentColor"
         transform="rotate(180)" />
      <use
         xlink:href="#gpPt9"
         id="gpPt10"
         fill="currentColor"
         stroke="none" />
      <use
         xlink:href="#gpPt3"
         id="gpPt11"
         stroke="currentColor"
         transform="rotate(45)" />
      <use
         xlink:href="#gpPt11"
         id="gpPt12"
         fill="currentColor"
         stroke="none" />
      <path
         id="gpPt13"
         stroke-width="0.222"
         stroke="currentColor"
         d="M0,1.330 L1.265,0.411 L0.782,-1.067 L-0.782,-1.076 L-1.265,0.411 z" />
      <use
         xlink:href="#gpPt13"
         id="gpPt14"
         fill="currentColor"
         stroke="none" />
      <filter
         id="textbox"
         filterUnits="objectBoundingBox"
         x="0"
         y="0"
         height="1"
         width="1">
        <feFlood
           flood-color="white"
           flood-opacity="1"
           result="bgnd"
           id="feFlood1" />
        <feComposite
           in="SourceGraphic"
           in2="bgnd"
           operator="atop"
           id="feComposite1" />
      </filter>
      <filter
         id="greybox"
         filterUnits="objectBoundingBox"
         x="0"
         y="0"
         height="1"
         width="1">
        <feFlood
           flood-color="lightgrey"
           flood-opacity="1"
           result="grey"
           id="feFlood2" />
        <feComposite
           in="SourceGraphic"
           in2="grey"
           operator="atop"
           id="feComposite2" />
      </filter>
    </defs>
    <g
       fill="none"
       color="white"
       stroke="black"
       stroke-width="1.00"
       stroke-linecap="butt"
       stroke-linejoin="miter"
       id="g2" />
    <g
       fill="none"
       color="black"
       stroke="currentColor"
       stroke-width="1.00"
       stroke-linecap="butt"
       stroke-linejoin="miter"
       id="g4">
      <path
         stroke="black"
         d="M54.53,444.00 L63.53,444.00 M774.82,444.00 L765.82,444.00  "
         id="path2" />
      <g
         transform="translate(46.14,447.90)"
         stroke="none"
         fill="black"
         font-family="Arial"
         font-size="12.00"
         text-anchor="end"
         id="g3">
        <text
           id="text2"><tspan
             font-family="Arial"
             id="tspan2">-1</tspan></text>
      </g>
    </g>
    <g
       fill="none"
       color="black"
       stroke="currentColor"
       stroke-width="1.00"
       stroke-linecap="butt"
       stroke-linejoin="miter"
       id="g6">
      <path
         stroke="black"
         d="M54.53,358.80 L63.53,358.80 M774.82,358.80 L765.82,358.80  "
         id="path4" />
      <g
         transform="translate(46.14,362.70)"
         stroke="none"
         fill="black"
         font-family="Arial"
         font-size="12.00"
         text-anchor="end"
         id="g5">
        <text
           id="text4"><tspan
             font-family="Arial"
             id="tspan4">-0.5</tspan></text>
      </g>
    </g>
    <g
       fill="none"
       color="black"
       stroke="currentColor"
       stroke-width="1.00"
       stroke-linecap="butt"
       stroke-linejoin="miter"
       id="g8">
      <path
         stroke="black"
         d="M54.53,273.60 L63.53,273.60 M774.82,273.60 L765.82,273.60  "
         id="path6" />
      <g
         transform="translate(46.14,277.50)"
         stroke="none"
         fill="black"
         font-family="Arial"
         font-size="12.00"
         text-anchor="end"
         id="g7">
        <text
           id="text6"><tspan
             font-family="Arial"
             id="tspan6"> 0</tspan></text>
      </g>
    </g>
    <g
       fill="none"
       color="black"
       stroke="currentColor"
       stroke-width="1.00"
       stroke-linecap="butt"
       stroke-linejoin="miter"
       id="g10">
      <path
         stroke="black"
         d="M54.53,188.41 L63.53,188.41 M774.82,188.41 L765.82,188.41  "
         id="path8" />
      <g
         transform="translate(46.14,192.31)"
         stroke="none"
         fill="black"
         font-family="Arial"
         font-size="12.00"
         text-anchor="end"
         id="g9">
        <text
           id="text8"><tspan
             font-family="Arial"
             id="tspan8"> 0.5</tspan></text>
      </g>
    </g>
    <g
       fill="none"
       color="black"
       stroke="currentColor"
       stroke-width="1.00"
       stroke-linecap="butt"
       stroke-linejoin="miter"
       id="g12">
      <path
         stroke="black"
         d="M54.53,103.21 L63.53,103.21 M774.82,103.21 L765.82,103.21  "
         id="path10" />
      <g
         transform="translate(46.14,107.11)"
         stroke="none"
         fill="black"
         font-family="Arial"
         font-size="12.00"
         text-anchor="end"
         id="g11">
        <text
           id="text10"><tspan
             font-family="Arial"
             id="tspan10"> 1</tspan></text>
      </g>
    </g>
    <g
       fill="none"
       color="black"
       stroke="currentColor"
       stroke-width="1.00"
       stroke-linecap="butt"
       stroke-linejoin="miter"
       id="g14">
      <path
         stroke="black"
         d="M54.53,18.01 L63.53,18.01 M774.82,18.01 L765.82,18.01  "
         id="path12" />
      <g
         transform="translate(46.14,21.91)"
         stroke="none"
         fill="black"
         font-family="Arial"
         font-size="12.00"
         text-anchor="end"
         id="g13">
        <text
           id="text12"><tspan
             font-family="Arial"
             id="tspan12"> 1.5</tspan></text>
      </g>
    </g>
    <g
       fill="none"
       color="black"
       stroke="currentColor"
       stroke-width="1.00"
       stroke-linecap="butt"
       stroke-linejoin="miter"
       id="g16">
      <path
         stroke="black"
         d="M54.53,444.00 L54.53,435.00 M54.53,18.01 L54.53,27.01  "
         id="path14" />
      <g
         transform="translate(54.53,465.90)"
         stroke="none"
         fill="black"
         font-family="Arial"
         font-size="12.00"
         text-anchor="middle"
         id="g15">
        <text
           id="text14"><tspan
             font-family="Arial"
             id="tspan14"> 0</tspan></text>
      </g>
    </g>
    <g
       fill="none"
       color="black"
       stroke="currentColor"
       stroke-width="1.00"
       stroke-linecap="butt"
       stroke-linejoin="miter"
       id="g18">
      <path
         stroke="black"
         d="M174.58,444.00 L174.58,435.00 M174.58,18.01 L174.58,27.01  "
         id="path16" />
      <g
         transform="translate(174.58,465.90)"
         stroke="none"
         fill="black"
         font-family="Arial"
         font-size="12.00"
         text-anchor="middle"
         id="g17">
        <text
           id="text16"><tspan
             font-family="Arial"
             id="tspan16"> 0.01</tspan></text>
      </g>
    </g>
    <g
       fill="none"
       color="black"
       stroke="currentColor"
       stroke-width="1.00"
       stroke-linecap="butt"
       stroke-linejoin="miter"
       id="g20">
      <path
         stroke="black"
         d="M294.63,444.00 L294.63,435.00 M294.63,18.01 L294.63,27.01  "
         id="path18" />
      <g
         transform="translate(294.63,465.90)"
         stroke="none"
         fill="black"
         font-family="Arial"
         font-size="12.00"
         text-anchor="middle"
         id="g19">
        <text
           id="text18"><tspan
             font-family="Arial"
             id="tspan18"> 0.02</tspan></text>
      </g>
    </g>
    <g
       fill="none"
       color="black"
       stroke="currentColor"
       stroke-width="1.00"
       stroke-linecap="butt"
       stroke-linejoin="miter"
       id="g22">
      <path
         stroke="black"
         d="M414.68,444.00 L414.68,435.00 M414.68,18.01 L414.68,27.01  "
         id="path20" />
      <g
         transform="translate(414.68,465.90)"
         stroke="none"
         fill="black"
         font-family="Arial"
         font-size="12.00"
         text-anchor="middle"
         id="g21">
        <text
           id="text20"><tspan
             font-family="Arial"
             id="tspan20"> 0.03</tspan></text>
      </g>
    </g>
    <g
       fill="none"
       color="black"
       stroke="currentColor"
       stroke-width="1.00"
       stroke-linecap="butt"
       stroke-linejoin="miter"
       id="g24">
      <path
         stroke="black"
         d="M534.72,444.00 L534.72,435.00 M534.72,18.01 L534.72,27.01  "
         id="path22" />
      <g
         transform="translate(534.72,465.90)"
         stroke="none"
         fill="black"
         font-family="Arial"
         font-size="12.00"
         text-anchor="middle"
         id="g23">
        <text
           id="text22"><tspan
             font-family="Arial"
             id="tspan22"> 0.04</tspan></text>
      </g>
    </g>
    <g
       fill="none"
       color="black"
       stroke="currentColor"
       stroke-width="1.00"
       stroke-linecap="butt"
       stroke-linejoin="miter"
       id="g26">
      <path
         stroke="black"
         d="M654.77,444.00 L654.77,435.00 M654.77,18.01 L654.77,27.01  "
         id="path24" />
      <g
         transform="translate(654.77,465.90)"
         stroke="none"
         fill="black"
         font-family="Arial"
         font-size="12.00"
         text-anchor="middle"
         id="g25">
        <text
           id="text24"><tspan
             font-family="Arial"
             id="tspan24"> 0.05</tspan></text>
      </g>
    </g>
    <g
       fill="none"
       color="black"
       stroke="currentColor"
       stroke-width="1.00"
       stroke-linecap="butt"
       stroke-linejoin="miter"
       id="g28">
      <path
         stroke="black"
         d="M774.82,444.00 L774.82,435.00 M774.82,18.01 L774.82,27.01  "
         id="path26" />
      <g
         transform="translate(774.82,465.90)"
         stroke="none"
         fill="black"
         font-family="Arial"
         font-size="12.00"
         text-anchor="middle"
         id="g27">
        <text
           id="text26"><tspan
             font-family="Arial"
             id="tspan26"> 0.06</tspan></text>
      </g>
    </g>
    <g
       fill="none"
       color="black"
       stroke="currentColor"
       stroke-width="1.00"
       stroke-linecap="butt"
       stroke-linejoin="miter"
       id="g29" />
    <g
       fill="none"
       color="black"
       stroke="currentColor"
       stroke-width="1.00"
       stroke-linecap="butt"
       stroke-linejoin="miter"
       id="g30">
      <path
         stroke="black"
         d="M54.53,18.01 L54.53,444.00 L774.82,444.00 L774.82,18.01 L54.53,18.01 Z  "
         id="path29" />
    </g>
    <g
       fill="none"
       color="black"
       stroke="currentColor"
       stroke-width="1.00"
       stroke-linecap="butt"
       stroke-linejoin="miter"
       id="g31" />
    <g
       id="gnuplot_plot_1">
      <title
         id="title31">Fitted ideal clipped sin()</title>
      <g
         fill="none"
         color="white"
         stroke="black"
         stroke-width="10.00"
         stroke-linecap="butt"
         stroke-linejoin="miter"
         id="g32" />
      <g
         fill="none"
         color="black"
         stroke="currentColor"
         stroke-width="10.00"
         stroke-linecap="butt"
         stroke-linejoin="miter"
         id="g34">
        <g
           transform="translate(707.09,39.91)"
           stroke="none"
           fill="black"
           font-family="Arial"
           font-size="12.00"
           text-anchor="end"
           id="g33">
          <text
             id="text32"><tspan
               font-family="Arial"
               id="tspan32">Fitted ideal clipped sin()</tspan></text>
        </g>
      </g>
      <g
         fill="none"
         color="black"
         stroke="currentColor"
         stroke-width="10.00"
         stroke-linecap="butt"
         stroke-linejoin="miter"
         id="g35">
        <path
           stroke="rgb( 86, 180, 233)"
           d="M715.48,36.01 L758.04,36.01 M54.53,283.49 L55.25,286.62 L55.97,289.73 L56.69,292.80 L57.41,295.85 L58.13,298.85   L58.85,301.82 L59.57,304.74 L60.29,307.61 L61.01,310.42 L61.74,313.18 L62.46,315.88 L63.18,318.51 L63.90,321.08   L64.62,323.57 L65.34,325.98 L66.06,328.32 L66.78,330.57 L67.50,332.74 L68.22,334.82 L68.94,336.80 L69.66,338.69   L70.38,340.49 L71.10,342.18 L71.82,343.77 L72.54,345.26 L73.26,346.64 L73.98,347.92 L74.70,349.08 L75.43,350.13   L76.15,351.07 L76.87,351.89 L77.59,352.60 L78.31,353.19 L79.03,353.66 L79.75,354.01 L80.47,354.25 L81.19,354.25   L81.91,354.25 L82.63,354.24 L83.35,353.99 L84.07,353.63 L84.79,353.15 L85.51,352.56 L86.23,351.84 L86.95,351.01   L87.67,350.07 L88.39,349.01 L89.12,347.84 L89.84,346.56 L90.56,345.18 L91.28,343.68 L92.00,342.08 L92.72,340.38   L93.44,338.58 L94.16,336.68 L94.88,334.69 L95.60,332.61 L96.32,330.44 L97.04,328.18 L97.76,325.84 L98.48,323.42   L99.20,320.92 L99.92,318.36 L100.64,315.72 L101.36,313.02 L102.09,310.26 L102.81,307.44 L103.53,304.56 L104.25,301.64   L104.97,298.67 L105.69,295.66 L106.41,292.62 L107.13,289.54 L107.85,286.43 L108.57,283.30 L109.29,280.15 L110.01,276.99   L110.73,273.81 L111.45,270.63 L112.17,267.45 L112.89,264.27 L113.61,261.10 L114.33,257.93 L115.05,254.79 L115.78,251.67   L116.50,248.57 L117.22,245.50 L117.94,242.46 L118.66,239.46 L119.38,236.51 L120.10,233.60 L120.82,230.74 L121.54,227.94   L122.26,225.19 L122.98,222.51 L123.70,219.89 L124.42,217.34 L125.14,214.87 L125.86,212.47 L126.58,210.15 L127.30,207.92   L128.02,205.77 L128.74,203.71 L129.47,201.75 L130.19,199.87 L130.91,198.10 L131.63,196.43 L132.35,194.86 L133.07,193.40   L133.79,192.04 L134.51,190.79 L135.23,189.65 L135.95,188.63 L136.67,187.71 L137.39,186.92 L138.11,186.24 L138.83,185.67   L139.55,185.23 L140.27,184.90 L140.99,184.73 L141.71,184.73 L142.43,184.73 L143.16,184.78 L143.88,185.05 L144.60,185.44   L145.32,185.94 L146.04,186.56 L146.76,187.30 L147.48,188.16 L148.20,189.13 L148.92,190.21 L149.64,191.40 L150.36,192.71   L151.08,194.12 L151.80,195.63 L152.52,197.25 L153.24,198.98 L153.96,200.80 L154.68,202.72 L155.40,204.73 L156.12,206.83   L156.85,209.02 L157.57,211.30 L158.29,213.66 L159.01,216.10 L159.73,218.61 L160.45,221.19 L161.17,223.84 L161.89,226.56   L162.61,229.33 L163.33,232.16 L164.05,235.05 L164.77,237.98 L165.49,240.96 L166.21,243.98 L166.93,247.03 L167.65,250.11   L168.37,253.23 L169.09,256.36 L169.81,259.51 L170.54,262.68 L171.26,265.86 L171.98,269.04 L172.70,272.22 L173.42,275.40   L174.14,278.57 L174.86,281.73 L175.58,284.87 L176.30,287.99 L177.02,291.08 L177.74,294.15 L178.46,297.17 L179.18,300.16   L179.90,303.11 L180.62,306.01 L181.34,308.85 L182.06,311.65 L182.78,314.38 L183.50,317.05 L184.23,319.65 L184.95,322.18   L185.67,324.64 L186.39,327.02 L187.11,329.32 L187.83,331.54 L188.55,333.66 L189.27,335.70 L189.99,337.65 L190.71,339.50   L191.43,341.25 L192.15,342.90 L192.87,344.44 L193.59,345.88 L194.31,347.22 L195.03,348.44 L195.75,349.55 L196.47,350.56   L197.20,351.44 L197.92,352.21 L198.64,352.87 L199.36,353.41 L200.08,353.83 L200.80,354.13 L201.52,354.25 L202.24,354.25   L202.96,354.25 L203.68,354.14 L204.40,353.85 L205.12,353.44 L205.84,352.90 L206.56,352.26 L207.28,351.49 L208.00,350.61   L208.72,349.62 L209.44,348.51 L210.16,347.29 L210.89,345.97 L211.61,344.53 L212.33,342.99 L213.05,341.35 L213.77,339.60   L214.49,337.76 L215.21,335.82 L215.93,333.79 L216.65,331.66 L217.37,329.45 L218.09,327.16 L218.81,324.78 L219.53,322.33   L220.25,319.80 L220.97,317.20 L221.69,314.54 L222.41,311.81 L223.13,309.02 L223.85,306.18 L224.58,303.28 L225.30,300.34   L226.02,297.35 L226.74,294.33 L227.46,291.27 L228.18,288.18 L228.90,285.06 L229.62,281.92 L230.34,278.76 L231.06,275.59   L231.78,272.41 L232.50,269.23 L233.22,266.05 L233.94,262.87 L234.66,259.70 L235.38,256.55 L236.10,253.41 L236.82,250.30   L237.54,247.21 L238.27,244.16 L238.99,241.14 L239.71,238.16 L240.43,235.22 L241.15,232.33 L241.87,229.50 L242.59,226.72   L243.31,224.00 L244.03,221.35 L244.75,218.76 L245.47,216.24 L246.19,213.80 L246.91,211.44 L247.63,209.16 L248.35,206.96   L249.07,204.85 L249.79,202.83 L250.51,200.91 L251.23,199.08 L251.96,197.35 L252.68,195.73 L253.40,194.20 L254.12,192.79   L254.84,191.48 L255.56,190.28 L256.28,189.19 L257.00,188.21 L257.72,187.35 L258.44,186.60 L259.16,185.97 L259.88,185.46   L260.60,185.07 L261.32,184.79 L262.04,184.73 L262.76,184.73 L263.48,184.73 L264.20,184.88 L264.92,185.20 L265.65,185.64   L266.37,186.20 L267.09,186.87 L267.81,187.66 L268.53,188.57 L269.25,189.59 L269.97,190.72 L270.69,191.96 L271.41,193.31   L272.13,194.77 L272.85,196.33 L273.57,198.00 L274.29,199.77 L275.01,201.63 L275.73,203.59 L276.45,205.64 L277.17,207.79   L277.89,210.02 L278.61,212.33 L279.34,214.72 L280.06,217.19 L280.78,219.73 L281.50,222.35 L282.22,225.03 L282.94,227.77   L283.66,230.57 L284.38,233.43 L285.10,236.33 L285.82,239.29 L286.54,242.28 L287.26,245.32 L287.98,248.38 L288.70,251.48   L289.42,254.60 L290.14,257.75 L290.86,260.91 L291.58,264.08 L292.31,267.26 L293.03,270.44 L293.75,273.62 L294.47,276.80   L295.19,279.96 L295.91,283.12 L296.63,286.25 L297.35,289.35 L298.07,292.44 L298.79,295.48 L299.51,298.49 L300.23,301.46   L300.95,304.39 L301.67,307.27 L302.39,310.09 L303.11,312.86 L303.83,315.56 L304.55,318.20 L305.27,320.77 L306.00,323.27   L306.72,325.70 L307.44,328.04 L308.16,330.31 L308.88,332.48 L309.60,334.57 L310.32,336.57 L311.04,338.47 L311.76,340.28   L312.48,341.98 L313.20,343.59 L313.92,345.09 L314.64,346.48 L315.36,347.77 L316.08,348.95 L316.80,350.01 L317.52,350.96   L318.24,351.80 L318.96,352.52 L319.69,353.12 L320.41,353.61 L321.13,353.97 L321.85,354.22 L322.57,354.25 L323.29,354.25   L324.01,354.25 L324.73,354.03 L325.45,353.68 L326.17,353.22 L326.89,352.63 L327.61,351.93 L328.33,351.12 L329.05,350.19   L329.77,349.14 L330.49,347.99 L331.21,346.72 L331.93,345.35 L332.65,343.87 L333.38,342.28 L334.10,340.59 L334.82,338.80   L335.54,336.92 L336.26,334.94 L336.98,332.86 L337.70,330.70 L338.42,328.45 L339.14,326.12 L339.86,323.71 L340.58,321.23   L341.30,318.67 L342.02,316.04 L342.74,313.35 L343.46,310.59 L344.18,307.78 L344.90,304.91 L345.62,301.99 L346.34,299.03   L347.07,296.03 L347.79,292.98 L348.51,289.91 L349.23,286.81 L349.95,283.68 L350.67,280.53 L351.39,277.37 L352.11,274.19   L352.83,271.01 L353.55,267.83 L354.27,264.65 L354.99,261.48 L355.71,258.31 L356.43,255.17 L357.15,252.04 L357.87,248.94   L358.59,245.86 L359.31,242.82 L360.03,239.82 L360.76,236.86 L361.48,233.94 L362.20,231.08 L362.92,228.27 L363.64,225.52   L364.36,222.82 L365.08,220.20 L365.80,217.64 L366.52,215.16 L367.24,212.75 L367.96,210.42 L368.68,208.18 L369.40,206.02   L370.12,203.95 L370.84,201.98 L371.56,200.09 L372.28,198.31 L373.00,196.63 L373.72,195.04 L374.45,193.57 L375.17,192.20   L375.89,190.93 L376.61,189.78 L377.33,188.74 L378.05,187.82 L378.77,187.01 L379.49,186.31 L380.21,185.73 L380.93,185.27   L381.65,184.93 L382.37,184.73 L383.09,184.73 L383.81,184.73 L384.53,184.76 L385.25,185.01 L385.97,185.38 L386.69,185.87   L387.42,186.48 L388.14,187.21 L388.86,188.05 L389.58,189.00 L390.30,190.07 L391.02,191.25 L391.74,192.54 L392.46,193.94   L393.18,195.45 L393.90,197.05 L394.62,198.77 L395.34,200.58 L396.06,202.48 L396.78,204.48 L397.50,206.58 L398.22,208.76   L398.94,211.02 L399.66,213.37 L400.38,215.80 L401.11,218.30 L401.83,220.88 L402.55,223.52 L403.27,226.23 L403.99,229.00   L404.71,231.82 L405.43,234.70 L406.15,237.63 L406.87,240.60 L407.59,243.61 L408.31,246.66 L409.03,249.74 L409.75,252.85   L410.47,255.98 L411.19,259.14 L411.91,262.30 L412.63,265.48 L413.35,268.66 L414.07,271.84 L414.80,275.02 L415.52,278.19   L416.24,281.35 L416.96,284.50 L417.68,287.62 L418.40,290.71 L419.12,293.78 L419.84,296.81 L420.56,299.81 L421.28,302.76   L422.00,305.66 L422.72,308.52 L423.44,311.31 L424.16,314.05 L424.88,316.73 L425.60,319.34 L426.32,321.88 L427.04,324.35   L427.76,326.74 L428.49,329.05 L429.21,331.27 L429.93,333.41 L430.65,335.46 L431.37,337.42 L432.09,339.28 L432.81,341.04   L433.53,342.70 L434.25,344.26 L434.97,345.72 L435.69,347.06 L436.41,348.30 L437.13,349.43 L437.85,350.44 L438.57,351.34   L439.29,352.13 L440.01,352.80 L440.73,353.35 L441.45,353.78 L442.18,354.10 L442.90,354.25 L443.62,354.25 L444.34,354.25   L445.06,354.17 L445.78,353.89 L446.50,353.49 L447.22,352.97 L447.94,352.34 L448.66,351.59 L449.38,350.72 L450.10,349.74   L450.82,348.65 L451.54,347.44 L452.26,346.13 L452.98,344.71 L453.70,343.18 L454.42,341.55 L455.14,339.82 L455.87,337.99   L456.59,336.06 L457.31,334.04 L458.03,331.92 L458.75,329.72 L459.47,327.44 L460.19,325.07 L460.91,322.63 L461.63,320.11   L462.35,317.52 L463.07,314.86 L463.79,312.14 L464.51,309.36 L465.23,306.52 L465.95,303.63 L466.67,300.69 L467.39,297.71   L468.11,294.69 L468.83,291.64 L469.56,288.55 L470.28,285.43 L471.00,282.30 L471.72,279.14 L472.44,275.97 L473.16,272.79   L473.88,269.61 L474.60,266.43 L475.32,263.25 L476.04,260.08 L476.76,256.93 L477.48,253.79 L478.20,250.67 L478.92,247.58   L479.64,244.52 L480.36,241.50 L481.08,238.51 L481.80,235.57 L482.53,232.68 L483.25,229.84 L483.97,227.05 L484.69,224.32   L485.41,221.66 L486.13,219.06 L486.85,216.54 L487.57,214.09 L488.29,211.72 L489.01,209.43 L489.73,207.22 L490.45,205.10   L491.17,203.07 L491.89,201.14 L492.61,199.30 L493.33,197.56 L494.05,195.92 L494.77,194.38 L495.49,192.95 L496.22,191.63   L496.94,190.41 L497.66,189.31 L498.38,188.32 L499.10,187.45 L499.82,186.69 L500.54,186.04 L501.26,185.52 L501.98,185.11   L502.70,184.82 L503.42,184.73 L504.14,184.73 L504.86,184.73 L505.58,184.85 L506.30,185.16 L507.02,185.58 L507.74,186.13   L508.46,186.79 L509.18,187.56 L509.91,188.45 L510.63,189.46 L511.35,190.58 L512.07,191.81 L512.79,193.15 L513.51,194.59   L514.23,196.14 L514.95,197.80 L515.67,199.55 L516.39,201.40 L517.11,203.35 L517.83,205.39 L518.55,207.52 L519.27,209.74   L519.99,212.05 L520.71,214.43 L521.43,216.89 L522.15,219.43 L522.87,222.03 L523.60,224.70 L524.32,227.44 L525.04,230.23   L525.76,233.08 L526.48,235.98 L527.20,238.93 L527.92,241.92 L528.64,244.95 L529.36,248.01 L530.08,251.11 L530.80,254.23   L531.52,257.37 L532.24,260.53 L532.96,263.70 L533.68,266.88 L534.40,270.06 L535.12,273.24 L535.84,276.42 L536.56,279.59   L537.29,282.74 L538.01,285.87 L538.73,288.98 L539.45,292.07 L540.17,295.12 L540.89,298.13 L541.61,301.11 L542.33,304.04   L543.05,306.92 L543.77,309.75 L544.49,312.53 L545.21,315.24 L545.93,317.89 L546.65,320.47 L547.37,322.98 L548.09,325.41   L548.81,327.77 L549.53,330.04 L550.25,332.23 L550.98,334.33 L551.70,336.33 L552.42,338.25 L553.14,340.07 L553.86,341.79   L554.58,343.40 L555.30,344.92 L556.02,346.32 L556.74,347.62 L557.46,348.81 L558.18,349.89 L558.90,350.85 L559.62,351.70   L560.34,352.44 L561.06,353.05 L561.78,353.55 L562.50,353.94 L563.22,354.20 L563.94,354.25 L564.67,354.25 L565.39,354.25   L566.11,354.06 L566.83,353.73 L567.55,353.28 L568.27,352.71 L568.99,352.02 L569.71,351.22 L570.43,350.31 L571.15,349.28   L571.87,348.13 L572.59,346.88 L573.31,345.52 L574.03,344.05 L574.75,342.48 L575.47,340.80 L576.19,339.02 L576.91,337.15   L577.64,335.18 L578.36,333.12 L579.08,330.97 L579.80,328.73 L580.52,326.41 L581.24,324.01 L581.96,321.53 L582.68,318.98   L583.40,316.36 L584.12,313.67 L584.84,310.92 L585.56,308.12 L586.28,305.26 L587.00,302.35 L587.72,299.39 L588.44,296.39   L589.16,293.35 L589.88,290.28 L590.60,287.18 L591.33,284.06 L592.05,280.91 L592.77,277.75 L593.49,274.57 L594.21,271.39   L594.93,268.21 L595.65,265.03 L596.37,261.86 L597.09,258.69 L597.81,255.54 L598.53,252.41 L599.25,249.31 L599.97,246.23   L600.69,243.19 L601.41,240.18 L602.13,237.21 L602.85,234.29 L603.57,231.42 L604.29,228.60 L605.02,225.84 L605.74,223.14   L606.46,220.51 L607.18,217.95 L607.90,215.45 L608.62,213.04 L609.34,210.70 L610.06,208.44 L610.78,206.28 L611.50,204.20   L612.22,202.21 L612.94,200.31 L613.66,198.52 L614.38,196.82 L615.10,195.23 L615.82,193.74 L616.54,192.35 L617.26,191.08   L617.98,189.92 L618.71,188.86 L619.43,187.92 L620.15,187.10 L620.87,186.39 L621.59,185.80 L622.31,185.32 L623.03,184.97   L623.75,184.73 L624.47,184.73 L625.19,184.73 L625.91,184.73 L626.63,184.97 L627.35,185.33 L628.07,185.81 L628.79,186.40   L629.51,187.11 L630.23,187.94 L630.95,188.88 L631.67,189.94 L632.40,191.11 L633.12,192.38 L633.84,193.77 L634.56,195.26   L635.28,196.86 L636.00,198.55 L636.72,200.35 L637.44,202.25 L638.16,204.24 L638.88,206.32 L639.60,208.49 L640.32,210.75   L641.04,213.09 L641.76,215.50 L642.48,218.00 L643.20,220.56 L643.92,223.20 L644.64,225.90 L645.36,228.66 L646.09,231.48   L646.81,234.35 L647.53,237.27 L648.25,240.24 L648.97,243.25 L649.69,246.29 L650.41,249.37 L651.13,252.48 L651.85,255.61   L652.57,258.76 L653.29,261.92 L654.01,265.10 L654.73,268.28 L655.45,271.46 L656.17,274.64 L656.89,277.81 L657.61,280.97   L658.33,284.12 L659.05,287.24 L659.78,290.34 L660.50,293.41 L661.22,296.45 L661.94,299.45 L662.66,302.41 L663.38,305.32   L664.10,308.18 L664.82,310.98 L665.54,313.73 L666.26,316.41 L666.98,319.03 L667.70,321.58 L668.42,324.06 L669.14,326.46   L669.86,328.78 L670.58,331.01 L671.30,333.16 L672.02,335.22 L672.75,337.19 L673.47,339.06 L674.19,340.84 L674.91,342.51   L675.63,344.08 L676.35,345.55 L677.07,346.91 L677.79,348.16 L678.51,349.30 L679.23,350.33 L679.95,351.24 L680.67,352.04   L681.39,352.72 L682.11,353.29 L682.83,353.74 L683.55,354.07 L684.27,354.25 L684.99,354.25 L685.71,354.25 L686.44,354.20   L687.16,353.93 L687.88,353.55 L688.60,353.04 L689.32,352.42 L690.04,351.69 L690.76,350.83 L691.48,349.87 L692.20,348.79   L692.92,347.60 L693.64,346.29 L694.36,344.88 L695.08,343.37 L695.80,341.75 L696.52,340.03 L697.24,338.21 L697.96,336.29   L698.68,334.28 L699.40,332.18 L700.13,329.99 L700.85,327.72 L701.57,325.36 L702.29,322.93 L703.01,320.42 L703.73,317.83   L704.45,315.18 L705.17,312.47 L705.89,309.70 L706.61,306.86 L707.33,303.98 L708.05,301.05 L708.77,298.07 L709.49,295.06   L710.21,292.00 L710.93,288.92 L711.65,285.81 L712.37,282.67 L713.09,279.52 L713.82,276.35 L714.54,273.18 L715.26,269.99   L715.98,266.81 L716.70,263.63 L717.42,260.46 L718.14,257.30 L718.86,254.16 L719.58,251.04 L720.30,247.95 L721.02,244.89   L721.74,241.86 L722.46,238.87 L723.18,235.92 L723.90,233.02 L724.62,230.17 L725.34,227.38 L726.06,224.65 L726.78,221.98   L727.51,219.37 L728.23,216.84 L728.95,214.38 L729.67,212.00 L730.39,209.70 L731.11,207.48 L731.83,205.35 L732.55,203.31   L733.27,201.36 L733.99,199.51 L734.71,197.76 L735.43,196.11 L736.15,194.56 L736.87,193.12 L737.59,191.78 L738.31,190.55   L739.03,189.44 L739.75,188.44 L740.47,187.55 L741.20,186.77 L741.92,186.11 L742.64,185.57 L743.36,185.15 L744.08,184.85   L744.80,184.73 L745.52,184.73 L746.24,184.73 L746.96,184.82 L747.68,185.12 L748.40,185.53 L749.12,186.06 L749.84,186.70   L750.56,187.46 L751.28,188.34 L752.00,189.33 L752.72,190.44 L753.44,191.65 L754.16,192.98 L754.89,194.41 L755.61,195.95   L756.33,197.59 L757.05,199.33 L757.77,201.18 L758.49,203.11 L759.21,205.14 L759.93,207.26 L760.65,209.47 L761.37,211.77   L762.09,214.14 L762.81,216.59 L763.53,219.12 L764.25,221.72 L764.97,224.38 L765.69,227.11 L766.41,229.89 L767.13,232.74   L767.86,235.63 L768.58,238.57 L769.30,241.56 L770.02,244.58 L770.74,247.64 L771.46,250.74 L772.18,253.85 L772.90,256.99   L773.62,260.15 L774.34,263.32  "
           id="path34" />
      </g>
    </g>
    <g
       id="gnuplot_plot_2">
      <title
         id="title35">Measured wave</title>
      <g
         fill="none"
         color="white"
         stroke="rgb( 86, 180, 233)"
         stroke-width="3.00"
         stroke-linecap="butt"
         stroke-linejoin="miter"
         id="g36" />
      <g
         fill="none"
         color="black"
         stroke="currentColor"
         stroke-width="3.00"
         stroke-linecap="butt"
         stroke-linejoin="miter"
         id="g38">
        <g
           transform="translate(707.09,57.91)"
           stroke="none"
           fill="black"
           font-family="Arial"
           font-size="12.00"
           text-anchor="end"
           id="g37">
          <text
             id="text36"><tspan
               font-family="Arial"
               id="tspan36">Measured wave</tspan></text>
        </g>
      </g>
      <g
         fill="none"
         color="black"
         stroke="currentColor"
         stroke-width="3.00"
         stroke-linecap="butt"
         stroke-linejoin="miter"
         id="g39">
        <path
           stroke="rgb(148,   0, 211)"
           d="M715.48,54.01 L758.04,54.01 M54.53,285.87 L55.01,285.87 L55.49,287.24 L55.97,287.24 L56.45,291.33 L56.93,292.69   L57.41,294.05 L57.89,299.50 L58.37,300.87 L58.85,298.14 L59.33,303.59 L59.81,304.96 L60.29,306.32 L60.77,310.41   L61.25,311.77 L61.73,314.50 L62.21,314.50 L62.69,317.23 L63.17,317.23 L63.65,318.59 L64.13,321.31 L64.61,324.04   L65.09,325.40 L65.57,326.77 L66.05,326.77 L66.53,329.49 L67.02,332.22 L67.50,330.86 L67.98,336.31 L68.46,334.95   L68.94,336.31 L69.42,334.95 L69.90,343.13 L70.38,340.40 L70.86,341.76 L71.34,340.40 L71.82,344.49 L72.30,345.85   L72.78,345.85 L73.26,347.22 L73.74,349.94 L74.22,349.94 L74.70,349.94 L75.18,352.67 L75.66,349.94 L76.14,351.30   L76.62,351.30 L77.10,354.03 L77.58,354.03 L78.06,354.03 L78.54,351.30 L79.02,354.03 L79.50,354.03 L79.98,354.03   L80.46,358.12 L80.94,354.03 L81.42,354.03 L81.90,354.03 L82.38,355.39 L82.86,356.76 L83.34,354.03 L83.82,354.03   L84.30,355.39 L84.78,354.03 L85.26,351.30 L85.74,351.30 L86.22,351.30 L86.70,349.94 L87.18,349.94 L87.66,351.30   L88.14,348.58 L88.62,348.58 L89.10,349.94 L89.58,347.22 L90.06,345.85 L90.54,344.49 L91.02,344.49 L91.50,343.13   L91.99,341.76 L92.47,340.40 L92.95,339.04 L93.43,337.67 L93.91,336.31 L94.39,336.31 L94.87,334.95 L95.35,333.58   L95.83,330.86 L96.31,329.49 L96.79,330.86 L97.27,326.77 L97.75,326.77 L98.23,324.04 L98.71,324.04 L99.19,321.31   L99.67,319.95 L100.15,318.59 L100.63,315.86 L101.11,313.14 L101.59,311.77 L102.07,309.05 L102.55,309.05 L103.03,304.96   L103.51,304.96 L103.99,303.59 L104.47,300.87 L104.95,299.50 L105.43,298.14 L105.91,294.05 L106.39,289.96 L106.87,289.96   L107.35,288.60 L107.83,287.24 L108.31,283.15 L108.79,283.15 L109.27,280.42 L109.75,277.69 L110.23,274.97 L110.71,274.97   L111.19,272.24 L111.67,270.88 L112.15,268.15 L112.63,265.42 L113.11,262.70 L113.59,259.97 L114.07,261.34 L114.55,257.25   L115.03,255.88 L115.51,251.79 L115.99,251.79 L116.47,246.34 L116.96,244.98 L117.44,244.98 L117.92,243.61 L118.40,240.89   L118.88,239.52 L119.36,239.52 L119.84,235.44 L120.32,232.71 L120.80,229.98 L121.28,231.35 L121.76,225.89 L122.24,224.53   L122.72,223.17 L123.20,221.80 L123.68,219.08 L124.16,220.44 L124.64,216.35 L125.12,214.99 L125.60,214.99 L126.08,210.90   L126.56,209.54 L127.04,209.54 L127.52,206.81 L128.00,206.81 L128.48,205.45 L128.96,202.72 L129.44,199.99 L129.92,199.99   L130.40,198.63 L130.88,197.27 L131.36,197.27 L131.84,195.90 L132.32,195.90 L132.80,194.54 L133.28,194.54 L133.76,193.18   L134.24,190.45 L134.72,191.81 L135.20,191.81 L135.68,189.09 L136.16,189.09 L136.64,186.36 L137.12,187.72 L137.60,186.36   L138.08,186.36 L138.56,183.63 L139.04,186.36 L139.52,185.00 L140.00,183.63 L140.48,186.36 L140.96,185.00 L141.44,186.36   L141.93,183.63 L142.41,185.00 L142.89,183.63 L143.37,183.63 L143.85,183.63 L144.33,185.00 L144.81,185.00 L145.29,186.36   L145.77,187.72 L146.25,187.72 L146.73,189.09 L147.21,186.36 L147.69,189.09 L148.17,190.45 L148.65,191.81 L149.13,191.81   L149.61,193.18 L150.09,193.18 L150.57,191.81 L151.05,194.54 L151.53,195.90 L152.01,195.90 L152.49,197.27 L152.97,197.27   L153.45,198.63 L153.93,199.99 L154.41,201.36 L154.89,202.72 L155.37,205.45 L155.85,205.45 L156.33,208.17 L156.81,208.17   L157.29,209.54 L157.77,210.90 L158.25,216.35 L158.73,214.99 L159.21,216.35 L159.69,219.08 L160.17,223.17 L160.65,221.80   L161.13,223.17 L161.61,224.53 L162.09,227.26 L162.57,228.62 L163.05,231.35 L163.53,234.07 L164.01,231.35 L164.49,236.80   L164.97,239.52 L165.45,242.25 L165.93,243.61 L166.42,243.61 L166.90,246.34 L167.38,249.07 L167.86,251.79 L168.34,253.16   L168.82,255.88 L169.30,258.61 L169.78,259.97 L170.26,261.34 L170.74,264.06 L171.22,266.79 L171.70,268.15 L172.18,270.88   L172.66,272.24 L173.14,274.97 L173.62,274.97 L174.10,279.06 L174.58,280.42 L175.06,281.78 L175.54,284.51 L176.02,288.60   L176.50,288.60 L176.98,291.33 L177.46,291.33 L177.94,295.41 L178.42,296.78 L178.90,298.14 L179.38,302.23 L179.86,302.23   L180.34,306.32 L180.82,306.32 L181.30,307.68 L181.78,311.77 L182.26,311.77 L182.74,314.50 L183.22,315.86 L183.70,318.59   L184.18,318.59 L184.66,322.68 L185.14,322.68 L185.62,324.04 L186.10,325.40 L186.58,329.49 L187.06,328.13 L187.54,329.49   L188.02,330.86 L188.50,333.58 L188.98,334.95 L189.46,336.31 L189.94,337.67 L190.42,339.04 L190.90,339.04 L191.39,340.40   L191.87,344.49 L192.35,343.13 L192.83,344.49 L193.31,347.22 L193.79,347.22 L194.27,347.22 L194.75,349.94 L195.23,349.94   L195.71,349.94 L196.19,349.94 L196.67,349.94 L197.15,352.67 L197.63,348.58 L198.11,351.30 L198.59,352.67 L199.07,354.03   L199.55,352.67 L200.03,354.03 L200.51,355.39 L200.99,354.03 L201.47,354.03 L201.95,354.03 L202.43,356.76 L202.91,352.67   L203.39,354.03 L203.87,359.48 L204.35,354.03 L204.83,349.94 L205.31,355.39 L205.79,354.03 L206.27,351.30 L206.75,351.30   L207.23,349.94 L207.71,351.30 L208.19,349.94 L208.67,349.94 L209.15,348.58 L209.63,349.94 L210.11,344.49 L210.59,349.94   L211.07,347.22 L211.55,347.22 L212.03,343.13 L212.51,344.49 L212.99,341.76 L213.47,339.04 L213.95,337.67 L214.43,339.04   L214.91,336.31 L215.39,336.31 L215.87,334.95 L216.36,333.58 L216.84,330.86 L217.32,329.49 L217.80,329.49 L218.28,326.77   L218.76,324.04 L219.24,322.68 L219.72,319.95 L220.20,319.95 L220.68,318.59 L221.16,317.23 L221.64,314.50 L222.12,314.50   L222.60,310.41 L223.08,310.41 L223.56,307.68 L224.04,304.96 L224.52,303.59 L225.00,302.23 L225.48,300.87 L225.96,296.78   L226.44,295.41 L226.92,291.33 L227.40,291.33 L227.88,287.24 L228.36,289.96 L228.84,287.24 L229.32,284.51 L229.80,280.42   L230.28,280.42 L230.76,277.69 L231.24,273.60 L231.72,273.60 L232.20,270.88 L232.68,268.15 L233.16,266.79 L233.64,262.70   L234.12,264.06 L234.60,258.61 L235.08,258.61 L235.56,257.25 L236.04,255.88 L236.52,249.07 L237.00,249.07 L237.48,246.34   L237.96,244.98 L238.44,243.61 L238.92,242.25 L239.40,239.52 L239.88,236.80 L240.36,236.80 L240.85,232.71 L241.33,231.35   L241.81,229.98 L242.29,228.62 L242.77,224.53 L243.25,224.53 L243.73,221.80 L244.21,220.44 L244.69,219.08 L245.17,217.71   L245.65,216.35 L246.13,213.62 L246.61,213.62 L247.09,209.54 L247.57,210.90 L248.05,208.17 L248.53,205.45 L249.01,204.08   L249.49,204.08 L249.97,202.72 L250.45,199.99 L250.93,199.99 L251.41,199.99 L251.89,197.27 L252.37,195.90 L252.85,195.90   L253.33,194.54 L253.81,194.54 L254.29,194.54 L254.77,193.18 L255.25,190.45 L255.73,191.81 L256.21,191.81 L256.69,190.45   L257.17,186.36 L257.65,189.09 L258.13,187.72 L258.61,186.36 L259.09,186.36 L259.57,185.00 L260.05,185.00 L260.53,183.63   L261.01,186.36 L261.49,186.36 L261.97,185.00 L262.45,186.36 L262.93,185.00 L263.41,185.00 L263.89,185.00 L264.37,185.00   L264.85,185.00 L265.33,186.36 L265.82,186.36 L266.30,186.36 L266.78,186.36 L267.26,186.36 L267.74,189.09 L268.22,189.09   L268.70,190.45 L269.18,190.45 L269.66,191.81 L270.14,190.45 L270.62,193.18 L271.10,194.54 L271.58,194.54 L272.06,195.90   L272.54,195.90 L273.02,198.63 L273.50,197.27 L273.98,198.63 L274.46,199.99 L274.94,204.08 L275.42,202.72 L275.90,206.81   L276.38,204.08 L276.86,206.81 L277.34,208.17 L277.82,209.54 L278.30,212.26 L278.78,214.99 L279.26,213.62 L279.74,216.35   L280.22,217.71 L280.70,214.99 L281.18,220.44 L281.66,223.17 L282.14,224.53 L282.62,224.53 L283.10,228.62 L283.58,229.98   L284.06,232.71 L284.54,234.07 L285.02,236.80 L285.50,236.80 L285.98,235.44 L286.46,244.98 L286.94,244.98 L287.42,244.98   L287.90,247.70 L288.38,251.79 L288.86,251.79 L289.34,254.52 L289.82,257.25 L290.30,258.61 L290.79,259.97 L291.27,264.06   L291.75,265.42 L292.23,266.79 L292.71,269.51 L293.19,272.24 L293.67,273.60 L294.15,274.97 L294.63,276.33 L295.11,279.06   L295.59,280.42 L296.07,281.78 L296.55,285.87 L297.03,288.60 L297.51,288.60 L297.99,291.33 L298.47,295.41 L298.95,296.78   L299.43,298.14 L299.91,299.50 L300.39,303.59 L300.87,304.96 L301.35,304.96 L301.83,309.05 L302.31,309.05 L302.79,310.41   L303.27,313.14 L303.75,314.50 L304.23,317.23 L304.71,319.95 L305.19,321.31 L305.67,321.31 L306.15,322.68 L306.63,328.13   L307.11,326.77 L307.59,329.49 L308.07,329.49 L308.55,330.86 L309.03,334.95 L309.51,333.58 L309.99,334.95 L310.47,336.31   L310.95,337.67 L311.43,339.04 L311.91,339.04 L312.39,341.76 L312.87,341.76 L313.35,344.49 L313.83,345.85 L314.31,344.49   L314.79,347.22 L315.27,347.22 L315.76,347.22 L316.24,349.94 L316.72,349.94 L317.20,349.94 L317.68,349.94 L318.16,349.94   L318.64,352.67 L319.12,351.30 L319.60,351.30 L320.08,354.03 L320.56,354.03 L321.04,352.67 L321.52,352.67 L322.00,354.03   L322.48,354.03 L322.96,352.67 L323.44,352.67 L323.92,355.39 L324.40,354.03 L324.88,352.67 L325.36,355.39 L325.84,352.67   L326.32,354.03 L326.80,351.30 L327.28,355.39 L327.76,352.67 L328.24,349.94 L328.72,349.94 L329.20,351.30 L329.68,349.94   L330.16,349.94 L330.64,347.22 L331.12,348.58 L331.60,347.22 L332.08,347.22 L332.56,345.85 L333.04,341.76 L333.52,341.76   L334.00,340.40 L334.48,339.04 L334.96,337.67 L335.44,337.67 L335.92,337.67 L336.40,334.95 L336.88,332.22 L337.36,332.22   L337.84,332.22 L338.32,328.13 L338.80,326.77 L339.28,325.40 L339.76,324.04 L340.25,321.31 L340.73,319.95 L341.21,317.23   L341.69,318.59 L342.17,315.86 L342.65,313.14 L343.13,310.41 L343.61,310.41 L344.09,310.41 L344.57,306.32 L345.05,304.96   L345.53,302.23 L346.01,300.87 L346.49,299.50 L346.97,294.05 L347.45,294.05 L347.93,289.96 L348.41,291.33 L348.89,288.60   L349.37,284.51 L349.85,283.15 L350.33,280.42 L350.81,281.78 L351.29,274.97 L351.77,273.60 L352.25,272.24 L352.73,272.24   L353.21,269.51 L353.69,266.79 L354.17,266.79 L354.65,262.70 L355.13,258.61 L355.61,258.61 L356.09,255.88 L356.57,253.16   L357.05,251.79 L357.53,249.07 L358.01,246.34 L358.49,243.61 L358.97,244.98 L359.45,242.25 L359.93,240.89 L360.41,239.52   L360.89,236.80 L361.37,234.07 L361.85,228.62 L362.33,231.35 L362.81,227.26 L363.29,225.89 L363.77,224.53 L364.25,224.53   L364.73,221.80 L365.22,220.44 L365.70,216.35 L366.18,216.35 L366.66,214.99 L367.14,212.26 L367.62,209.54 L368.10,210.90   L368.58,209.54 L369.06,206.81 L369.54,208.17 L370.02,202.72 L370.50,201.36 L370.98,199.99 L371.46,199.99 L371.94,198.63   L372.42,197.27 L372.90,195.90 L373.38,194.54 L373.86,194.54 L374.34,193.18 L374.82,193.18 L375.30,191.81 L375.78,191.81   L376.26,191.81 L376.74,190.45 L377.22,189.09 L377.70,189.09 L378.18,189.09 L378.66,186.36 L379.14,186.36 L379.62,186.36   L380.10,185.00 L380.58,185.00 L381.06,183.63 L381.54,185.00 L382.02,186.36 L382.50,183.63 L382.98,183.63 L383.46,183.63   L383.94,185.00 L384.42,185.00 L384.90,185.00 L385.38,185.00 L385.86,185.00 L386.34,185.00 L386.82,185.00 L387.30,186.36   L387.78,186.36 L388.26,186.36 L388.74,187.72 L389.22,190.45 L389.70,189.09 L390.19,190.45 L390.67,189.09 L391.15,191.81   L391.63,191.81 L392.11,191.81 L392.59,193.18 L393.07,194.54 L393.55,194.54 L394.03,197.27 L394.51,198.63 L394.99,199.99   L395.47,199.99 L395.95,199.99 L396.43,202.72 L396.91,205.45 L397.39,206.81 L397.87,208.17 L398.35,209.54 L398.83,210.90   L399.31,210.90 L399.79,213.62 L400.27,214.99 L400.75,216.35 L401.23,221.80 L401.71,220.44 L402.19,220.44 L402.67,221.80   L403.15,228.62 L403.63,227.26 L404.11,228.62 L404.59,232.71 L405.07,234.07 L405.55,236.80 L406.03,239.52 L406.51,242.25   L406.99,240.89 L407.47,242.25 L407.95,243.61 L408.43,250.43 L408.91,250.43 L409.39,250.43 L409.87,254.52 L410.35,257.25   L410.83,257.25 L411.31,259.97 L411.79,261.34 L412.27,264.06 L412.75,265.42 L413.23,268.15 L413.71,273.60 L414.19,273.60   L414.68,273.60 L415.16,274.97 L415.64,280.42 L416.12,280.42 L416.60,281.78 L417.08,284.51 L417.56,288.60 L418.04,288.60   L418.52,289.96 L419.00,292.69 L419.48,294.05 L419.96,296.78 L420.44,299.50 L420.92,300.87 L421.40,304.96 L421.88,306.32   L422.36,307.68 L422.84,306.32 L423.32,310.41 L423.80,311.77 L424.28,314.50 L424.76,315.86 L425.24,318.59 L425.72,319.95   L426.20,319.95 L426.68,321.31 L427.16,324.04 L427.64,326.77 L428.12,328.13 L428.60,329.49 L429.08,329.49 L429.56,332.22   L430.04,333.58 L430.52,334.95 L431.00,334.95 L431.48,337.67 L431.96,340.40 L432.44,340.40 L432.92,339.04 L433.40,341.76   L433.88,343.13 L434.36,344.49 L434.84,345.85 L435.32,344.49 L435.80,345.85 L436.28,348.58 L436.76,349.94 L437.24,349.94   L437.72,351.30 L438.20,351.30 L438.68,351.30 L439.16,351.30 L439.65,349.94 L440.13,354.03 L440.61,354.03 L441.09,352.67   L441.57,354.03 L442.05,355.39 L442.53,354.03 L443.01,355.39 L443.49,352.67 L443.97,354.03 L444.45,354.03 L444.93,354.03   L445.41,358.12 L445.89,354.03 L446.37,354.03 L446.85,352.67 L447.33,356.76 L447.81,352.67 L448.29,352.67 L448.77,351.30   L449.25,351.30 L449.73,349.94 L450.21,349.94 L450.69,349.94 L451.17,349.94 L451.65,347.22 L452.13,345.85 L452.61,349.94   L453.09,341.76 L453.57,343.13 L454.05,343.13 L454.53,341.76 L455.01,339.04 L455.49,337.67 L455.97,337.67 L456.45,337.67   L456.93,334.95 L457.41,333.58 L457.89,333.58 L458.37,330.86 L458.85,330.86 L459.33,326.77 L459.81,326.77 L460.29,322.68   L460.77,321.31 L461.25,321.31 L461.73,319.95 L462.21,318.59 L462.69,318.59 L463.17,314.50 L463.65,310.41 L464.13,311.77   L464.62,309.05 L465.10,306.32 L465.58,304.96 L466.06,303.59 L466.54,302.23 L467.02,300.87 L467.50,296.78 L467.98,296.78   L468.46,292.69 L468.94,289.96 L469.42,289.96 L469.90,287.24 L470.38,285.87 L470.86,280.42 L471.34,280.42 L471.82,279.06   L472.30,274.97 L472.78,273.60 L473.26,272.24 L473.74,270.88 L474.22,268.15 L474.70,266.79 L475.18,264.06 L475.66,259.97   L476.14,259.97 L476.62,257.25 L477.10,257.25 L477.58,254.52 L478.06,251.79 L478.54,249.07 L479.02,244.98 L479.50,243.61   L479.98,243.61 L480.46,240.89 L480.94,243.61 L481.42,236.80 L481.90,235.44 L482.38,232.71 L482.86,231.35 L483.34,229.98   L483.82,228.62 L484.30,228.62 L484.78,224.53 L485.26,221.80 L485.74,220.44 L486.22,217.71 L486.70,217.71 L487.18,214.99   L487.66,213.62 L488.14,210.90 L488.62,210.90 L489.10,208.17 L489.59,209.54 L490.07,205.45 L490.55,206.81 L491.03,202.72   L491.51,205.45 L491.99,197.27 L492.47,198.63 L492.95,198.63 L493.43,195.90 L493.91,195.90 L494.39,195.90 L494.87,194.54   L495.35,194.54 L495.83,191.81 L496.31,193.18 L496.79,191.81 L497.27,187.72 L497.75,189.09 L498.23,186.36 L498.71,187.72   L499.19,186.36 L499.67,186.36 L500.15,185.00 L500.63,186.36 L501.11,185.00 L501.59,185.00 L502.07,185.00 L502.55,180.91   L503.03,185.00 L503.51,183.63 L503.99,185.00 L504.47,183.63 L504.95,185.00 L505.43,185.00 L505.91,186.36 L506.39,185.00   L506.87,185.00 L507.35,187.72 L507.83,186.36 L508.31,187.72 L508.79,183.63 L509.27,186.36 L509.75,189.09 L510.23,190.45   L510.71,189.09 L511.19,190.45 L511.67,193.18 L512.15,191.81 L512.63,194.54 L513.11,194.54 L513.59,194.54 L514.08,194.54   L514.56,195.90 L515.04,198.63 L515.52,198.63 L516.00,201.36 L516.48,201.36 L516.96,202.72 L517.44,202.72 L517.92,208.17   L518.40,209.54 L518.88,209.54 L519.36,210.90 L519.84,210.90 L520.32,213.62 L520.80,213.62 L521.28,216.35 L521.76,219.08   L522.24,220.44 L522.72,221.80 L523.20,225.89 L523.68,224.53 L524.16,227.26 L524.64,228.62 L525.12,231.35 L525.60,231.35   L526.08,234.07 L526.56,235.44 L527.04,236.80 L527.52,240.89 L528.00,242.25 L528.48,246.34 L528.96,244.98 L529.44,249.07   L529.92,251.79 L530.40,253.16 L530.88,255.88 L531.36,257.25 L531.84,257.25 L532.32,261.34 L532.80,262.70 L533.28,264.06   L533.76,268.15 L534.24,268.15 L534.72,272.24 L535.20,272.24 L535.68,276.33 L536.16,274.97 L536.64,280.42 L537.12,280.42   L537.60,284.51 L538.08,285.87 L538.56,287.24 L539.05,291.33 L539.53,292.69 L540.01,292.69 L540.49,298.14 L540.97,299.50   L541.45,299.50 L541.93,303.59 L542.41,304.96 L542.89,304.96 L543.37,306.32 L543.85,309.05 L544.33,311.77 L544.81,313.14   L545.29,315.86 L545.77,318.59 L546.25,319.95 L546.73,319.95 L547.21,321.31 L547.69,325.40 L548.17,325.40 L548.65,324.04   L549.13,330.86 L549.61,329.49 L550.09,332.22 L550.57,332.22 L551.05,333.58 L551.53,334.95 L552.01,336.31 L552.49,337.67   L552.97,339.04 L553.45,340.40 L553.93,341.76 L554.41,340.40 L554.89,345.85 L555.37,345.85 L555.85,347.22 L556.33,348.58   L556.81,349.94 L557.29,349.94 L557.77,349.94 L558.25,351.30 L558.73,349.94 L559.21,351.30 L559.69,351.30 L560.17,355.39   L560.65,354.03 L561.13,354.03 L561.61,352.67 L562.09,354.03 L562.57,354.03 L563.05,354.03 L563.53,354.03 L564.02,355.39   L564.50,354.03 L564.98,354.03 L565.46,355.39 L565.94,354.03 L566.42,354.03 L566.90,352.67 L567.38,355.39 L567.86,352.67   L568.34,352.67 L568.82,351.30 L569.30,352.67 L569.78,349.94 L570.26,351.30 L570.74,348.58 L571.22,349.94 L571.70,349.94   L572.18,347.22 L572.66,347.22 L573.14,344.49 L573.62,344.49 L574.10,344.49 L574.58,341.76 L575.06,340.40 L575.54,339.04   L576.02,340.40 L576.50,336.31 L576.98,337.67 L577.46,334.95 L577.94,333.58 L578.42,330.86 L578.90,330.86 L579.38,330.86   L579.86,330.86 L580.34,322.68 L580.82,328.13 L581.30,324.04 L581.78,321.31 L582.26,319.95 L582.74,319.95 L583.22,317.23   L583.70,314.50 L584.18,311.77 L584.66,313.14 L585.14,309.05 L585.62,306.32 L586.10,307.68 L586.58,304.96 L587.06,300.87   L587.54,302.23 L588.02,299.50 L588.50,295.41 L588.99,292.69 L589.47,291.33 L589.95,289.96 L590.43,288.60 L590.91,287.24   L591.39,284.51 L591.87,280.42 L592.35,279.06 L592.83,277.69 L593.31,276.33 L593.79,272.24 L594.27,270.88 L594.75,268.15   L595.23,266.79 L595.71,265.42 L596.19,261.34 L596.67,259.97 L597.15,258.61 L597.63,257.25 L598.11,257.25 L598.59,251.79   L599.07,253.16 L599.55,250.43 L600.03,244.98 L600.51,243.61 L600.99,242.25 L601.47,239.52 L601.95,238.16 L602.43,235.44   L602.91,234.07 L603.39,231.35 L603.87,229.98 L604.35,228.62 L604.83,225.89 L605.31,224.53 L605.79,223.17 L606.27,224.53   L606.75,214.99 L607.23,219.08 L607.71,216.35 L608.19,214.99 L608.67,210.90 L609.15,210.90 L609.63,209.54 L610.11,209.54   L610.59,206.81 L611.07,206.81 L611.55,204.08 L612.03,202.72 L612.51,201.36 L612.99,198.63 L613.48,198.63 L613.96,195.90   L614.44,197.27 L614.92,194.54 L615.40,194.54 L615.88,194.54 L616.36,193.18 L616.84,191.81 L617.32,189.09 L617.80,191.81   L618.28,189.09 L618.76,189.09 L619.24,186.36 L619.72,189.09 L620.20,186.36 L620.68,186.36 L621.16,183.63 L621.64,187.72   L622.12,183.63 L622.60,183.63 L623.08,185.00 L623.56,185.00 L624.04,185.00 L624.52,183.63 L625.00,185.00 L625.48,185.00   L625.96,183.63 L626.44,183.63 L626.92,183.63 L627.40,185.00 L627.88,185.00 L628.36,185.00 L628.84,186.36 L629.32,187.72   L629.80,187.72 L630.28,189.09 L630.76,187.72 L631.24,189.09 L631.72,190.45 L632.20,191.81 L632.68,191.81 L633.16,191.81   L633.64,193.18 L634.12,194.54 L634.60,195.90 L635.08,195.90 L635.56,195.90 L636.04,197.27 L636.52,199.99 L637.00,202.72   L637.48,201.36 L637.96,205.45 L638.45,205.45 L638.93,208.17 L639.41,206.81 L639.89,210.90 L640.37,212.26 L640.85,210.90   L641.33,213.62 L641.81,216.35 L642.29,219.08 L642.77,219.08 L643.25,221.80 L643.73,220.44 L644.21,224.53 L644.69,224.53   L645.17,227.26 L645.65,229.98 L646.13,231.35 L646.61,234.07 L647.09,238.16 L647.57,235.44 L648.05,239.52 L648.53,240.89   L649.01,242.25 L649.49,246.34 L649.97,246.34 L650.45,249.07 L650.93,247.70 L651.41,254.52 L651.89,255.88 L652.37,258.61   L652.85,258.61 L653.33,261.34 L653.81,264.06 L654.29,268.15 L654.77,268.15 L655.25,270.88 L655.73,272.24 L656.21,272.24   L656.69,280.42 L657.17,279.06 L657.65,280.42 L658.13,281.78 L658.61,288.60 L659.09,287.24 L659.57,288.60 L660.05,291.33   L660.53,294.05 L661.01,296.78 L661.49,298.14 L661.97,300.87 L662.45,300.87 L662.93,302.23 L663.42,304.96 L663.90,309.05   L664.38,307.68 L664.86,310.41 L665.34,313.14 L665.82,315.86 L666.30,317.23 L666.78,317.23 L667.26,319.95 L667.74,319.95   L668.22,322.68 L668.70,324.04 L669.18,328.13 L669.66,326.77 L670.14,328.13 L670.62,330.86 L671.10,333.58 L671.58,334.95   L672.06,334.95 L672.54,334.95 L673.02,336.31 L673.50,339.04 L673.98,340.40 L674.46,340.40 L674.94,341.76 L675.42,341.76   L675.90,344.49 L676.38,344.49 L676.86,345.85 L677.34,347.22 L677.82,348.58 L678.30,349.94 L678.78,349.94 L679.26,349.94   L679.74,351.30 L680.22,351.30 L680.70,352.67 L681.18,354.03 L681.66,354.03 L682.14,352.67 L682.62,354.03 L683.10,354.03   L683.58,355.39 L684.06,354.03 L684.54,352.67 L685.02,354.03 L685.50,355.39 L685.98,354.03 L686.46,352.67 L686.94,354.03   L687.42,354.03 L687.91,351.30 L688.39,352.67 L688.87,351.30 L689.35,351.30 L689.83,351.30 L690.31,352.67 L690.79,349.94   L691.27,349.94 L691.75,349.94 L692.23,348.58 L692.71,347.22 L693.19,349.94 L693.67,348.58 L694.15,345.85 L694.63,344.49   L695.11,341.76 L695.59,344.49 L696.07,340.40 L696.55,337.67 L697.03,337.67 L697.51,339.04 L697.99,334.95 L698.47,334.95   L698.95,332.22 L699.43,332.22 L699.91,330.86 L700.39,328.13 L700.87,330.86 L701.35,326.77 L701.83,324.04 L702.31,319.95   L702.79,324.04 L703.27,319.95 L703.75,317.23 L704.23,315.86 L704.71,314.50 L705.19,313.14 L705.67,310.41 L706.15,311.77   L706.63,306.32 L707.11,304.96 L707.59,302.23 L708.07,303.59 L708.55,296.78 L709.03,296.78 L709.51,294.05 L709.99,292.69   L710.47,289.96 L710.95,287.24 L711.43,287.24 L711.91,283.15 L712.39,281.78 L712.88,281.78 L713.36,276.33 L713.84,273.60   L714.32,273.60 L714.80,272.24 L715.28,270.88 L715.76,266.79 L716.24,266.79 L716.72,261.34 L717.20,261.34 L717.68,258.61   L718.16,257.25 L718.64,254.52 L719.12,253.16 L719.60,250.43 L720.08,249.07 L720.56,246.34 L721.04,246.34 L721.52,243.61   L722.00,240.89 L722.48,238.16 L722.96,238.16 L723.44,234.07 L723.92,234.07 L724.40,229.98 L724.88,228.62 L725.36,225.89   L725.84,221.80 L726.32,224.53 L726.80,221.80 L727.28,219.08 L727.76,219.08 L728.24,214.99 L728.72,213.62 L729.20,213.62   L729.68,209.54 L730.16,210.90 L730.64,209.54 L731.12,209.54 L731.60,206.81 L732.08,202.72 L732.56,202.72 L733.04,199.99   L733.52,199.99 L734.00,197.27 L734.48,198.63 L734.96,195.90 L735.44,194.54 L735.92,194.54 L736.40,194.54 L736.88,191.81   L737.36,193.18 L737.85,191.81 L738.33,191.81 L738.81,190.45 L739.29,189.09 L739.77,193.18 L740.25,187.72 L740.73,187.72   L741.21,187.72 L741.69,186.36 L742.17,185.00 L742.65,183.63 L743.13,186.36 L743.61,186.36 L744.09,186.36 L744.57,185.00   L745.05,186.36 L745.53,186.36 L746.01,183.63 L746.49,183.63 L746.97,187.72 L747.45,182.27 L747.93,186.36 L748.41,183.63   L748.89,186.36 L749.37,186.36 L749.85,186.36 L750.33,189.09 L750.81,187.72 L751.29,189.09 L751.77,190.45 L752.25,190.45   L752.73,189.09 L753.21,191.81 L753.69,197.27 L754.17,193.18 L754.65,194.54 L755.13,194.54 L755.61,193.18 L756.09,197.27   L756.57,198.63 L757.05,198.63 L757.53,199.99 L758.01,199.99 L758.49,202.72 L758.97,206.81 L759.45,205.45 L759.93,208.17   L760.41,208.17 L760.89,209.54 L761.37,216.35 L761.85,217.71 L762.33,213.62 L762.82,216.35 L763.30,219.08 L763.78,220.44   L764.26,220.44 L764.74,224.53 L765.22,224.53 L765.70,227.26 L766.18,227.26 L766.66,225.89 L767.14,214.99 L767.62,229.98   L768.10,236.80 L768.58,239.52 L769.06,240.89 L769.54,242.25 L770.02,244.98 L770.50,246.34 L770.98,247.70 L771.46,253.16   L771.94,253.16 L772.42,255.88 L772.90,255.88 L773.38,261.34 L773.86,261.34 L774.34,264.06  "
           id="path38" />
      </g>
    </g>
    <g
       fill="none"
       color="white"
       stroke="rgb(148,   0, 211)"
       stroke-width="2.00"
       stroke-linecap="butt"
       stroke-linejoin="miter"
       id="g40" />
    <g
       fill="none"
       color="black"
       stroke="currentColor"
       stroke-width="2.00"
       stroke-linecap="butt"
       stroke-linejoin="miter"
       id="g41" />
    <g
       fill="none"
       color="black"
       stroke="black"
       stroke-width="1.00"
       stroke-linecap="butt"
       stroke-linejoin="miter"
       id="g42" />
    <g
       fill="none"
       color="black"
       stroke="currentColor"
       stroke-width="1.00"
       stroke-linecap="butt"
       stroke-linejoin="miter"
       id="g43">
      <path
         stroke="black"
         d="M54.53,18.01 L54.53,444.00 L774.82,444.00 L774.82,18.01 L54.53,18.01 Z  "
         id="path42" />
    </g>
    <g
       fill="none"
       color="black"
       stroke="currentColor"
       stroke-width="1.00"
       stroke-linecap="butt"
       stroke-linejoin="miter"
       id="g44" />
  </g>
  <metadata
     id="metadata44">
    <rdf:RDF>
      <cc:Work
         rdf:about="">
        <dc:title>Gnuplot</dc:title>
      </cc:Work>
    </rdf:RDF>
  </metadata>
</svg>
