<?xml version="1.0" encoding="UTF-8" standalone="no"?>
<svg
   width="800"
   height="480"
   viewBox="0 0 800 480"
   version="1.1"
   id="svg44"
   sodipodi:docname="gplot_15db.svg"
   inkscape:version="1.4.2 (ebf0e940d0, 2025-05-08)"
   xmlns:inkscape="http://www.inkscape.org/namespaces/inkscape"
   xmlns:sodipodi="http://sodipodi.sourceforge.net/DTD/sodipodi-0.dtd"
   xmlns:xlink="http://www.w3.org/1999/xlink"
   xmlns="http://www.w3.org/2000/svg"
   xmlns:svg="http://www.w3.org/2000/svg"
   xmlns:rdf="http://www.w3.org/1999/02/22-rdf-syntax-ns#"
   xmlns:cc="http://creativecommons.org/ns#"
   xmlns:dc="http://purl.org/dc/elements/1.1/">
  <defs
     id="defs44" />
  <sodipodi:namedview
     id="namedview44"
     pagecolor="#ffffff"
     bordercolor="#cccccc"
     borderopacity="1"
     inkscape:showpageshadow="0"
     inkscape:pageopacity="1"
     inkscape:pagecheckerboard="0"
     inkscape:deskcolor="#d1d1d1"
     inkscape:zoom="0.8549097"
     inkscape:cx="413.49396"
     inkscape:cy="251.48855"
     inkscape:window-width="1728"
     inkscape:window-height="1088"
     inkscape:window-x="0"
     inkscape:window-y="0"
     inkscape:window-maximized="1"
     inkscape:current-layer="svg44" />
  <title
     id="title1">Gnuplot</title>
  <desc
     id="desc1">Produced by GNUPLOT 6.0 patchlevel 3 </desc>
  <rect
     style="fill:#ffffff;stroke-width:3.77953;stroke-linecap:round;stroke-linejoin:bevel;paint-order:stroke markers fill"
     id="rect44"
     width="800"
     height="480"
     x="0"
     y="0" />
  <g
     id="gnuplot_canvas">
    <rect
       x="0"
       y="0"
       width="800"
       height="480"
       fill="none"
       id="rect1" />
    <defs
       id="defs2">
      <circle
         id="gpDot"
         r="0.5"
         stroke-width="0.5"
         stroke="currentColor" />
      <path
         id="gpPt0"
         stroke-width="0.222"
         stroke="currentColor"
         d="M-1,0 h2 M0,-1 v2" />
      <path
         id="gpPt1"
         stroke-width="0.222"
         stroke="currentColor"
         d="M-1,-1 L1,1 M1,-1 L-1,1" />
      <path
         id="gpPt2"
         stroke-width="0.222"
         stroke="currentColor"
         d="M-1,0 L1,0 M0,-1 L0,1 M-1,-1 L1,1 M-1,1 L1,-1" />
      <rect
         id="gpPt3"
         stroke-width="0.222"
         stroke="currentColor"
         x="-1"
         y="-1"
         width="2"
         height="2" />
      <rect
         id="gpPt4"
         stroke-width="0.222"
         stroke="currentColor"
         fill="currentColor"
         x="-1"
         y="-1"
         width="2"
         height="2" />
      <circle
         id="gpPt5"
         stroke-width="0.222"
         stroke="currentColor"
         cx="0"
         cy="0"
         r="1" />
      <use
         xlink:href="#gpPt5"
         id="gpPt6"
         fill="currentColor"
         stroke="none" />
      <path
         id="gpPt7"
         stroke-width="0.222"
         stroke="currentColor"
         d="M0,-1.33 L-1.33,0.67 L1.33,0.67 z" />
      <use
         xlink:href="#gpPt7"
         id="gpPt8"
         fill="currentColor"
         stroke="none" />
      <use
         xlink:href="#gpPt7"
         id="gpPt9"
         stroke="currentColor"
         transform="rotate(180)" />
      <use
         xlink:href="#gpPt9"
         id="gpPt10"
         fill="currentColor"
         stroke="none" />
      <use
         xlink:href="#gpPt3"
         id="gpPt11"
         stroke="currentColor"
         transform="rotate(45)" />
      <use
         xlink:href="#gpPt11"
         id="gpPt12"
         fill="currentColor"
         stroke="none" />
      <path
         id="gpPt13"
         stroke-width="0.222"
         stroke="currentColor"
         d="M0,1.330 L1.265,0.411 L0.782,-1.067 L-0.782,-1.076 L-1.265,0.411 z" />
      <use
         xlink:href="#gpPt13"
         id="gpPt14"
         fill="currentColor"
         stroke="none" />
      <filter
         id="textbox"
         filterUnits="objectBoundingBox"
         x="0"
         y="0"
         height="1"
         width="1">
        <feFlood
           flood-color="white"
           flood-opacity="1"
           result="bgnd"
           id="feFlood1" />
        <feComposite
           in="SourceGraphic"
           in2="bgnd"
           operator="atop"
           id="feComposite1" />
      </filter>
      <filter
         id="greybox"
         filterUnits="objectBoundingBox"
         x="0"
         y="0"
         height="1"
         width="1">
        <feFlood
           flood-color="lightgrey"
           flood-opacity="1"
           result="grey"
           id="feFlood2" />
        <feComposite
           in="SourceGraphic"
           in2="grey"
           operator="atop"
           id="feComposite2" />
      </filter>
    </defs>
    <g
       fill="none"
       color="white"
       stroke="black"
       stroke-width="1.00"
       stroke-linecap="butt"
       stroke-linejoin="miter"
       id="g2" />
    <g
       fill="none"
       color="black"
       stroke="currentColor"
       stroke-width="1.00"
       stroke-linecap="butt"
       stroke-linejoin="miter"
       id="g4">
      <path
         stroke="black"
         d="M54.53,444.00 L63.53,444.00 M774.82,444.00 L765.82,444.00  "
         id="path2" />
      <g
         transform="translate(46.14,447.90)"
         stroke="none"
         fill="black"
         font-family="Arial"
         font-size="12.00"
         text-anchor="end"
         id="g3">
        <text
           id="text2"><tspan
             font-family="Arial"
             id="tspan2">-1</tspan></text>
      </g>
    </g>
    <g
       fill="none"
       color="black"
       stroke="currentColor"
       stroke-width="1.00"
       stroke-linecap="butt"
       stroke-linejoin="miter"
       id="g6">
      <path
         stroke="black"
         d="M54.53,358.80 L63.53,358.80 M774.82,358.80 L765.82,358.80  "
         id="path4" />
      <g
         transform="translate(46.14,362.70)"
         stroke="none"
         fill="black"
         font-family="Arial"
         font-size="12.00"
         text-anchor="end"
         id="g5">
        <text
           id="text4"><tspan
             font-family="Arial"
             id="tspan4">-0.5</tspan></text>
      </g>
    </g>
    <g
       fill="none"
       color="black"
       stroke="currentColor"
       stroke-width="1.00"
       stroke-linecap="butt"
       stroke-linejoin="miter"
       id="g8">
      <path
         stroke="black"
         d="M54.53,273.60 L63.53,273.60 M774.82,273.60 L765.82,273.60  "
         id="path6" />
      <g
         transform="translate(46.14,277.50)"
         stroke="none"
         fill="black"
         font-family="Arial"
         font-size="12.00"
         text-anchor="end"
         id="g7">
        <text
           id="text6"><tspan
             font-family="Arial"
             id="tspan6"> 0</tspan></text>
      </g>
    </g>
    <g
       fill="none"
       color="black"
       stroke="currentColor"
       stroke-width="1.00"
       stroke-linecap="butt"
       stroke-linejoin="miter"
       id="g10">
      <path
         stroke="black"
         d="M54.53,188.41 L63.53,188.41 M774.82,188.41 L765.82,188.41  "
         id="path8" />
      <g
         transform="translate(46.14,192.31)"
         stroke="none"
         fill="black"
         font-family="Arial"
         font-size="12.00"
         text-anchor="end"
         id="g9">
        <text
           id="text8"><tspan
             font-family="Arial"
             id="tspan8"> 0.5</tspan></text>
      </g>
    </g>
    <g
       fill="none"
       color="black"
       stroke="currentColor"
       stroke-width="1.00"
       stroke-linecap="butt"
       stroke-linejoin="miter"
       id="g12">
      <path
         stroke="black"
         d="M54.53,103.21 L63.53,103.21 M774.82,103.21 L765.82,103.21  "
         id="path10" />
      <g
         transform="translate(46.14,107.11)"
         stroke="none"
         fill="black"
         font-family="Arial"
         font-size="12.00"
         text-anchor="end"
         id="g11">
        <text
           id="text10"><tspan
             font-family="Arial"
             id="tspan10"> 1</tspan></text>
      </g>
    </g>
    <g
       fill="none"
       color="black"
       stroke="currentColor"
       stroke-width="1.00"
       stroke-linecap="butt"
       stroke-linejoin="miter"
       id="g14">
      <path
         stroke="black"
         d="M54.53,18.01 L63.53,18.01 M774.82,18.01 L765.82,18.01  "
         id="path12" />
      <g
         transform="translate(46.14,21.91)"
         stroke="none"
         fill="black"
         font-family="Arial"
         font-size="12.00"
         text-anchor="end"
         id="g13">
        <text
           id="text12"><tspan
             font-family="Arial"
             id="tspan12"> 1.5</tspan></text>
      </g>
    </g>
    <g
       fill="none"
       color="black"
       stroke="currentColor"
       stroke-width="1.00"
       stroke-linecap="butt"
       stroke-linejoin="miter"
       id="g16">
      <path
         stroke="black"
         d="M54.53,444.00 L54.53,435.00 M54.53,18.01 L54.53,27.01  "
         id="path14" />
      <g
         transform="translate(54.53,465.90)"
         stroke="none"
         fill="black"
         font-family="Arial"
         font-size="12.00"
         text-anchor="middle"
         id="g15">
        <text
           id="text14"><tspan
             font-family="Arial"
             id="tspan14"> 0</tspan></text>
      </g>
    </g>
    <g
       fill="none"
       color="black"
       stroke="currentColor"
       stroke-width="1.00"
       stroke-linecap="butt"
       stroke-linejoin="miter"
       id="g18">
      <path
         stroke="black"
         d="M174.58,444.00 L174.58,435.00 M174.58,18.01 L174.58,27.01  "
         id="path16" />
      <g
         transform="translate(174.58,465.90)"
         stroke="none"
         fill="black"
         font-family="Arial"
         font-size="12.00"
         text-anchor="middle"
         id="g17">
        <text
           id="text16"><tspan
             font-family="Arial"
             id="tspan16"> 0.01</tspan></text>
      </g>
    </g>
    <g
       fill="none"
       color="black"
       stroke="currentColor"
       stroke-width="1.00"
       stroke-linecap="butt"
       stroke-linejoin="miter"
       id="g20">
      <path
         stroke="black"
         d="M294.63,444.00 L294.63,435.00 M294.63,18.01 L294.63,27.01  "
         id="path18" />
      <g
         transform="translate(294.63,465.90)"
         stroke="none"
         fill="black"
         font-family="Arial"
         font-size="12.00"
         text-anchor="middle"
         id="g19">
        <text
           id="text18"><tspan
             font-family="Arial"
             id="tspan18"> 0.02</tspan></text>
      </g>
    </g>
    <g
       fill="none"
       color="black"
       stroke="currentColor"
       stroke-width="1.00"
       stroke-linecap="butt"
       stroke-linejoin="miter"
       id="g22">
      <path
         stroke="black"
         d="M414.68,444.00 L414.68,435.00 M414.68,18.01 L414.68,27.01  "
         id="path20" />
      <g
         transform="translate(414.68,465.90)"
         stroke="none"
         fill="black"
         font-family="Arial"
         font-size="12.00"
         text-anchor="middle"
         id="g21">
        <text
           id="text20"><tspan
             font-family="Arial"
             id="tspan20"> 0.03</tspan></text>
      </g>
    </g>
    <g
       fill="none"
       color="black"
       stroke="currentColor"
       stroke-width="1.00"
       stroke-linecap="butt"
       stroke-linejoin="miter"
       id="g24">
      <path
         stroke="black"
         d="M534.72,444.00 L534.72,435.00 M534.72,18.01 L534.72,27.01  "
         id="path22" />
      <g
         transform="translate(534.72,465.90)"
         stroke="none"
         fill="black"
         font-family="Arial"
         font-size="12.00"
         text-anchor="middle"
         id="g23">
        <text
           id="text22"><tspan
             font-family="Arial"
             id="tspan22"> 0.04</tspan></text>
      </g>
    </g>
    <g
       fill="none"
       color="black"
       stroke="currentColor"
       stroke-width="1.00"
       stroke-linecap="butt"
       stroke-linejoin="miter"
       id="g26">
      <path
         stroke="black"
         d="M654.77,444.00 L654.77,435.00 M654.77,18.01 L654.77,27.01  "
         id="path24" />
      <g
         transform="translate(654.77,465.90)"
         stroke="none"
         fill="black"
         font-family="Arial"
         font-size="12.00"
         text-anchor="middle"
         id="g25">
        <text
           id="text24"><tspan
             font-family="Arial"
             id="tspan24"> 0.05</tspan></text>
      </g>
    </g>
    <g
       fill="none"
       color="black"
       stroke="currentColor"
       stroke-width="1.00"
       stroke-linecap="butt"
       stroke-linejoin="miter"
       id="g28">
      <path
         stroke="black"
         d="M774.82,444.00 L774.82,435.00 M774.82,18.01 L774.82,27.01  "
         id="path26" />
      <g
         transform="translate(774.82,465.90)"
         stroke="none"
         fill="black"
         font-family="Arial"
         font-size="12.00"
         text-anchor="middle"
         id="g27">
        <text
           id="text26"><tspan
             font-family="Arial"
             id="tspan26"> 0.06</tspan></text>
      </g>
    </g>
    <g
       fill="none"
       color="black"
       stroke="currentColor"
       stroke-width="1.00"
       stroke-linecap="butt"
       stroke-linejoin="miter"
       id="g29" />
    <g
       fill="none"
       color="black"
       stroke="currentColor"
       stroke-width="1.00"
       stroke-linecap="butt"
       stroke-linejoin="miter"
       id="g30">
      <path
         stroke="black"
         d="M54.53,18.01 L54.53,444.00 L774.82,444.00 L774.82,18.01 L54.53,18.01 Z  "
         id="path29" />
    </g>
    <g
       fill="none"
       color="black"
       stroke="currentColor"
       stroke-width="1.00"
       stroke-linecap="butt"
       stroke-linejoin="miter"
       id="g31" />
    <g
       id="gnuplot_plot_1">
      <title
         id="title31">Fitted ideal clipped sin()</title>
      <g
         fill="none"
         color="white"
         stroke="black"
         stroke-width="10.00"
         stroke-linecap="butt"
         stroke-linejoin="miter"
         id="g32" />
      <g
         fill="none"
         color="black"
         stroke="currentColor"
         stroke-width="10.00"
         stroke-linecap="butt"
         stroke-linejoin="miter"
         id="g34">
        <g
           transform="translate(707.09,39.91)"
           stroke="none"
           fill="black"
           font-family="Arial"
           font-size="12.00"
           text-anchor="end"
           id="g33">
          <text
             id="text32"><tspan
               font-family="Arial"
               id="tspan32">Fitted ideal clipped sin()</tspan></text>
        </g>
      </g>
      <g
         fill="none"
         color="black"
         stroke="currentColor"
         stroke-width="10.00"
         stroke-linecap="butt"
         stroke-linejoin="miter"
         id="g35">
        <path
           stroke="rgb( 86, 180, 233)"
           d="M715.48,36.01 L758.04,36.01 M54.53,326.93 L55.25,339.39 L55.97,351.75 L56.69,364.00 L57.41,376.11 L58.13,388.07   L58.85,399.87 L59.57,411.48 L60.29,422.89 L61.01,434.09 L61.74,438.11 L62.46,438.11 L63.18,438.11 L63.90,438.11   L64.62,438.11 L65.34,438.11 L66.06,438.11 L66.78,438.11 L67.50,438.11 L68.22,438.11 L68.94,438.11 L69.66,438.11   L70.38,438.11 L71.10,438.11 L71.82,438.11 L72.54,438.11 L73.26,438.11 L73.98,438.11 L74.70,438.11 L75.43,438.11   L76.15,438.11 L76.87,438.11 L77.59,438.11 L78.31,438.11 L79.03,438.11 L79.75,438.11 L80.47,438.11 L81.19,438.11   L81.91,438.11 L82.63,438.11 L83.35,438.11 L84.07,438.11 L84.79,438.11 L85.51,438.11 L86.23,438.11 L86.95,438.11   L87.67,438.11 L88.39,438.11 L89.12,438.11 L89.84,438.11 L90.56,438.11 L91.28,438.11 L92.00,438.11 L92.72,438.11   L93.44,438.11 L94.16,438.11 L94.88,438.11 L95.60,438.11 L96.32,438.11 L97.04,438.11 L97.76,438.11 L98.48,438.11   L99.20,438.11 L99.92,438.11 L100.64,438.11 L101.36,438.11 L102.09,430.43 L102.81,419.16 L103.53,407.68 L104.25,396.01   L104.97,384.16 L105.69,372.14 L106.41,359.99 L107.13,347.70 L107.85,335.31 L108.57,322.82 L109.29,310.25 L110.01,297.63   L110.73,284.97 L111.45,272.29 L112.17,259.61 L112.89,246.94 L113.61,234.30 L114.33,221.70 L115.05,209.18 L115.78,196.74   L116.50,184.41 L117.22,172.19 L117.94,160.11 L118.66,148.18 L119.38,136.43 L120.10,124.86 L120.82,113.49 L121.54,102.35   L122.26,100.80 L122.98,100.80 L123.70,100.80 L124.42,100.80 L125.14,100.80 L125.86,100.80 L126.58,100.80 L127.30,100.80   L128.02,100.80 L128.74,100.80 L129.47,100.80 L130.19,100.80 L130.91,100.80 L131.63,100.80 L132.35,100.80 L133.07,100.80   L133.79,100.80 L134.51,100.80 L135.23,100.80 L135.95,100.80 L136.67,100.80 L137.39,100.80 L138.11,100.80 L138.83,100.80   L139.55,100.80 L140.27,100.80 L140.99,100.80 L141.71,100.80 L142.43,100.80 L143.16,100.80 L143.88,100.80 L144.60,100.80   L145.32,100.80 L146.04,100.80 L146.76,100.80 L147.48,100.80 L148.20,100.80 L148.92,100.80 L149.64,100.80 L150.36,100.80   L151.08,100.80 L151.80,100.80 L152.52,100.80 L153.24,100.80 L153.96,100.80 L154.68,100.80 L155.40,100.80 L156.12,100.80   L156.85,100.80 L157.57,100.80 L158.29,100.80 L159.01,100.80 L159.73,100.80 L160.45,100.80 L161.17,100.80 L161.89,100.80   L162.61,110.99 L163.33,122.31 L164.05,133.83 L164.77,145.55 L165.49,157.44 L166.21,169.49 L166.93,181.67 L167.65,193.99   L168.37,206.40 L169.09,218.91 L169.81,231.49 L170.54,244.12 L171.26,256.78 L171.98,269.47 L172.70,282.15 L173.42,294.82   L174.14,307.45 L174.86,320.03 L175.58,332.53 L176.30,344.95 L177.02,357.26 L177.74,369.45 L178.46,381.50 L179.18,393.39   L179.90,405.10 L180.62,416.63 L181.34,427.94 L182.06,438.11 L182.78,438.11 L183.50,438.11 L184.23,438.11 L184.95,438.11   L185.67,438.11 L186.39,438.11 L187.11,438.11 L187.83,438.11 L188.55,438.11 L189.27,438.11 L189.99,438.11 L190.71,438.11   L191.43,438.11 L192.15,438.11 L192.87,438.11 L193.59,438.11 L194.31,438.11 L195.03,438.11 L195.75,438.11 L196.47,438.11   L197.20,438.11 L197.92,438.11 L198.64,438.11 L199.36,438.11 L200.08,438.11 L200.80,438.11 L201.52,438.11 L202.24,438.11   L202.96,438.11 L203.68,438.11 L204.40,438.11 L205.12,438.11 L205.84,438.11 L206.56,438.11 L207.28,438.11 L208.00,438.11   L208.72,438.11 L209.44,438.11 L210.16,438.11 L210.89,438.11 L211.61,438.11 L212.33,438.11 L213.05,438.11 L213.77,438.11   L214.49,438.11 L215.21,438.11 L215.93,438.11 L216.65,438.11 L217.37,438.11 L218.09,438.11 L218.81,438.11 L219.53,438.11   L220.25,438.11 L220.97,438.11 L221.69,438.11 L222.41,436.55 L223.13,425.41 L223.85,414.04 L224.58,402.47 L225.30,390.71   L226.02,378.79 L226.74,366.71 L227.46,354.49 L228.18,342.15 L228.90,329.71 L229.62,317.19 L230.34,304.60 L231.06,291.96   L231.78,279.29 L232.50,266.60 L233.22,253.92 L233.94,241.26 L234.66,228.64 L235.38,216.08 L236.10,203.59 L236.82,191.19   L237.54,178.91 L238.27,166.75 L238.99,154.74 L239.71,142.89 L240.43,131.21 L241.15,119.73 L241.87,108.46 L242.59,100.80   L243.31,100.80 L244.03,100.80 L244.75,100.80 L245.47,100.80 L246.19,100.80 L246.91,100.80 L247.63,100.80 L248.35,100.80   L249.07,100.80 L249.79,100.80 L250.51,100.80 L251.23,100.80 L251.96,100.80 L252.68,100.80 L253.40,100.80 L254.12,100.80   L254.84,100.80 L255.56,100.80 L256.28,100.80 L257.00,100.80 L257.72,100.80 L258.44,100.80 L259.16,100.80 L259.88,100.80   L260.60,100.80 L261.32,100.80 L262.04,100.80 L262.76,100.80 L263.48,100.80 L264.20,100.80 L264.92,100.80 L265.65,100.80   L266.37,100.80 L267.09,100.80 L267.81,100.80 L268.53,100.80 L269.25,100.80 L269.97,100.80 L270.69,100.80 L271.41,100.80   L272.13,100.80 L272.85,100.80 L273.57,100.80 L274.29,100.80 L275.01,100.80 L275.73,100.80 L276.45,100.80 L277.17,100.80   L277.89,100.80 L278.61,100.80 L279.34,100.80 L280.06,100.80 L280.78,100.80 L281.50,100.80 L282.22,100.80 L282.94,104.84   L283.66,116.04 L284.38,127.45 L285.10,139.07 L285.82,150.86 L286.54,162.82 L287.26,174.94 L287.98,187.18 L288.70,199.54   L289.42,212.00 L290.14,224.54 L290.86,237.15 L291.58,249.80 L292.31,262.47 L293.03,275.16 L293.75,287.84 L294.47,300.49   L295.19,313.10 L295.91,325.65 L296.63,338.11 L297.35,350.49 L298.07,362.74 L298.79,374.87 L299.51,386.85 L300.23,398.66   L300.95,410.30 L301.67,421.73 L302.39,432.95 L303.11,438.11 L303.83,438.11 L304.55,438.11 L305.27,438.11 L306.00,438.11   L306.72,438.11 L307.44,438.11 L308.16,438.11 L308.88,438.11 L309.60,438.11 L310.32,438.11 L311.04,438.11 L311.76,438.11   L312.48,438.11 L313.20,438.11 L313.92,438.11 L314.64,438.11 L315.36,438.11 L316.08,438.11 L316.80,438.11 L317.52,438.11   L318.24,438.11 L318.96,438.11 L319.69,438.11 L320.41,438.11 L321.13,438.11 L321.85,438.11 L322.57,438.11 L323.29,438.11   L324.01,438.11 L324.73,438.11 L325.45,438.11 L326.17,438.11 L326.89,438.11 L327.61,438.11 L328.33,438.11 L329.05,438.11   L329.77,438.11 L330.49,438.11 L331.21,438.11 L331.93,438.11 L332.65,438.11 L333.38,438.11 L334.10,438.11 L334.82,438.11   L335.54,438.11 L336.26,438.11 L336.98,438.11 L337.70,438.11 L338.42,438.11 L339.14,438.11 L339.86,438.11 L340.58,438.11   L341.30,438.11 L342.02,438.11 L342.74,438.11 L343.46,431.58 L344.18,420.33 L344.90,408.87 L345.62,397.22 L346.34,385.38   L347.07,373.39 L347.79,361.24 L348.51,348.97 L349.23,336.58 L349.95,324.10 L350.67,311.55 L351.39,298.93 L352.11,286.28   L352.83,273.60 L353.55,260.91 L354.27,248.24 L354.99,235.59 L355.71,223.00 L356.43,210.46 L357.15,198.02 L357.87,185.67   L358.59,173.44 L359.31,161.34 L360.03,149.40 L360.76,137.63 L361.48,126.04 L362.20,114.65 L362.92,103.48 L363.64,100.80   L364.36,100.80 L365.08,100.80 L365.80,100.80 L366.52,100.80 L367.24,100.80 L367.96,100.80 L368.68,100.80 L369.40,100.80   L370.12,100.80 L370.84,100.80 L371.56,100.80 L372.28,100.80 L373.00,100.80 L373.72,100.80 L374.45,100.80 L375.17,100.80   L375.89,100.80 L376.61,100.80 L377.33,100.80 L378.05,100.80 L378.77,100.80 L379.49,100.80 L380.21,100.80 L380.93,100.80   L381.65,100.80 L382.37,100.80 L383.09,100.80 L383.81,100.80 L384.53,100.80 L385.25,100.80 L385.97,100.80 L386.69,100.80   L387.42,100.80 L388.14,100.80 L388.86,100.80 L389.58,100.80 L390.30,100.80 L391.02,100.80 L391.74,100.80 L392.46,100.80   L393.18,100.80 L393.90,100.80 L394.62,100.80 L395.34,100.80 L396.06,100.80 L396.78,100.80 L397.50,100.80 L398.22,100.80   L398.94,100.80 L399.66,100.80 L400.38,100.80 L401.11,100.80 L401.83,100.80 L402.55,100.80 L403.27,100.80 L403.99,109.84   L404.71,121.13 L405.43,132.64 L406.15,144.34 L406.87,156.21 L407.59,168.24 L408.31,180.42 L409.03,192.72 L409.75,205.12   L410.47,217.62 L411.19,230.19 L411.91,242.82 L412.63,255.48 L413.35,268.16 L414.07,280.85 L414.80,293.52 L415.52,306.15   L416.24,318.74 L416.96,331.25 L417.68,343.68 L418.40,356.00 L419.12,368.20 L419.84,380.26 L420.56,392.17 L421.28,403.91   L422.00,415.45 L422.72,426.79 L423.44,437.91 L424.16,438.11 L424.88,438.11 L425.60,438.11 L426.32,438.11 L427.04,438.11   L427.76,438.11 L428.49,438.11 L429.21,438.11 L429.93,438.11 L430.65,438.11 L431.37,438.11 L432.09,438.11 L432.81,438.11   L433.53,438.11 L434.25,438.11 L434.97,438.11 L435.69,438.11 L436.41,438.11 L437.13,438.11 L437.85,438.11 L438.57,438.11   L439.29,438.11 L440.01,438.11 L440.73,438.11 L441.45,438.11 L442.18,438.11 L442.90,438.11 L443.62,438.11 L444.34,438.11   L445.06,438.11 L445.78,438.11 L446.50,438.11 L447.22,438.11 L447.94,438.11 L448.66,438.11 L449.38,438.11 L450.10,438.11   L450.82,438.11 L451.54,438.11 L452.26,438.11 L452.98,438.11 L453.70,438.11 L454.42,438.11 L455.14,438.11 L455.87,438.11   L456.59,438.11 L457.31,438.11 L458.03,438.11 L458.75,438.11 L459.47,438.11 L460.19,438.11 L460.91,438.11 L461.63,438.11   L462.35,438.11 L463.07,438.11 L463.79,437.68 L464.51,426.56 L465.23,415.22 L465.95,403.67 L466.67,391.93 L467.39,380.02   L468.11,367.95 L468.83,355.75 L469.56,343.43 L470.28,331.00 L471.00,318.48 L471.72,305.90 L472.44,293.26 L473.16,280.59   L473.88,267.91 L474.60,255.22 L475.32,242.56 L476.04,229.93 L476.76,217.36 L477.48,204.87 L478.20,192.46 L478.92,180.17   L479.64,167.99 L480.36,155.97 L481.08,144.10 L481.80,132.40 L482.53,120.90 L483.25,109.61 L483.97,100.80 L484.69,100.80   L485.41,100.80 L486.13,100.80 L486.85,100.80 L487.57,100.80 L488.29,100.80 L489.01,100.80 L489.73,100.80 L490.45,100.80   L491.17,100.80 L491.89,100.80 L492.61,100.80 L493.33,100.80 L494.05,100.80 L494.77,100.80 L495.49,100.80 L496.22,100.80   L496.94,100.80 L497.66,100.80 L498.38,100.80 L499.10,100.80 L499.82,100.80 L500.54,100.80 L501.26,100.80 L501.98,100.80   L502.70,100.80 L503.42,100.80 L504.14,100.80 L504.86,100.80 L505.58,100.80 L506.30,100.80 L507.02,100.80 L507.74,100.80   L508.46,100.80 L509.18,100.80 L509.91,100.80 L510.63,100.80 L511.35,100.80 L512.07,100.80 L512.79,100.80 L513.51,100.80   L514.23,100.80 L514.95,100.80 L515.67,100.80 L516.39,100.80 L517.11,100.80 L517.83,100.80 L518.55,100.80 L519.27,100.80   L519.99,100.80 L520.71,100.80 L521.43,100.80 L522.15,100.80 L522.87,100.80 L523.60,100.80 L524.32,103.71 L525.04,114.88   L525.76,126.27 L526.48,137.86 L527.20,149.64 L527.92,161.59 L528.64,173.69 L529.36,185.92 L530.08,198.27 L530.80,210.72   L531.52,223.25 L532.24,235.85 L532.96,248.49 L533.68,261.17 L534.40,273.86 L535.12,286.54 L535.84,299.19 L536.56,311.81   L537.29,324.36 L538.01,336.84 L538.73,349.22 L539.45,361.49 L540.17,373.63 L540.89,385.63 L541.61,397.46 L542.33,409.11   L543.05,420.56 L543.77,431.81 L544.49,438.11 L545.21,438.11 L545.93,438.11 L546.65,438.11 L547.37,438.11 L548.09,438.11   L548.81,438.11 L549.53,438.11 L550.25,438.11 L550.98,438.11 L551.70,438.11 L552.42,438.11 L553.14,438.11 L553.86,438.11   L554.58,438.11 L555.30,438.11 L556.02,438.11 L556.74,438.11 L557.46,438.11 L558.18,438.11 L558.90,438.11 L559.62,438.11   L560.34,438.11 L561.06,438.11 L561.78,438.11 L562.50,438.11 L563.22,438.11 L563.94,438.11 L564.67,438.11 L565.39,438.11   L566.11,438.11 L566.83,438.11 L567.55,438.11 L568.27,438.11 L568.99,438.11 L569.71,438.11 L570.43,438.11 L571.15,438.11   L571.87,438.11 L572.59,438.11 L573.31,438.11 L574.03,438.11 L574.75,438.11 L575.47,438.11 L576.19,438.11 L576.91,438.11   L577.64,438.11 L578.36,438.11 L579.08,438.11 L579.80,438.11 L580.52,438.11 L581.24,438.11 L581.96,438.11 L582.68,438.11   L583.40,438.11 L584.12,438.11 L584.84,432.72 L585.56,421.50 L586.28,410.06 L587.00,398.42 L587.72,386.61 L588.44,374.63   L589.16,362.50 L589.88,350.24 L590.60,337.86 L591.33,325.39 L592.05,312.84 L592.77,300.23 L593.49,287.58 L594.21,274.90   L594.93,262.21 L595.65,249.54 L596.37,236.89 L597.09,224.29 L597.81,211.75 L598.53,199.29 L599.25,186.93 L599.97,174.69   L600.69,162.58 L601.41,150.62 L602.13,138.83 L602.85,127.22 L603.57,115.81 L604.29,104.62 L605.02,100.80 L605.74,100.80   L606.46,100.80 L607.18,100.80 L607.90,100.80 L608.62,100.80 L609.34,100.80 L610.06,100.80 L610.78,100.80 L611.50,100.80   L612.22,100.80 L612.94,100.80 L613.66,100.80 L614.38,100.80 L615.10,100.80 L615.82,100.80 L616.54,100.80 L617.26,100.80   L617.98,100.80 L618.71,100.80 L619.43,100.80 L620.15,100.80 L620.87,100.80 L621.59,100.80 L622.31,100.80 L623.03,100.80   L623.75,100.80 L624.47,100.80 L625.19,100.80 L625.91,100.80 L626.63,100.80 L627.35,100.80 L628.07,100.80 L628.79,100.80   L629.51,100.80 L630.23,100.80 L630.95,100.80 L631.67,100.80 L632.40,100.80 L633.12,100.80 L633.84,100.80 L634.56,100.80   L635.28,100.80 L636.00,100.80 L636.72,100.80 L637.44,100.80 L638.16,100.80 L638.88,100.80 L639.60,100.80 L640.32,100.80   L641.04,100.80 L641.76,100.80 L642.48,100.80 L643.20,100.80 L643.92,100.80 L644.64,100.80 L645.36,108.69 L646.09,119.96   L646.81,131.45 L647.53,143.13 L648.25,154.98 L648.97,167.00 L649.69,179.16 L650.41,191.45 L651.13,203.84 L651.85,216.33   L652.57,228.90 L653.29,241.52 L654.01,254.18 L654.73,266.86 L655.45,279.55 L656.17,292.22 L656.89,304.86 L657.61,317.45   L658.33,329.97 L659.05,342.41 L659.78,354.74 L660.50,366.95 L661.22,379.03 L661.94,390.96 L662.66,402.71 L663.38,414.27   L664.10,425.63 L664.82,436.78 L665.54,438.11 L666.26,438.11 L666.98,438.11 L667.70,438.11 L668.42,438.11 L669.14,438.11   L669.86,438.11 L670.58,438.11 L671.30,438.11 L672.02,438.11 L672.75,438.11 L673.47,438.11 L674.19,438.11 L674.91,438.11   L675.63,438.11 L676.35,438.11 L677.07,438.11 L677.79,438.11 L678.51,438.11 L679.23,438.11 L679.95,438.11 L680.67,438.11   L681.39,438.11 L682.11,438.11 L682.83,438.11 L683.55,438.11 L684.27,438.11 L684.99,438.11 L685.71,438.11 L686.44,438.11   L687.16,438.11 L687.88,438.11 L688.60,438.11 L689.32,438.11 L690.04,438.11 L690.76,438.11 L691.48,438.11 L692.20,438.11   L692.92,438.11 L693.64,438.11 L694.36,438.11 L695.08,438.11 L695.80,438.11 L696.52,438.11 L697.24,438.11 L697.96,438.11   L698.68,438.11 L699.40,438.11 L700.13,438.11 L700.85,438.11 L701.57,438.11 L702.29,438.11 L703.01,438.11 L703.73,438.11   L704.45,438.11 L705.17,438.11 L705.89,427.71 L706.61,416.39 L707.33,404.86 L708.05,393.14 L708.77,381.25 L709.49,369.20   L710.21,357.01 L710.93,344.70 L711.65,332.28 L712.37,319.77 L713.09,307.19 L713.82,294.56 L714.54,281.89 L715.26,269.21   L715.98,256.53 L716.70,243.86 L717.42,231.23 L718.14,218.65 L718.86,206.15 L719.58,193.73 L720.30,181.42 L721.02,169.24   L721.74,157.19 L722.46,145.31 L723.18,133.60 L723.90,122.08 L724.62,110.76 L725.34,100.80 L726.06,100.80 L726.78,100.80   L727.51,100.80 L728.23,100.80 L728.95,100.80 L729.67,100.80 L730.39,100.80 L731.11,100.80 L731.83,100.80 L732.55,100.80   L733.27,100.80 L733.99,100.80 L734.71,100.80 L735.43,100.80 L736.15,100.80 L736.87,100.80 L737.59,100.80 L738.31,100.80   L739.03,100.80 L739.75,100.80 L740.47,100.80 L741.20,100.80 L741.92,100.80 L742.64,100.80 L743.36,100.80 L744.08,100.80   L744.80,100.80 L745.52,100.80 L746.24,100.80 L746.96,100.80 L747.68,100.80 L748.40,100.80 L749.12,100.80 L749.84,100.80   L750.56,100.80 L751.28,100.80 L752.00,100.80 L752.72,100.80 L753.44,100.80 L754.16,100.80 L754.89,100.80 L755.61,100.80   L756.33,100.80 L757.05,100.80 L757.77,100.80 L758.49,100.80 L759.21,100.80 L759.93,100.80 L760.65,100.80 L761.37,100.80   L762.09,100.80 L762.81,100.80 L763.53,100.80 L764.25,100.80 L764.97,100.80 L765.69,102.57 L766.41,113.72 L767.13,125.09   L767.86,136.66 L768.58,148.42 L769.30,160.35 L770.02,172.44 L770.74,184.66 L771.46,196.99 L772.18,209.44 L772.90,221.96   L773.62,234.55 L774.34,247.19  "
           id="path34" />
      </g>
    </g>
    <g
       id="gnuplot_plot_2">
      <title
         id="title35">Measured wave</title>
      <g
         fill="none"
         color="white"
         stroke="rgb( 86, 180, 233)"
         stroke-width="3.00"
         stroke-linecap="butt"
         stroke-linejoin="miter"
         id="g36" />
      <g
         fill="none"
         color="black"
         stroke="currentColor"
         stroke-width="3.00"
         stroke-linecap="butt"
         stroke-linejoin="miter"
         id="g38">
        <g
           transform="translate(707.09,57.91)"
           stroke="none"
           fill="black"
           font-family="Arial"
           font-size="12.00"
           text-anchor="end"
           id="g37">
          <text
             id="text36"><tspan
               font-family="Arial"
               id="tspan36">Measured wave</tspan></text>
        </g>
      </g>
      <g
         fill="none"
         color="black"
         stroke="currentColor"
         stroke-width="3.00"
         stroke-linecap="butt"
         stroke-linejoin="miter"
         id="g39">
        <path
           stroke="rgb(148,   0, 211)"
           d="M715.48,54.01 L758.04,54.01 M54.53,333.58 L55.01,333.58 L55.49,341.76 L55.97,352.67 L56.45,360.85 L56.93,371.75   L57.41,378.57 L57.89,384.02 L58.37,394.93 L58.85,401.74 L59.33,408.56 L59.81,416.74 L60.29,423.55 L60.77,431.73   L61.25,433.09 L61.73,434.46 L62.21,437.18 L62.69,435.82 L63.17,437.18 L63.65,438.55 L64.13,438.55 L64.61,435.82   L65.09,438.55 L65.57,438.55 L66.05,438.55 L66.53,437.18 L67.02,438.55 L67.50,437.18 L67.98,438.55 L68.46,437.18   L68.94,437.18 L69.42,438.55 L69.90,437.18 L70.38,437.18 L70.86,437.18 L71.34,437.18 L71.82,437.18 L72.30,439.91   L72.78,438.55 L73.26,437.18 L73.74,438.55 L74.22,438.55 L74.70,437.18 L75.18,437.18 L75.66,437.18 L76.14,437.18   L76.62,439.91 L77.10,437.18 L77.58,438.55 L78.06,439.91 L78.54,439.91 L79.02,438.55 L79.50,437.18 L79.98,435.82   L80.46,438.55 L80.94,438.55 L81.42,437.18 L81.90,437.18 L82.38,438.55 L82.86,437.18 L83.34,437.18 L83.82,437.18   L84.30,437.18 L84.78,437.18 L85.26,439.91 L85.74,438.55 L86.22,438.55 L86.70,437.18 L87.18,438.55 L87.66,438.55   L88.14,438.55 L88.62,438.55 L89.10,438.55 L89.58,438.55 L90.06,438.55 L90.54,439.91 L91.02,438.55 L91.50,437.18   L91.99,438.55 L92.47,438.55 L92.95,438.55 L93.43,437.18 L93.91,438.55 L94.39,439.91 L94.87,438.55 L95.35,437.18   L95.83,437.18 L96.31,439.91 L96.79,437.18 L97.27,437.18 L97.75,437.18 L98.23,437.18 L98.71,438.55 L99.19,437.18   L99.67,438.55 L100.15,438.55 L100.63,438.55 L101.11,437.18 L101.59,437.18 L102.07,430.37 L102.55,424.92 L103.03,415.37   L103.51,414.01 L103.99,401.74 L104.47,393.56 L104.95,386.75 L105.43,378.57 L105.91,369.03 L106.39,362.21 L106.87,354.03   L107.35,344.49 L107.83,336.31 L108.31,326.77 L108.79,318.59 L109.27,309.05 L109.75,302.23 L110.23,291.33 L110.71,285.87   L111.19,276.33 L111.67,268.15 L112.15,261.34 L112.63,255.88 L113.11,246.34 L113.59,234.07 L114.07,225.89 L114.55,219.08   L115.03,208.17 L115.51,197.27 L115.99,190.45 L116.47,183.63 L116.96,176.82 L117.44,167.28 L117.92,160.46 L118.40,153.65   L118.88,146.83 L119.36,137.29 L119.84,130.47 L120.32,122.29 L120.80,115.48 L121.28,108.66 L121.76,105.93 L122.24,101.84   L122.72,103.21 L123.20,103.21 L123.68,100.48 L124.16,100.48 L124.64,100.48 L125.12,101.84 L125.60,100.48 L126.08,100.48   L126.56,100.48 L127.04,99.12 L127.52,99.12 L128.00,100.48 L128.48,100.48 L128.96,100.48 L129.44,100.48 L129.92,100.48   L130.40,100.48 L130.88,103.21 L131.36,100.48 L131.84,100.48 L132.32,101.84 L132.80,100.48 L133.28,99.12 L133.76,99.12   L134.24,100.48 L134.72,100.48 L135.20,100.48 L135.68,100.48 L136.16,100.48 L136.64,100.48 L137.12,100.48 L137.60,100.48   L138.08,100.48 L138.56,100.48 L139.04,101.84 L139.52,101.84 L140.00,100.48 L140.48,101.84 L140.96,100.48 L141.44,100.48   L141.93,101.84 L142.41,99.12 L142.89,100.48 L143.37,101.84 L143.85,101.84 L144.33,101.84 L144.81,100.48 L145.29,100.48   L145.77,101.84 L146.25,100.48 L146.73,100.48 L147.21,100.48 L147.69,100.48 L148.17,101.84 L148.65,100.48 L149.13,100.48   L149.61,100.48 L150.09,99.12 L150.57,99.12 L151.05,100.48 L151.53,100.48 L152.01,100.48 L152.49,100.48 L152.97,100.48   L153.45,99.12 L153.93,100.48 L154.41,101.84 L154.89,99.12 L155.37,99.12 L155.85,100.48 L156.33,100.48 L156.81,100.48   L157.29,100.48 L157.77,100.48 L158.25,100.48 L158.73,100.48 L159.21,101.84 L159.69,100.48 L160.17,100.48 L160.65,100.48   L161.13,101.84 L161.61,101.84 L162.09,105.93 L162.57,111.39 L163.05,118.20 L163.53,125.02 L164.01,135.92 L164.49,141.38   L164.97,149.56 L165.45,156.37 L165.93,164.55 L166.42,174.09 L166.90,182.27 L167.38,190.45 L167.86,197.27 L168.34,208.17   L168.82,213.62 L169.30,223.17 L169.78,231.35 L170.26,240.89 L170.74,246.34 L171.22,257.25 L171.70,265.42 L172.18,273.60   L172.66,280.42 L173.14,288.60 L173.62,299.50 L174.10,306.32 L174.58,315.86 L175.06,325.40 L175.54,333.58 L176.02,341.76   L176.50,348.58 L176.98,356.76 L177.46,364.94 L177.94,373.12 L178.42,382.66 L178.90,388.11 L179.38,399.02 L179.86,404.47   L180.34,412.65 L180.82,419.46 L181.30,429.01 L181.78,431.73 L182.26,434.46 L182.74,435.82 L183.22,437.18 L183.70,437.18   L184.18,437.18 L184.66,437.18 L185.14,435.82 L185.62,435.82 L186.10,437.18 L186.58,438.55 L187.06,437.18 L187.54,437.18   L188.02,437.18 L188.50,437.18 L188.98,437.18 L189.46,437.18 L189.94,438.55 L190.42,438.55 L190.90,437.18 L191.39,438.55   L191.87,437.18 L192.35,437.18 L192.83,437.18 L193.31,438.55 L193.79,437.18 L194.27,437.18 L194.75,437.18 L195.23,437.18   L195.71,437.18 L196.19,438.55 L196.67,438.55 L197.15,439.91 L197.63,438.55 L198.11,437.18 L198.59,438.55 L199.07,438.55   L199.55,438.55 L200.03,437.18 L200.51,437.18 L200.99,438.55 L201.47,437.18 L201.95,438.55 L202.43,438.55 L202.91,438.55   L203.39,437.18 L203.87,438.55 L204.35,437.18 L204.83,438.55 L205.31,437.18 L205.79,438.55 L206.27,439.91 L206.75,438.55   L207.23,437.18 L207.71,438.55 L208.19,439.91 L208.67,438.55 L209.15,435.82 L209.63,437.18 L210.11,438.55 L210.59,438.55   L211.07,438.55 L211.55,437.18 L212.03,438.55 L212.51,437.18 L212.99,439.91 L213.47,438.55 L213.95,438.55 L214.43,435.82   L214.91,437.18 L215.39,438.55 L215.87,438.55 L216.36,437.18 L216.84,438.55 L217.32,437.18 L217.80,438.55 L218.28,438.55   L218.76,438.55 L219.24,438.55 L219.72,438.55 L220.20,437.18 L220.68,437.18 L221.16,437.18 L221.64,438.55 L222.12,437.18   L222.60,431.73 L223.08,424.92 L223.56,419.46 L224.04,414.01 L224.52,403.10 L225.00,396.29 L225.48,388.11 L225.96,382.66   L226.44,370.39 L226.92,362.21 L227.40,358.12 L227.88,348.58 L228.36,339.04 L228.84,332.22 L229.32,322.68 L229.80,315.86   L230.28,306.32 L230.76,296.78 L231.24,288.60 L231.72,281.78 L232.20,270.88 L232.68,264.06 L233.16,254.52 L233.64,247.70   L234.12,238.16 L234.60,225.89 L235.08,224.53 L235.56,213.62 L236.04,202.72 L236.52,195.90 L237.00,189.09 L237.48,180.91   L237.96,171.37 L238.44,167.28 L238.92,155.01 L239.40,148.19 L239.88,142.74 L240.36,133.20 L240.85,123.66 L241.33,118.20   L241.81,108.66 L242.29,105.93 L242.77,104.57 L243.25,103.21 L243.73,103.21 L244.21,103.21 L244.69,100.48 L245.17,103.21   L245.65,100.48 L246.13,103.21 L246.61,100.48 L247.09,100.48 L247.57,100.48 L248.05,99.12 L248.53,100.48 L249.01,100.48   L249.49,100.48 L249.97,100.48 L250.45,100.48 L250.93,100.48 L251.41,100.48 L251.89,99.12 L252.37,100.48 L252.85,100.48   L253.33,101.84 L253.81,100.48 L254.29,101.84 L254.77,100.48 L255.25,103.21 L255.73,100.48 L256.21,100.48 L256.69,100.48   L257.17,101.84 L257.65,100.48 L258.13,99.12 L258.61,100.48 L259.09,101.84 L259.57,101.84 L260.05,100.48 L260.53,100.48   L261.01,101.84 L261.49,100.48 L261.97,100.48 L262.45,100.48 L262.93,100.48 L263.41,100.48 L263.89,99.12 L264.37,101.84   L264.85,99.12 L265.33,100.48 L265.82,101.84 L266.30,100.48 L266.78,100.48 L267.26,100.48 L267.74,100.48 L268.22,99.12   L268.70,99.12 L269.18,100.48 L269.66,99.12 L270.14,99.12 L270.62,100.48 L271.10,100.48 L271.58,100.48 L272.06,99.12   L272.54,100.48 L273.02,100.48 L273.50,100.48 L273.98,99.12 L274.46,100.48 L274.94,101.84 L275.42,99.12 L275.90,99.12   L276.38,100.48 L276.86,100.48 L277.34,100.48 L277.82,100.48 L278.30,100.48 L278.78,100.48 L279.26,99.12 L279.74,101.84   L280.22,100.48 L280.70,100.48 L281.18,100.48 L281.66,100.48 L282.14,101.84 L282.62,103.21 L283.10,108.66 L283.58,112.75   L284.06,122.29 L284.54,130.47 L285.02,140.01 L285.50,146.83 L285.98,153.65 L286.46,161.82 L286.94,167.28 L287.42,175.46   L287.90,185.00 L288.38,193.18 L288.86,201.36 L289.34,206.81 L289.82,220.44 L290.30,225.89 L290.79,239.52 L291.27,244.98   L291.75,253.16 L292.23,261.34 L292.71,269.51 L293.19,279.06 L293.67,288.60 L294.15,292.69 L294.63,302.23 L295.11,314.50   L295.59,321.31 L296.07,330.86 L296.55,336.31 L297.03,344.49 L297.51,352.67 L297.99,364.94 L298.47,369.03 L298.95,381.29   L299.43,386.75 L299.91,397.65 L300.39,403.10 L300.87,409.92 L301.35,416.74 L301.83,424.92 L302.31,431.73 L302.79,433.09   L303.27,435.82 L303.75,437.18 L304.23,435.82 L304.71,437.18 L305.19,437.18 L305.67,437.18 L306.15,435.82 L306.63,437.18   L307.11,437.18 L307.59,438.55 L308.07,435.82 L308.55,437.18 L309.03,437.18 L309.51,437.18 L309.99,437.18 L310.47,438.55   L310.95,439.91 L311.43,437.18 L311.91,438.55 L312.39,437.18 L312.87,438.55 L313.35,437.18 L313.83,437.18 L314.31,437.18   L314.79,437.18 L315.27,438.55 L315.76,438.55 L316.24,437.18 L316.72,437.18 L317.20,437.18 L317.68,438.55 L318.16,438.55   L318.64,437.18 L319.12,437.18 L319.60,437.18 L320.08,438.55 L320.56,438.55 L321.04,437.18 L321.52,438.55 L322.00,438.55   L322.48,437.18 L322.96,437.18 L323.44,437.18 L323.92,437.18 L324.40,439.91 L324.88,438.55 L325.36,437.18 L325.84,437.18   L326.32,439.91 L326.80,438.55 L327.28,439.91 L327.76,437.18 L328.24,437.18 L328.72,438.55 L329.20,438.55 L329.68,437.18   L330.16,437.18 L330.64,435.82 L331.12,439.91 L331.60,437.18 L332.08,438.55 L332.56,438.55 L333.04,438.55 L333.52,437.18   L334.00,439.91 L334.48,438.55 L334.96,435.82 L335.44,437.18 L335.92,437.18 L336.40,437.18 L336.88,437.18 L337.36,437.18   L337.84,437.18 L338.32,438.55 L338.80,437.18 L339.28,438.55 L339.76,438.55 L340.25,439.91 L340.73,437.18 L341.21,437.18   L341.69,438.55 L342.17,437.18 L342.65,437.18 L343.13,434.46 L343.61,429.01 L344.09,422.19 L344.57,415.37 L345.05,403.10   L345.53,396.29 L346.01,390.84 L346.49,385.38 L346.97,374.48 L347.45,367.66 L347.93,359.48 L348.41,352.67 L348.89,343.13   L349.37,336.31 L349.85,325.40 L350.33,317.23 L350.81,307.68 L351.29,298.14 L351.77,289.96 L352.25,287.24 L352.73,276.33   L353.21,268.15 L353.69,258.61 L354.17,250.43 L354.65,240.89 L355.13,234.07 L355.61,223.17 L356.09,216.35 L356.57,209.54   L357.05,199.99 L357.53,194.54 L358.01,183.63 L358.49,175.46 L358.97,165.91 L359.45,160.46 L359.93,150.92 L360.41,140.01   L360.89,135.92 L361.37,130.47 L361.85,120.93 L362.33,112.75 L362.81,108.66 L363.29,105.93 L363.77,103.21 L364.25,99.12   L364.73,103.21 L365.22,100.48 L365.70,100.48 L366.18,100.48 L366.66,101.84 L367.14,100.48 L367.62,101.84 L368.10,99.12   L368.58,100.48 L369.06,100.48 L369.54,100.48 L370.02,100.48 L370.50,100.48 L370.98,100.48 L371.46,99.12 L371.94,99.12   L372.42,100.48 L372.90,100.48 L373.38,100.48 L373.86,101.84 L374.34,101.84 L374.82,99.12 L375.30,100.48 L375.78,100.48   L376.26,99.12 L376.74,100.48 L377.22,99.12 L377.70,100.48 L378.18,100.48 L378.66,100.48 L379.14,99.12 L379.62,100.48   L380.10,103.21 L380.58,100.48 L381.06,100.48 L381.54,101.84 L382.02,100.48 L382.50,100.48 L382.98,99.12 L383.46,100.48   L383.94,99.12 L384.42,100.48 L384.90,100.48 L385.38,99.12 L385.86,99.12 L386.34,103.21 L386.82,100.48 L387.30,99.12   L387.78,100.48 L388.26,99.12 L388.74,101.84 L389.22,99.12 L389.70,100.48 L390.19,101.84 L390.67,99.12 L391.15,100.48   L391.63,100.48 L392.11,100.48 L392.59,100.48 L393.07,99.12 L393.55,99.12 L394.03,100.48 L394.51,100.48 L394.99,100.48   L395.47,99.12 L395.95,99.12 L396.43,99.12 L396.91,100.48 L397.39,100.48 L397.87,100.48 L398.35,99.12 L398.83,99.12   L399.31,100.48 L399.79,100.48 L400.27,99.12 L400.75,100.48 L401.23,101.84 L401.71,99.12 L402.19,100.48 L402.67,99.12   L403.15,100.48 L403.63,107.30 L404.11,112.75 L404.59,118.20 L405.07,126.38 L405.55,134.56 L406.03,141.38 L406.51,150.92   L406.99,157.73 L407.47,168.64 L407.95,175.46 L408.43,179.55 L408.91,191.81 L409.39,199.99 L409.87,208.17 L410.35,216.35   L410.83,224.53 L411.31,234.07 L411.79,244.98 L412.27,249.07 L412.75,257.25 L413.23,264.06 L413.71,274.97 L414.19,283.15   L414.68,289.96 L415.16,302.23 L415.64,307.68 L416.12,319.95 L416.60,324.04 L417.08,333.58 L417.56,341.76 L418.04,347.22   L418.52,358.12 L419.00,366.30 L419.48,374.48 L419.96,381.29 L420.44,390.84 L420.92,400.38 L421.40,405.83 L421.88,414.01   L422.36,423.55 L422.84,430.37 L423.32,431.73 L423.80,434.46 L424.28,437.18 L424.76,438.55 L425.24,435.82 L425.72,435.82   L426.20,438.55 L426.68,438.55 L427.16,437.18 L427.64,437.18 L428.12,438.55 L428.60,437.18 L429.08,438.55 L429.56,438.55   L430.04,438.55 L430.52,438.55 L431.00,437.18 L431.48,437.18 L431.96,439.91 L432.44,438.55 L432.92,437.18 L433.40,438.55   L433.88,439.91 L434.36,437.18 L434.84,438.55 L435.32,438.55 L435.80,438.55 L436.28,437.18 L436.76,438.55 L437.24,437.18   L437.72,438.55 L438.20,438.55 L438.68,438.55 L439.16,438.55 L439.65,438.55 L440.13,437.18 L440.61,439.91 L441.09,437.18   L441.57,437.18 L442.05,437.18 L442.53,438.55 L443.01,439.91 L443.49,437.18 L443.97,437.18 L444.45,438.55 L444.93,437.18   L445.41,439.91 L445.89,438.55 L446.37,438.55 L446.85,437.18 L447.33,437.18 L447.81,438.55 L448.29,438.55 L448.77,437.18   L449.25,438.55 L449.73,439.91 L450.21,437.18 L450.69,437.18 L451.17,437.18 L451.65,439.91 L452.13,435.82 L452.61,437.18   L453.09,438.55 L453.57,439.91 L454.05,438.55 L454.53,437.18 L455.01,437.18 L455.49,437.18 L455.97,438.55 L456.45,438.55   L456.93,438.55 L457.41,438.55 L457.89,438.55 L458.37,438.55 L458.85,438.55 L459.33,437.18 L459.81,437.18 L460.29,438.55   L460.77,437.18 L461.25,438.55 L461.73,437.18 L462.21,438.55 L462.69,439.91 L463.17,438.55 L463.65,435.82 L464.13,433.09   L464.62,424.92 L465.10,420.83 L465.58,412.65 L466.06,403.10 L466.54,396.29 L467.02,386.75 L467.50,378.57 L467.98,370.39   L468.46,364.94 L468.94,356.76 L469.42,347.22 L469.90,337.67 L470.38,329.49 L470.86,319.95 L471.34,313.14 L471.82,304.96   L472.30,295.41 L472.78,287.24 L473.26,276.33 L473.74,269.51 L474.22,262.70 L474.70,253.16 L475.18,246.34 L475.66,235.44   L476.14,229.98 L476.62,217.71 L477.10,212.26 L477.58,201.36 L478.06,195.90 L478.54,186.36 L479.02,180.91 L479.50,170.00   L479.98,163.19 L480.46,153.65 L480.94,146.83 L481.42,138.65 L481.90,130.47 L482.38,122.29 L482.86,116.84 L483.34,110.02   L483.82,105.93 L484.30,103.21 L484.78,100.48 L485.26,100.48 L485.74,104.57 L486.22,100.48 L486.70,100.48 L487.18,100.48   L487.66,99.12 L488.14,100.48 L488.62,100.48 L489.10,100.48 L489.59,100.48 L490.07,100.48 L490.55,101.84 L491.03,100.48   L491.51,100.48 L491.99,101.84 L492.47,100.48 L492.95,99.12 L493.43,100.48 L493.91,99.12 L494.39,100.48 L494.87,101.84   L495.35,100.48 L495.83,99.12 L496.31,100.48 L496.79,103.21 L497.27,99.12 L497.75,100.48 L498.23,100.48 L498.71,100.48   L499.19,100.48 L499.67,101.84 L500.15,100.48 L500.63,99.12 L501.11,99.12 L501.59,100.48 L502.07,100.48 L502.55,100.48   L503.03,100.48 L503.51,99.12 L503.99,100.48 L504.47,100.48 L504.95,99.12 L505.43,100.48 L505.91,99.12 L506.39,100.48   L506.87,99.12 L507.35,100.48 L507.83,101.84 L508.31,100.48 L508.79,99.12 L509.27,100.48 L509.75,101.84 L510.23,100.48   L510.71,101.84 L511.19,99.12 L511.67,100.48 L512.15,100.48 L512.63,100.48 L513.11,99.12 L513.59,100.48 L514.08,99.12   L514.56,99.12 L515.04,99.12 L515.52,100.48 L516.00,101.84 L516.48,99.12 L516.96,103.21 L517.44,100.48 L517.92,100.48   L518.40,99.12 L518.88,100.48 L519.36,100.48 L519.84,99.12 L520.32,100.48 L520.80,100.48 L521.28,99.12 L521.76,100.48   L522.24,100.48 L522.72,99.12 L523.20,99.12 L523.68,100.48 L524.16,108.66 L524.64,110.02 L525.12,118.20 L525.60,125.02   L526.08,131.83 L526.56,138.65 L527.04,146.83 L527.52,156.37 L528.00,161.82 L528.48,171.37 L528.96,180.91 L529.44,189.09   L529.92,195.90 L530.40,202.72 L530.88,212.26 L531.36,217.71 L531.84,225.89 L532.32,242.25 L532.80,244.98 L533.28,255.88   L533.76,261.34 L534.24,272.24 L534.72,279.06 L535.20,288.60 L535.68,296.78 L536.16,304.96 L536.64,314.50 L537.12,321.31   L537.60,332.22 L538.08,337.67 L538.56,349.94 L539.05,354.03 L539.53,363.57 L540.01,371.75 L540.49,378.57 L540.97,385.38   L541.45,397.65 L541.93,404.47 L542.41,411.28 L542.89,419.46 L543.37,424.92 L543.85,431.73 L544.33,433.09 L544.81,435.82   L545.29,437.18 L545.77,437.18 L546.25,437.18 L546.73,437.18 L547.21,438.55 L547.69,438.55 L548.17,438.55 L548.65,438.55   L549.13,438.55 L549.61,439.91 L550.09,438.55 L550.57,437.18 L551.05,438.55 L551.53,438.55 L552.01,437.18 L552.49,437.18   L552.97,439.91 L553.45,437.18 L553.93,438.55 L554.41,437.18 L554.89,439.91 L555.37,438.55 L555.85,439.91 L556.33,437.18   L556.81,439.91 L557.29,438.55 L557.77,437.18 L558.25,439.91 L558.73,438.55 L559.21,439.91 L559.69,437.18 L560.17,438.55   L560.65,439.91 L561.13,439.91 L561.61,441.27 L562.09,437.18 L562.57,437.18 L563.05,437.18 L563.53,438.55 L564.02,439.91   L564.50,439.91 L564.98,438.55 L565.46,439.91 L565.94,438.55 L566.42,438.55 L566.90,437.18 L567.38,438.55 L567.86,438.55   L568.34,438.55 L568.82,437.18 L569.30,437.18 L569.78,437.18 L570.26,439.91 L570.74,439.91 L571.22,438.55 L571.70,437.18   L572.18,438.55 L572.66,439.91 L573.14,438.55 L573.62,437.18 L574.10,438.55 L574.58,439.91 L575.06,437.18 L575.54,437.18   L576.02,439.91 L576.50,438.55 L576.98,437.18 L577.46,438.55 L577.94,438.55 L578.42,437.18 L578.90,437.18 L579.38,437.18   L579.86,437.18 L580.34,437.18 L580.82,437.18 L581.30,438.55 L581.78,438.55 L582.26,438.55 L582.74,438.55 L583.22,438.55   L583.70,439.91 L584.18,437.18 L584.66,433.09 L585.14,424.92 L585.62,420.83 L586.10,415.37 L586.58,407.19 L587.06,399.02   L587.54,388.11 L588.02,382.66 L588.50,375.84 L588.99,369.03 L589.47,358.12 L589.95,348.58 L590.43,341.76 L590.91,332.22   L591.39,326.77 L591.87,317.23 L592.35,310.41 L592.83,300.87 L593.31,291.33 L593.79,281.78 L594.27,273.60 L594.75,265.42   L595.23,258.61 L595.71,249.07 L596.19,240.89 L596.67,232.71 L597.15,221.80 L597.63,216.35 L598.11,205.45 L598.59,198.63   L599.07,190.45 L599.55,182.27 L600.03,174.09 L600.51,165.91 L600.99,156.37 L601.47,148.19 L601.95,142.74 L602.43,135.92   L602.91,127.75 L603.39,120.93 L603.87,111.39 L604.35,105.93 L604.83,104.57 L605.31,100.48 L605.79,101.84 L606.27,101.84   L606.75,101.84 L607.23,100.48 L607.71,100.48 L608.19,100.48 L608.67,101.84 L609.15,100.48 L609.63,100.48 L610.11,100.48   L610.59,103.21 L611.07,100.48 L611.55,99.12 L612.03,99.12 L612.51,100.48 L612.99,100.48 L613.48,100.48 L613.96,100.48   L614.44,100.48 L614.92,100.48 L615.40,100.48 L615.88,101.84 L616.36,100.48 L616.84,100.48 L617.32,100.48 L617.80,100.48   L618.28,100.48 L618.76,100.48 L619.24,99.12 L619.72,101.84 L620.20,99.12 L620.68,99.12 L621.16,100.48 L621.64,99.12   L622.12,100.48 L622.60,100.48 L623.08,100.48 L623.56,101.84 L624.04,100.48 L624.52,100.48 L625.00,99.12 L625.48,100.48   L625.96,100.48 L626.44,100.48 L626.92,101.84 L627.40,99.12 L627.88,99.12 L628.36,100.48 L628.84,100.48 L629.32,100.48   L629.80,100.48 L630.28,100.48 L630.76,100.48 L631.24,100.48 L631.72,99.12 L632.20,100.48 L632.68,101.84 L633.16,100.48   L633.64,101.84 L634.12,100.48 L634.60,99.12 L635.08,100.48 L635.56,101.84 L636.04,100.48 L636.52,99.12 L637.00,99.12   L637.48,100.48 L637.96,100.48 L638.45,99.12 L638.93,99.12 L639.41,100.48 L639.89,99.12 L640.37,100.48 L640.85,99.12   L641.33,100.48 L641.81,100.48 L642.29,100.48 L642.77,100.48 L643.25,100.48 L643.73,100.48 L644.21,100.48 L644.69,101.84   L645.17,108.66 L645.65,112.75 L646.13,120.93 L646.61,129.11 L647.09,135.92 L647.57,144.10 L648.05,153.65 L648.53,159.10   L649.01,167.28 L649.49,176.82 L649.97,183.63 L650.45,191.81 L650.93,199.99 L651.41,206.81 L651.89,217.71 L652.37,224.53   L652.85,232.71 L653.33,242.25 L653.81,251.79 L654.29,259.97 L654.77,265.42 L655.25,274.97 L655.73,284.51 L656.21,292.69   L656.69,300.87 L657.17,309.05 L657.65,319.95 L658.13,325.40 L658.61,334.95 L659.09,343.13 L659.57,352.67 L660.05,358.12   L660.53,369.03 L661.01,375.84 L661.49,386.75 L661.97,393.56 L662.45,401.74 L662.93,405.83 L663.42,415.37 L663.90,423.55   L664.38,430.37 L664.86,431.73 L665.34,435.82 L665.82,435.82 L666.30,437.18 L666.78,435.82 L667.26,437.18 L667.74,437.18   L668.22,437.18 L668.70,437.18 L669.18,437.18 L669.66,437.18 L670.14,437.18 L670.62,437.18 L671.10,437.18 L671.58,437.18   L672.06,438.55 L672.54,435.82 L673.02,438.55 L673.50,438.55 L673.98,437.18 L674.46,437.18 L674.94,437.18 L675.42,437.18   L675.90,438.55 L676.38,435.82 L676.86,437.18 L677.34,439.91 L677.82,438.55 L678.30,437.18 L678.78,438.55 L679.26,438.55   L679.74,439.91 L680.22,438.55 L680.70,437.18 L681.18,438.55 L681.66,437.18 L682.14,437.18 L682.62,438.55 L683.10,437.18   L683.58,437.18 L684.06,437.18 L684.54,437.18 L685.02,438.55 L685.50,437.18 L685.98,437.18 L686.46,437.18 L686.94,437.18   L687.42,437.18 L687.91,437.18 L688.39,438.55 L688.87,437.18 L689.35,437.18 L689.83,439.91 L690.31,437.18 L690.79,438.55   L691.27,438.55 L691.75,437.18 L692.23,438.55 L692.71,437.18 L693.19,437.18 L693.67,438.55 L694.15,437.18 L694.63,437.18   L695.11,438.55 L695.59,439.91 L696.07,437.18 L696.55,438.55 L697.03,438.55 L697.51,438.55 L697.99,437.18 L698.47,437.18   L698.95,438.55 L699.43,437.18 L699.91,437.18 L700.39,438.55 L700.87,438.55 L701.35,437.18 L701.83,438.55 L702.31,437.18   L702.79,438.55 L703.27,437.18 L703.75,437.18 L704.23,438.55 L704.71,438.55 L705.19,434.46 L705.67,430.37 L706.15,422.19   L706.63,418.10 L707.11,407.19 L707.59,401.74 L708.07,394.93 L708.55,385.38 L709.03,377.20 L709.51,370.39 L709.99,362.21   L710.47,352.67 L710.95,345.85 L711.43,336.31 L711.91,328.13 L712.39,321.31 L712.88,311.77 L713.36,304.96 L713.84,294.05   L714.32,285.87 L714.80,279.06 L715.28,270.88 L715.76,261.34 L716.24,249.07 L716.72,243.61 L717.20,234.07 L717.68,227.26   L718.16,220.44 L718.64,209.54 L719.12,199.99 L719.60,194.54 L720.08,183.63 L720.56,176.82 L721.04,170.00 L721.52,161.82   L722.00,152.28 L722.48,145.47 L722.96,140.01 L723.44,126.38 L723.92,122.29 L724.40,114.11 L724.88,108.66 L725.36,104.57   L725.84,103.21 L726.32,101.84 L726.80,101.84 L727.28,100.48 L727.76,100.48 L728.24,101.84 L728.72,100.48 L729.20,100.48   L729.68,99.12 L730.16,100.48 L730.64,100.48 L731.12,101.84 L731.60,100.48 L732.08,100.48 L732.56,101.84 L733.04,100.48   L733.52,101.84 L734.00,99.12 L734.48,100.48 L734.96,99.12 L735.44,101.84 L735.92,100.48 L736.40,101.84 L736.88,101.84   L737.36,100.48 L737.85,100.48 L738.33,101.84 L738.81,100.48 L739.29,101.84 L739.77,100.48 L740.25,100.48 L740.73,100.48   L741.21,100.48 L741.69,100.48 L742.17,101.84 L742.65,100.48 L743.13,99.12 L743.61,100.48 L744.09,100.48 L744.57,100.48   L745.05,100.48 L745.53,100.48 L746.01,99.12 L746.49,101.84 L746.97,99.12 L747.45,100.48 L747.93,100.48 L748.41,100.48   L748.89,100.48 L749.37,99.12 L749.85,100.48 L750.33,100.48 L750.81,100.48 L751.29,103.21 L751.77,100.48 L752.25,99.12   L752.73,101.84 L753.21,100.48 L753.69,99.12 L754.17,100.48 L754.65,101.84 L755.13,100.48 L755.61,100.48 L756.09,100.48   L756.57,100.48 L757.05,101.84 L757.53,100.48 L758.01,101.84 L758.49,100.48 L758.97,100.48 L759.45,100.48 L759.93,100.48   L760.41,99.12 L760.89,100.48 L761.37,99.12 L761.85,99.12 L762.33,101.84 L762.82,100.48 L763.30,100.48 L763.78,100.48   L764.26,100.48 L764.74,100.48 L765.22,101.84 L765.70,107.30 L766.18,111.39 L766.66,118.20 L767.14,122.29 L767.62,133.20   L768.10,141.38 L768.58,148.19 L769.06,156.37 L769.54,164.55 L770.02,170.00 L770.50,180.91 L770.98,187.72 L771.46,198.63   L771.94,206.81 L772.42,213.62 L772.90,224.53 L773.38,229.98 L773.86,239.52 L774.34,246.34  "
           id="path38" />
      </g>
    </g>
    <g
       fill="none"
       color="white"
       stroke="rgb(148,   0, 211)"
       stroke-width="2.00"
       stroke-linecap="butt"
       stroke-linejoin="miter"
       id="g40" />
    <g
       fill="none"
       color="black"
       stroke="currentColor"
       stroke-width="2.00"
       stroke-linecap="butt"
       stroke-linejoin="miter"
       id="g41" />
    <g
       fill="none"
       color="black"
       stroke="black"
       stroke-width="1.00"
       stroke-linecap="butt"
       stroke-linejoin="miter"
       id="g42" />
    <g
       fill="none"
       color="black"
       stroke="currentColor"
       stroke-width="1.00"
       stroke-linecap="butt"
       stroke-linejoin="miter"
       id="g43">
      <path
         stroke="black"
         d="M54.53,18.01 L54.53,444.00 L774.82,444.00 L774.82,18.01 L54.53,18.01 Z  "
         id="path42" />
    </g>
    <g
       fill="none"
       color="black"
       stroke="currentColor"
       stroke-width="1.00"
       stroke-linecap="butt"
       stroke-linejoin="miter"
       id="g44" />
  </g>
  <metadata
     id="metadata44">
    <rdf:RDF>
      <cc:Work
         rdf:about="">
        <dc:title>Gnuplot</dc:title>
      </cc:Work>
    </rdf:RDF>
  </metadata>
</svg>
